<svg width="104" height="104" viewBox="0 0 104 104" fill="none" xmlns="http://www.w3.org/2000/svg">
<path d="M52 102.5C24.1096 102.5 1.5 79.8904 1.5 52C1.5 24.1096 24.1096 1.5 52 1.5C79.8904 1.5 102.5 24.1096 102.5 52C102.5 79.8904 79.8904 102.5 52 102.5Z" stroke="#172057" stroke-width="3"/>
<mask id="path-2-outside-1_10014_33537" maskUnits="userSpaceOnUse" x="30" y="26" width="40" height="51" fill="black">
<rect fill="white" x="30" y="26" width="40" height="51"/>
<path d="M66.7535 74H55.4255V38.736L33.4095 52.624V41.424L59.2655 29.2H66.7535V74Z"/>
</mask>
<path d="M66.7535 74V77H69.7535V74H66.7535ZM55.4255 74H52.4255V77H55.4255V74ZM55.4255 38.736H58.4255V33.2965L53.8249 36.1987L55.4255 38.736ZM33.4095 52.624H30.4095V58.0635L35.0101 55.1613L33.4095 52.624ZM33.4095 41.424L32.1273 38.7118L30.4095 39.5239V41.424H33.4095ZM59.2655 29.2V26.2H58.5921L57.9833 26.4878L59.2655 29.2ZM66.7535 29.2H69.7535V26.2H66.7535V29.2ZM66.7535 71H55.4255V77H66.7535V71ZM58.4255 74V38.736H52.4255V74H58.4255ZM53.8249 36.1987L31.8089 50.0867L35.0101 55.1613L57.0261 41.2733L53.8249 36.1987ZM36.4095 52.624V41.424H30.4095V52.624H36.4095ZM34.6917 44.1362L60.5477 31.9122L57.9833 26.4878L32.1273 38.7118L34.6917 44.1362ZM59.2655 32.2H66.7535V26.2H59.2655V32.2ZM63.7535 29.2V74H69.7535V29.2H63.7535Z" fill="#172057" mask="url(#path-2-outside-1_10014_33537)"/>
</svg>
