<svg width="104" height="104" viewBox="0 0 104 104" fill="none" xmlns="http://www.w3.org/2000/svg">
<path d="M52 102.5C24.1096 102.5 1.5 79.8904 1.5 52C1.5 24.1096 24.1096 1.5 52 1.5C79.8904 1.5 102.5 24.1096 102.5 52C102.5 79.8904 79.8904 102.5 52 102.5Z" stroke="#172057" stroke-width="3"/>
<mask id="path-2-outside-1_10014_33539" maskUnits="userSpaceOnUse" x="25" y="25" width="55" height="52" fill="black">
<rect fill="white" x="25" y="25" width="55" height="52"/>
<path d="M75.0168 74H28.2328V67.344C28.4888 50.192 64.3288 50.96 64.3288 43.664C64.3288 39.44 60.1688 37.968 50.9528 37.968C43.4648 37.968 32.9048 39.76 29.8968 41.104V31.12C34.0568 29.456 44.3608 28.24 52.6808 28.24C68.4248 28.24 76.5528 31.312 76.5528 41.424C76.5528 59.792 45.7048 56.72 40.6488 64.4H75.0168V74Z"/>
</mask>
<path d="M75.0168 74V77H78.0168V74H75.0168ZM28.2328 74H25.2328V77H28.2328V74ZM28.2328 67.344L25.2331 67.2992L25.2328 67.3216V67.344H28.2328ZM29.8968 41.104H26.8968V45.7303L31.1206 43.843L29.8968 41.104ZM29.8968 31.12L28.7826 28.3346L26.8968 29.0889V31.12H29.8968ZM40.6488 64.4L38.143 62.7504L35.082 67.4H40.6488V64.4ZM75.0168 64.4H78.0168V61.4H75.0168V64.4ZM75.0168 71H28.2328V77H75.0168V71ZM31.2328 74V67.344H25.2328V74H31.2328ZM31.2324 67.3888C31.2779 64.3429 32.8341 61.9639 35.7378 59.8656C38.7244 57.7075 42.8403 56.0829 47.2872 54.6665C51.4566 53.3385 56.3684 52.0778 59.749 50.8497C61.4962 50.215 63.2193 49.4656 64.549 48.5017C65.8664 47.5467 67.3288 45.9767 67.3288 43.664H61.3288C61.3288 43.1753 61.6711 43.1773 61.0275 43.6438C60.3962 44.1014 59.3173 44.623 57.7005 45.2103C54.3531 46.4262 50.2889 47.4135 45.4663 48.9495C40.9212 50.3971 36.0291 52.2525 32.2237 55.0024C28.3354 57.8121 25.3156 61.7691 25.2331 67.2992L31.2324 67.3888ZM67.3288 43.664C67.3288 42.0907 66.931 40.5573 65.9584 39.2239C65.0063 37.9188 63.6792 37.0467 62.2319 36.455C59.454 35.3196 55.594 34.968 50.9528 34.968V40.968C55.5275 40.968 58.3555 41.3524 59.9616 42.009C60.7063 42.3133 60.9952 42.6012 61.1111 42.7601C61.2065 42.8907 61.3288 43.1253 61.3288 43.664H67.3288ZM50.9528 34.968C47.0067 34.968 42.3323 35.4366 38.2827 36.0678C34.3503 36.6807 30.5873 37.5096 28.6729 38.365L31.1206 43.843C32.2142 43.3544 35.2352 42.6153 39.2068 41.9962C43.0612 41.3954 47.4108 40.968 50.9528 40.968V34.968ZM32.8968 41.104V31.12H26.8968V41.104H32.8968ZM31.0109 33.9054C32.706 33.2274 35.991 32.5416 40.0973 32.0333C44.1189 31.5354 48.6516 31.24 52.6808 31.24V25.24C48.3899 25.24 43.6106 25.5526 39.3602 26.0787C35.1945 26.5944 31.2475 27.3486 28.7826 28.3346L31.0109 33.9054ZM52.6808 31.24C60.4987 31.24 65.842 32.0281 69.162 33.7147C70.7456 34.5191 71.7839 35.4874 72.4524 36.6214C73.1281 37.7678 73.5528 39.2994 73.5528 41.424H79.5528C79.5528 38.4926 78.9614 35.8482 77.6212 33.5746C76.2737 31.2886 74.2959 29.5929 71.8795 28.3653C67.1995 25.9879 60.6068 25.24 52.6808 25.24V31.24ZM73.5528 41.424C73.5528 45.0103 72.1153 47.4418 69.7615 49.3551C67.266 51.3836 63.7239 52.8272 59.6395 54.0451C57.6241 54.646 55.5587 55.1698 53.4976 55.6894C51.4623 56.2024 49.409 56.7167 47.5311 57.2791C45.661 57.8392 43.8355 58.4837 42.2644 59.2967C40.7135 60.0992 39.1733 61.1854 38.143 62.7504L43.1545 66.0496C43.3882 65.6946 43.918 65.1968 45.0219 64.6255C46.1055 64.0648 47.5195 63.5458 49.2524 63.0269C50.9775 62.5103 52.8907 62.0301 54.9642 61.5074C57.0118 60.9912 59.1974 60.438 61.354 59.7949C65.6136 58.5248 70.0995 56.8124 73.546 54.0109C77.1342 51.0942 79.5528 47.0217 79.5528 41.424H73.5528ZM40.6488 67.4H75.0168V61.4H40.6488V67.4ZM72.0168 64.4V74H78.0168V64.4H72.0168Z" fill="#172057" mask="url(#path-2-outside-1_10014_33539)"/>
</svg>
