<svg width="104" height="104" viewBox="0 0 104 104" fill="none" xmlns="http://www.w3.org/2000/svg">
<path d="M52 102.5C24.1096 102.5 1.5 79.8904 1.5 52C1.5 24.1096 24.1096 1.5 52 1.5C79.8904 1.5 102.5 24.1096 102.5 52C102.5 79.8904 79.8904 102.5 52 102.5Z" stroke="#172057" stroke-width="3"/>
<mask id="path-2-outside-1_10014_33541" maskUnits="userSpaceOnUse" x="24" y="25" width="55" height="54" fill="black">
<rect fill="white" x="24" y="25" width="55" height="54"/>
<path d="M50.0685 75.024C42.3245 74.96 33.3005 73.936 27.9245 71.824V61.648C32.2765 63.696 42.5805 65.424 48.9805 65.424C59.4765 65.424 65.3005 64.208 65.3005 61.328C65.3005 57.424 58.8365 55.952 38.2285 55.504V47.568C60.3725 46.672 64.0205 45.52 64.0205 42.512C64.0205 38.992 56.7885 37.648 48.9165 37.648C42.5805 37.648 32.3405 39.568 27.9245 41.552V31.376C33.3005 29.2 43.4125 28.112 49.5565 28.112C63.8925 28.112 74.7085 30.416 74.7085 40.4C74.7085 50.128 64.7245 51.216 55.5085 51.28V51.536C64.2125 51.536 75.9885 52.688 75.9885 62.224C75.9885 72.336 65.6205 75.088 50.0685 75.024Z"/>
</mask>
<path d="M50.0685 75.024L50.0437 78.0239L50.0562 78.024L50.0685 75.024ZM27.9245 71.824H24.9245V73.8686L26.8275 74.6163L27.9245 71.824ZM27.9245 61.648L29.2019 58.9335L24.9245 56.9207V61.648H27.9245ZM38.2285 55.504H35.2285V58.4395L38.1633 58.5033L38.2285 55.504ZM38.2285 47.568L38.1072 44.5705L35.2285 44.6869V47.568H38.2285ZM27.9245 41.552H24.9245V46.1887L29.1539 44.2885L27.9245 41.552ZM27.9245 31.376L26.7989 28.5952L24.9245 29.3539V31.376H27.9245ZM55.5085 51.28L55.4877 48.2801L52.5085 48.3008V51.28H55.5085ZM55.5085 51.536H52.5085V54.536H55.5085V51.536ZM50.0933 72.0241C42.4511 71.9609 33.8744 70.9382 29.0215 69.0317L26.8275 74.6163C32.7266 76.9338 42.1979 77.9591 50.0437 78.0239L50.0933 72.0241ZM30.9245 71.824V61.648H24.9245V71.824H30.9245ZM26.6471 64.3625C29.2004 65.564 33.1911 66.5612 37.1659 67.2588C41.2014 67.9671 45.558 68.424 48.9805 68.424V62.424C46.003 62.424 42.0076 62.0169 38.2031 61.3492C34.3379 60.6708 31.0006 59.78 29.2019 58.9335L26.6471 64.3625ZM48.9805 68.424C54.28 68.424 58.6509 68.123 61.7763 67.3732C63.3222 67.0024 64.8217 66.464 65.9969 65.6049C67.2608 64.6811 68.3005 63.2475 68.3005 61.328H62.3005C62.3005 60.8485 62.6122 60.6469 62.4561 60.7611C62.2114 60.94 61.5988 61.2456 60.3767 61.5388C57.9661 62.117 54.177 62.424 48.9805 62.424V68.424ZM68.3005 61.328C68.3005 59.3285 67.386 57.6436 65.7652 56.4315C64.3207 55.3513 62.3664 54.6751 60.1303 54.1886C55.6181 53.2069 48.5771 52.7283 38.2937 52.5047L38.1633 58.5033C48.4879 58.7277 54.9829 59.2091 58.8547 60.0514C60.8106 60.4769 61.7603 60.9287 62.1718 61.2365C62.3435 61.3649 62.3508 61.4166 62.3243 61.366C62.2933 61.3066 62.3005 61.2709 62.3005 61.328H68.3005ZM41.2285 55.504V47.568H35.2285V55.504H41.2285ZM38.3498 50.5655C49.3725 50.1195 56.0781 49.6045 60.0475 48.7674C61.996 48.3566 63.7141 47.7893 64.9673 46.7966C66.4797 45.5985 67.0205 44.036 67.0205 42.512H61.0205C61.0205 42.584 61.0101 42.4925 61.0799 42.3357C61.1562 42.1645 61.2514 42.0857 61.2417 42.0934C61.1189 42.1907 60.541 42.5314 58.8095 42.8966C55.4189 43.6115 49.2285 44.1205 38.1072 44.5705L38.3498 50.5655ZM67.0205 42.512C67.0205 40.4432 65.9047 38.9032 64.6056 37.8961C63.3662 36.9351 61.794 36.306 60.2239 35.8696C57.0531 34.9883 52.9672 34.648 48.9165 34.648V40.648C52.7378 40.648 56.2039 40.9797 58.6171 41.6504C59.839 41.99 60.5668 42.3569 60.9294 42.6379C61.2323 42.8727 61.0205 42.8208 61.0205 42.512H67.0205ZM48.9165 34.648C45.5011 34.648 41.1613 35.1589 37.1506 35.9068C33.1795 36.6473 29.2342 37.6747 26.6951 38.8155L29.1539 44.2885C31.0308 43.4453 34.4135 42.5207 38.2504 41.8052C42.0477 41.0971 45.9959 40.648 48.9165 40.648V34.648ZM30.9245 41.552V31.376H24.9245V41.552H30.9245ZM29.0501 34.1568C31.3885 33.2104 34.966 32.434 38.86 31.9002C42.7071 31.3728 46.6344 31.112 49.5565 31.112V25.112C46.3346 25.112 42.1339 25.3952 38.045 25.9558C34.003 26.5099 29.8365 27.3656 26.7989 28.5952L29.0501 34.1568ZM49.5565 31.112C56.6771 31.112 62.461 31.7017 66.3807 33.2919C68.2935 34.068 69.59 35.0154 70.4108 36.0896C71.203 37.1261 71.7085 38.4821 71.7085 40.4H77.7085C77.7085 37.3258 76.862 34.6499 75.1782 32.4464C73.523 30.2806 71.2195 28.78 68.6363 27.7321C63.564 25.6743 56.7719 25.112 49.5565 25.112V31.112ZM71.7085 40.4C71.7085 42.2917 71.234 43.5373 70.5863 44.4196C69.9189 45.3285 68.8935 46.0866 67.4262 46.6883C64.3736 47.9402 60.1096 48.248 55.4877 48.2801L55.5293 54.2799C60.1234 54.248 65.4594 53.9798 69.7028 52.2397C71.8835 51.3454 73.9301 50.0035 75.4227 47.9704C76.935 45.9107 77.7085 43.3723 77.7085 40.4H71.7085ZM52.5085 51.28V51.536H58.5085V51.28H52.5085ZM55.5085 54.536C59.8252 54.536 64.4825 54.8369 67.9788 56.1203C69.6949 56.7502 70.9344 57.5482 71.7332 58.4816C72.4829 59.3577 72.9885 60.5156 72.9885 62.224H78.9885C78.9885 59.1644 78.0221 56.6023 76.2918 54.5804C74.6106 52.6158 72.3621 51.3378 70.0463 50.4877C65.4785 48.8111 59.8958 48.536 55.5085 48.536V54.536ZM72.9885 62.224C72.9885 64.2109 72.4901 65.6417 71.6951 66.7403C70.8803 67.8662 69.5944 68.8616 67.6787 69.6826C63.7438 71.369 57.7927 72.0558 50.0808 72.024L50.0562 78.024C57.8963 78.0562 64.9052 77.399 70.0423 75.1974C72.6626 74.0744 74.9407 72.4898 76.5559 70.2577C78.1909 67.9983 78.9885 65.2931 78.9885 62.224H72.9885Z" fill="#172057" mask="url(#path-2-outside-1_10014_33541)"/>
</svg>
