<svg width="104" height="104" viewBox="0 0 104 104" fill="none" xmlns="http://www.w3.org/2000/svg">
<path d="M52 102.5C24.1096 102.5 1.5 79.8904 1.5 52C1.5 24.1096 24.1096 1.5 52 1.5C79.8904 1.5 102.5 24.1096 102.5 52C102.5 79.8904 79.8904 102.5 52 102.5Z" stroke="#172057" stroke-width="3"/>
<mask id="path-2-outside-1_10014_33535" maskUnits="userSpaceOnUse" x="22" y="26" width="60" height="51" fill="black">
<rect fill="white" x="22" y="26" width="60" height="51"/>
<path d="M72.4078 74H61.1438V66.64H25.1758V59.28L55.1278 29.2H72.4078V57.04H78.4878V66.64H72.4078V74ZM61.1438 36.048L40.4718 57.04H61.1438V36.048Z"/>
</mask>
<path d="M72.4078 74V77H75.4078V74H72.4078ZM61.1438 74H58.1438V77H61.1438V74ZM61.1438 66.64H64.1438V63.64H61.1438V66.64ZM25.1758 66.64H22.1758V69.64H25.1758V66.64ZM25.1758 59.28L23.0499 57.1632L22.1758 58.0411V59.28H25.1758ZM55.1278 29.2V26.2H53.8814L53.0019 27.0832L55.1278 29.2ZM72.4078 29.2H75.4078V26.2H72.4078V29.2ZM72.4078 57.04H69.4078V60.04H72.4078V57.04ZM78.4878 57.04H81.4878V54.04H78.4878V57.04ZM78.4878 66.64V69.64H81.4878V66.64H78.4878ZM72.4078 66.64V63.64H69.4078V66.64H72.4078ZM61.1438 36.048H64.1438V28.726L59.0062 33.943L61.1438 36.048ZM40.4718 57.04L38.3342 54.935L33.3071 60.04H40.4718V57.04ZM61.1438 57.04V60.04H64.1438V57.04H61.1438ZM72.4078 71H61.1438V77H72.4078V71ZM64.1438 74V66.64H58.1438V74H64.1438ZM61.1438 63.64H25.1758V69.64H61.1438V63.64ZM28.1758 66.64V59.28H22.1758V66.64H28.1758ZM27.3016 61.3968L57.2536 31.3168L53.0019 27.0832L23.0499 57.1632L27.3016 61.3968ZM55.1278 32.2H72.4078V26.2H55.1278V32.2ZM69.4078 29.2V57.04H75.4078V29.2H69.4078ZM72.4078 60.04H78.4878V54.04H72.4078V60.04ZM75.4878 57.04V66.64H81.4878V57.04H75.4878ZM78.4878 63.64H72.4078V69.64H78.4878V63.64ZM69.4078 66.64V74H75.4078V66.64H69.4078ZM59.0062 33.943L38.3342 54.935L42.6093 59.145L63.2813 38.153L59.0062 33.943ZM40.4718 60.04H61.1438V54.04H40.4718V60.04ZM64.1438 57.04V36.048H58.1438V57.04H64.1438Z" fill="#172057" mask="url(#path-2-outside-1_10014_33535)"/>
</svg>
