<svg width="104" height="104" viewBox="0 0 104 104" fill="none" xmlns="http://www.w3.org/2000/svg">
<path d="M52 102.5C24.1096 102.5 1.5 79.8904 1.5 52C1.5 24.1096 24.1096 1.5 52 1.5C79.8904 1.5 102.5 24.1096 102.5 52C102.5 79.8904 79.8904 102.5 52 102.5Z" stroke="#172057" stroke-width="3"/>
<mask id="path-2-outside-1_10014_33533" maskUnits="userSpaceOnUse" x="25" y="26" width="54" height="53" fill="black">
<rect fill="white" x="25" y="26" width="54" height="53"/>
<path d="M49.1963 75.024C42.5403 75.024 33.5803 74 28.7163 71.824V61.52C32.8763 63.632 41.9003 65.36 49.3243 65.36C58.1562 65.36 63.8523 63.376 63.8523 59.344C63.8523 55.184 59.7563 53.328 50.5403 53.328C45.1643 53.328 38.8923 54.864 34.2203 56.848L29.2923 52.24L31.8523 29.2H73.1323V38.736H40.2363L38.7643 47.312C42.8603 45.712 48.8123 44.944 54.9563 44.944C65.6443 44.944 75.1163 48.272 75.1163 59.664C75.1163 69.456 64.8763 75.024 49.1963 75.024Z"/>
</mask>
<path d="M28.7163 71.824H25.7163V73.7684L27.4912 74.5625L28.7163 71.824ZM28.7163 61.52L30.0743 58.845L25.7163 56.6324V61.52H28.7163ZM34.2203 56.848L32.1713 59.0393L33.5967 60.3721L35.3929 59.6093L34.2203 56.848ZM29.2923 52.24L26.3106 51.9087L26.1445 53.4038L27.2433 54.4313L29.2923 52.24ZM31.8523 29.2V26.2H29.1671L28.8706 28.8687L31.8523 29.2ZM73.1323 29.2H76.1323V26.2H73.1323V29.2ZM73.1323 38.736V41.736H76.1323V38.736H73.1323ZM40.2363 38.736V35.736H37.7073L37.2795 38.2285L40.2363 38.736ZM38.7643 47.312L35.8075 46.8045L34.9091 52.0387L39.8558 50.1064L38.7643 47.312ZM49.1963 72.024C46.0061 72.024 42.2446 71.7775 38.7103 71.2704C35.126 70.7561 31.994 70.0038 29.9413 69.0855L27.4912 74.5625C30.3025 75.8202 34.0825 76.6679 37.8582 77.2096C41.6839 77.7585 45.7304 78.024 49.1963 78.024V72.024ZM31.7163 71.824V61.52H25.7163V71.824H31.7163ZM27.3582 64.195C29.8141 65.4418 33.4362 66.4652 37.2422 67.1804C41.1022 67.9057 45.401 68.36 49.3243 68.36V62.36C45.8235 62.36 41.8983 61.9503 38.3503 61.2836C34.7483 60.6068 31.7784 59.7102 30.0743 58.845L27.3582 64.195ZM49.3243 68.36C53.8927 68.36 57.9627 67.8566 61.0038 66.6537C64.0292 65.4569 66.8523 63.1639 66.8523 59.344H60.8523C60.8523 59.5561 60.8273 60.2711 58.7967 61.0743C56.7818 61.8714 53.5878 62.36 49.3243 62.36V68.36ZM66.8523 59.344C66.8523 57.7869 66.4596 56.2707 65.531 54.9358C64.6181 53.6235 63.3333 52.6959 61.8884 52.0425C59.1029 50.7829 55.2363 50.328 50.5403 50.328V56.328C55.0602 56.328 57.8496 56.8011 59.4161 57.5095C60.1472 57.8401 60.4625 58.1565 60.6055 58.3622C60.7329 58.5453 60.8523 58.8211 60.8523 59.344H66.8523ZM50.5403 50.328C44.686 50.328 38.0142 51.9776 33.0476 54.0867L35.3929 59.6093C39.7703 57.7504 45.6425 56.328 50.5403 56.328V50.328ZM36.2692 54.6567L31.3412 50.0487L27.2433 54.4313L32.1713 59.0393L36.2692 54.6567ZM32.2739 52.5713L34.8339 29.5313L28.8706 28.8687L26.3106 51.9087L32.2739 52.5713ZM31.8523 32.2H73.1323V26.2H31.8523V32.2ZM70.1323 29.2V38.736H76.1323V29.2H70.1323ZM73.1323 35.736H40.2363V41.736H73.1323V35.736ZM37.2795 38.2285L35.8075 46.8045L41.721 47.8195L43.193 39.2435L37.2795 38.2285ZM39.8558 50.1064C43.4523 48.7015 48.9781 47.944 54.9563 47.944V41.944C48.6464 41.944 42.2682 42.7225 37.6727 44.5176L39.8558 50.1064ZM54.9563 47.944C60.0838 47.944 64.4708 48.7591 67.4837 50.5942C70.2623 52.2865 72.1163 54.9772 72.1163 59.664H78.1163C78.1163 52.9587 75.2342 48.2895 70.6048 45.4698C66.2098 42.7929 60.5167 41.944 54.9563 41.944V47.944ZM72.1163 59.664C72.1163 63.301 70.3023 66.2383 66.5335 68.4195C62.6391 70.6735 56.7457 72.024 49.1963 72.024V78.024C57.3268 78.024 64.3934 76.5905 69.539 73.6125C74.8102 70.5617 78.1163 65.819 78.1163 59.664H72.1163Z" fill="#172057" mask="url(#path-2-outside-1_10014_33533)"/>
</svg>
