<svg width="48" height="48" viewBox="0 0 48 48" fill="none" xmlns="http://www.w3.org/2000/svg">
<g clip-path="url(#clip0_9801_60239)">
<circle cx="24" cy="14" r="6" stroke="#172057" stroke-width="1.5"/>
<ellipse cx="10" cy="20" rx="4" ry="4" stroke="#172057" stroke-width="1.5"/>
<circle cx="38" cy="20" r="4" stroke="#172057" stroke-width="1.5"/>
<path d="M14 30L12 42L36 42L34 30C34 30 32 26 28 26L24 26L20 26C16 26 14 30 14 30Z" stroke="#172057" stroke-width="1.5" stroke-linecap="round" stroke-linejoin="round"/>
<path d="M14 30C12.5714 30 12 30 8 30C4 30 3 34 3 34L2 42L12 42" stroke="#172057" stroke-width="1.5" stroke-linecap="round" stroke-linejoin="round"/>
<path d="M34 30C35.4286 30 36 30 40 30C44 30 45 34 45 34L46 42L36 42" stroke="#172057" stroke-width="1.5" stroke-linecap="round" stroke-linejoin="round"/>
</g>
<defs>
<clipPath id="clip0_9801_60239">
<rect width="48" height="48" fill="white"/>
</clipPath>
</defs>
</svg>
