<svg width="24" height="24" viewBox="0 0 24 24" fill="none" xmlns="http://www.w3.org/2000/svg">
<g clip-path="url(#clip0_742_59678)">
<circle cx="12" cy="7" r="3" stroke="black" stroke-width="1.5"/>
<circle cx="5" cy="10" r="2" stroke="black" stroke-width="1.5"/>
<circle cx="19" cy="10" r="2" stroke="black" stroke-width="1.5"/>
<path d="M7 15L6 21L18 21L17 15C17 15 16 13 14 13L12 13L10 13C8 13 7 15 7 15Z" stroke="black" stroke-width="1.5" stroke-linecap="round" stroke-linejoin="round"/>
<path d="M7 15C6.28571 15 6 15 4 15C2 15 1.5 17 1.5 17L1 21L6 21" stroke="black" stroke-width="1.5" stroke-linecap="round" stroke-linejoin="round"/>
<path d="M17 15C17.7143 15 18 15 20 15C22 15 22.5 17 22.5 17L23 21L18 21" stroke="black" stroke-width="1.5" stroke-linecap="round" stroke-linejoin="round"/>
</g>
<defs>
<clipPath id="clip0_742_59678">
<rect width="24" height="24" fill="white"/>
</clipPath>
</defs>
</svg>
