<svg width="48" height="48" viewBox="0 0 48 48" fill="none" xmlns="http://www.w3.org/2000/svg">
<g clip-path="url(#clip0_9801_60283)">
<path d="M38 18C38 25.732 31.732 32 24 32C16.268 32 10 25.732 10 18C10 10.268 16.268 4 24 4C31.732 4 38 10.268 38 18Z" stroke="#172057" stroke-width="1.5" stroke-linecap="round" stroke-linejoin="round"/>
<path d="M15.681 29.3143C15.8545 28.9382 15.6904 28.4926 15.3143 28.319C14.9382 28.1455 14.4926 28.3096 14.319 28.6857L15.681 29.3143ZM9 42L8.31903 41.6857C8.20258 41.938 8.23518 42.234 8.40374 42.4549C8.5723 42.6759 8.8492 42.7855 9.1233 42.7398L9 42ZM15 41L15.6431 40.6141L15.3804 40.1763L14.8767 40.2602L15 41ZM18 46L17.3569 46.3859C17.5009 46.6258 17.7665 46.7657 18.0458 46.7486C18.3251 46.7315 18.5717 46.5603 18.6854 46.3046L18 46ZM22.2409 38.3046C22.4091 37.9261 22.2387 37.4829 21.8602 37.3146C21.4816 37.1464 21.0384 37.3169 20.8702 37.6954L22.2409 38.3046ZM14.319 28.6857L8.31903 41.6857L9.68097 42.3143L15.681 29.3143L14.319 28.6857ZM9.1233 42.7398L15.1233 41.7398L14.8767 40.2602L8.8767 41.2602L9.1233 42.7398ZM14.3569 41.3859L17.3569 46.3859L18.6431 45.6141L15.6431 40.6141L14.3569 41.3859ZM18.6854 46.3046L22.2409 38.3046L20.8702 37.6954L17.3146 45.6954L18.6854 46.3046Z" fill="#172057"/>
<path d="M32.3396 29.3556C32.1433 28.9909 32.2797 28.536 32.6444 28.3396C33.0091 28.1433 33.464 28.2797 33.6604 28.6444L32.3396 29.3556ZM40 42L40.6604 41.6444C40.796 41.8964 40.7765 42.2036 40.61 42.4364C40.4435 42.6691 40.159 42.7868 39.8767 42.7398L40 42ZM34 41L33.3569 40.6141L33.6196 40.1763L34.1233 40.2602L34 41ZM31 46L31.6431 46.3859C31.5023 46.6206 31.2448 46.76 30.9712 46.7494C30.6977 46.7389 30.4516 46.5802 30.3292 46.3354L31 46ZM23.3292 32.3354C23.1439 31.9649 23.2941 31.5144 23.6646 31.3292C24.0351 31.1439 24.4856 31.2941 24.6708 31.6646L23.3292 32.3354ZM33.6604 28.6444L40.6604 41.6444L39.3396 42.3556L32.3396 29.3556L33.6604 28.6444ZM39.8767 42.7398L33.8767 41.7398L34.1233 40.2602L40.1233 41.2602L39.8767 42.7398ZM34.6431 41.3859L31.6431 46.3859L30.3569 45.6141L33.3569 40.6141L34.6431 41.3859ZM30.3292 46.3354L23.3292 32.3354L24.6708 31.6646L31.6708 45.6646L30.3292 46.3354Z" fill="#172057"/>
</g>
<defs>
<clipPath id="clip0_9801_60283">
<rect width="48" height="48" fill="white"/>
</clipPath>
</defs>
</svg>
