<svg width="24" height="24" viewBox="0 0 24 24" fill="none" xmlns="http://www.w3.org/2000/svg">
<g clip-path="url(#clip0_742_59718)">
<path d="M19 9C19 12.866 15.866 16 12 16C8.13401 16 5 12.866 5 9C5 5.13401 8.13401 2 12 2C15.866 2 19 5.13401 19 9Z" stroke="black" stroke-width="1.5" stroke-linecap="round" stroke-linejoin="round"/>
<path d="M8.18097 14.8143C8.35455 14.4382 8.19038 13.9926 7.81429 13.819C7.4382 13.6455 6.99261 13.8096 6.81903 14.1857L8.18097 14.8143ZM4.5 21L3.81903 20.6857C3.70258 20.938 3.73518 21.234 3.90374 21.4549C4.0723 21.6759 4.3492 21.7855 4.6233 21.7398L4.5 21ZM7.5 20.5L8.14312 20.1141L7.8804 19.6763L7.3767 19.7602L7.5 20.5ZM9 23L8.35688 23.3859C8.50086 23.6258 8.76647 23.7657 9.04579 23.7486C9.32512 23.7315 9.5717 23.5603 9.68536 23.3046L9 23ZM11.4631 19.3046C11.6314 18.9261 11.4609 18.4829 11.0824 18.3146C10.7039 18.1464 10.2606 18.3169 10.0924 18.6954L11.4631 19.3046ZM6.81903 14.1857L3.81903 20.6857L5.18097 21.3143L8.18097 14.8143L6.81903 14.1857ZM4.6233 21.7398L7.6233 21.2398L7.3767 19.7602L4.3767 20.2602L4.6233 21.7398ZM6.85688 20.8859L8.35688 23.3859L9.64312 22.6141L8.14312 20.1141L6.85688 20.8859ZM9.68536 23.3046L11.4631 19.3046L10.0924 18.6954L8.31464 22.6954L9.68536 23.3046Z" fill="black"/>
<path d="M15.8396 14.8556C15.6433 14.4909 15.7797 14.036 16.1444 13.8396C16.5091 13.6433 16.964 13.7797 17.1604 14.1444L15.8396 14.8556ZM20 21L20.6604 20.6444C20.796 20.8964 20.7765 21.2036 20.61 21.4364C20.4435 21.6691 20.159 21.7868 19.8767 21.7398L20 21ZM17 20.5L16.3569 20.1141L16.6196 19.6763L17.1233 19.7602L17 20.5ZM15.5 23L16.1431 23.3859C16.0023 23.6206 15.7448 23.76 15.4712 23.7494C15.1977 23.7389 14.9516 23.5802 14.8292 23.3354L15.5 23ZM11.3292 16.3354C11.1439 15.9649 11.2941 15.5144 11.6646 15.3292C12.0351 15.1439 12.4856 15.2941 12.6708 15.6646L11.3292 16.3354ZM17.1604 14.1444L20.6604 20.6444L19.3396 21.3556L15.8396 14.8556L17.1604 14.1444ZM19.8767 21.7398L16.8767 21.2398L17.1233 19.7602L20.1233 20.2602L19.8767 21.7398ZM17.6431 20.8859L16.1431 23.3859L14.8569 22.6141L16.3569 20.1141L17.6431 20.8859ZM14.8292 23.3354L11.3292 16.3354L12.6708 15.6646L16.1708 22.6646L14.8292 23.3354Z" fill="black"/>
</g>
<defs>
<clipPath id="clip0_742_59718">
<rect width="24" height="24" fill="white"/>
</clipPath>
</defs>
</svg>
