<svg width="24" height="24" viewBox="0 0 24 24" fill="none" xmlns="http://www.w3.org/2000/svg">
<g clip-path="url(#clip0_742_59705)">
<path d="M12 1C5.92492 1 1 5.92492 1 12C1 17.1586 4.55168 21.4873 9.34284 22.6762C10.1938 22.8874 11.0839 23 12 23C12.451 23 12.8958 22.9723 13.3328 22.9195C18.7795 22.2617 23 17.6241 23 12C23 5.92492 18.0751 1 12 1Z" stroke="white" stroke-width="1.5"/>
<path d="M15.9168 15.0561L16.478 12.0001H13.2116V10.9193C13.2116 9.30449 13.8452 8.68329 15.4848 8.68329C15.994 8.68329 16.404 8.69569 16.64 8.72049V5.95049C16.1928 5.82609 15.0996 5.70209 14.466 5.70209C11.1244 5.70209 9.58397 7.27969 9.58397 10.6833V12.0001H7.52197V15.0561H9.58397V22.7057C10.3576 22.8977 11.1668 23.0001 11.9996 23.0001C12.4096 23.0001 13.2112 22.9269 13.2112 22.9269V15.0561H15.9168Z" fill="white"/>
</g>
<defs>
<clipPath id="clip0_742_59705">
<rect width="24" height="24" fill="white"/>
</clipPath>
</defs>
</svg>
