<svg width="24" height="24" viewBox="0 0 24 24" fill="none" xmlns="http://www.w3.org/2000/svg">
<path d="M13 13H15C16.1046 13 17 13.8954 17 15V18C17 19.1046 17.8954 20 19 20C20.1046 20 21 19.1046 21 18V8" stroke="black" stroke-width="1.5" stroke-linecap="round"/>
<path d="M13 10L3 10" stroke="black" stroke-width="1.5" stroke-linecap="round"/>
<path d="M21 8L16 3" stroke="black" stroke-width="1.5" stroke-linecap="round"/>
<path d="M3 4C3 3.44772 3.44772 3 4 3H12C12.5523 3 13 3.44772 13 4V21H3V4Z" stroke="black" stroke-width="1.5" stroke-linejoin="round"/>
<path d="M2 21H14" stroke="black" stroke-width="1.5" stroke-linecap="round"/>
<path d="M18 5V9L21 12" stroke="black" stroke-width="1.5" stroke-linecap="round"/>
<path d="M8.83325 13.5L10.1666 15.5L8.83325 17.5" stroke="black" stroke-width="1.5" stroke-linecap="round" stroke-linejoin="round"/>
<path d="M6 13.5L7.33333 15.5L6 17.5" stroke="black" stroke-width="1.5" stroke-linecap="round" stroke-linejoin="round"/>
</svg>
