<svg width="24" height="24" viewBox="0 0 24 24" fill="none" xmlns="http://www.w3.org/2000/svg">
<path d="M13.5 13H15C16.1046 13 17 13.8954 17 15V18C17 19.1046 17.8954 20 19 20V20C20.1046 20 21 19.1046 21 18V8" stroke="black" stroke-width="1.5" stroke-linecap="round"/>
<path d="M13 10L5 10" stroke="black" stroke-width="1.5" stroke-linecap="round"/>
<path d="M21 8L16 3" stroke="black" stroke-width="1.5" stroke-linecap="round"/>
<path d="M5 4C5 3.44772 5.44772 3 6 3H12C12.5523 3 13 3.44772 13 4V21H5V4Z" stroke="black" stroke-width="1.5" stroke-linejoin="round"/>
<path d="M4 21H14" stroke="black" stroke-width="1.5" stroke-linecap="round"/>
<path d="M18 5V9L21 12" stroke="black" stroke-width="1.5" stroke-linecap="round"/>
</svg>
