<svg width="24" height="24" viewBox="0 0 24 24" fill="none" xmlns="http://www.w3.org/2000/svg">
<g clip-path="url(#clip0_2711_30444)">
<path d="M2.05103 16.6049L6.11388 16.6047L9.82619 20.317C10.3143 20.8052 11.1058 20.8052 11.594 20.317C12.0821 19.8289 12.0821 19.0374 11.594 18.5493L11.0636 18.0189" stroke="black" stroke-width="1.5" stroke-linecap="round" stroke-linejoin="round"/>
<path d="M12.124 15.5439L13.3614 16.7814C13.8496 17.2695 13.8496 18.061 13.3614 18.5491C12.8732 19.0373 12.0818 19.0373 11.5936 18.5491L10.3562 17.3117" stroke="black" stroke-width="1.5" stroke-linecap="round" stroke-linejoin="round"/>
<path d="M13.892 13.7764L15.483 15.3674C15.9712 15.8555 15.9712 16.647 15.483 17.1351C14.9949 17.6233 14.2034 17.6233 13.7153 17.1351L12.1243 15.5441" stroke="black" stroke-width="1.5" stroke-linecap="round" stroke-linejoin="round"/>
<path d="M15 11L17.6675 13.9347C18.127 14.4402 18.1085 15.2175 17.6255 15.7005C17.1257 16.2003 16.3154 16.2003 15.8156 15.7005L13.8921 13.777" stroke="black" stroke-width="1.5" stroke-linecap="round" stroke-linejoin="round"/>
<path d="M22.0505 5.97993L17.0504 5.98026L13.2352 4.51611C12.1291 4.09163 10.8767 4.35788 10.039 5.19563L5.40952 9.8251C4.82183 10.4128 4.82182 11.3657 5.40952 11.9534C5.99451 12.5383 6.942 12.5414 7.5308 11.9603L10.5505 8.97982C10.5505 8.97982 13 12 16 10.5" stroke="black" stroke-width="1.5" stroke-linecap="round"/>
<path d="M2.05078 7.97852L8 7" stroke="black" stroke-width="1.5" stroke-linecap="round" stroke-linejoin="round"/>
<path d="M18.051 14.9785L22.051 14.9785" stroke="black" stroke-width="1.5" stroke-linecap="round" stroke-linejoin="round"/>
<path d="M22.0508 4.97852L22.0508 15.9785" stroke="black" stroke-width="1.5" stroke-linecap="round" stroke-linejoin="round"/>
<path d="M2.05078 6.97949L2.05078 17.9795" stroke="black" stroke-width="1.5" stroke-linecap="round" stroke-linejoin="round"/>
</g>
<defs>
<clipPath id="clip0_2711_30444">
<rect width="24" height="24" fill="white"/>
</clipPath>
</defs>
</svg>
