<svg width="24" height="24" viewBox="0 0 24 24" fill="none" xmlns="http://www.w3.org/2000/svg">
<g clip-path="url(#clip0_742_59706)">
<path d="M12 15.5C13.933 15.5 15.5 13.933 15.5 12C15.5 10.067 13.933 8.5 12 8.5C10.067 8.5 8.5 10.067 8.5 12C8.5 13.933 10.067 15.5 12 15.5Z" stroke="white" stroke-width="1.5" stroke-linecap="round" stroke-linejoin="round"/>
<path d="M16.604 2.5H7.396C4.66262 2.5 2.5 4.66262 2.5 7.396V16.604C2.5 19.3374 4.66262 21.5 7.396 21.5H16.604C19.3374 21.5 21.5 19.3374 21.5 16.604V7.396C21.5 4.66262 19.3374 2.5 16.604 2.5Z" stroke="white" stroke-width="1.5"/>
<path d="M17.5 6.5V6.51" stroke="white" stroke-width="2" stroke-linecap="round" stroke-linejoin="round"/>
</g>
<defs>
<clipPath id="clip0_742_59706">
<rect width="24" height="24" fill="white"/>
</clipPath>
</defs>
</svg>
