<svg width="24" height="24" viewBox="0 0 24 24" fill="none" xmlns="http://www.w3.org/2000/svg">
<g clip-path="url(#clip0_742_59724)">
<path d="M11 22C7 22 4 18.1606 4 14C4 4.5 12 2 12 2L12.5 2.00004C9.5 7.5 13.5 12.5 17 7.5C18 8.16667 20 10.4 20 14C20 18.1606 17 22 13 22" stroke="black" stroke-width="1.5"/>
<path d="M13 22C14.5 22 15.5 20.5 15.5 19C15.5 17.5 14.5 15.5 12 15.5C9.5 15.5 8.5 17.3431 8.5 19C8.5 20.5 9.5 22 11 22" stroke="black" stroke-width="1.5"/>
</g>
<defs>
<clipPath id="clip0_742_59724">
<rect width="24" height="24" fill="white"/>
</clipPath>
</defs>
</svg>
