<svg width="48" height="48" viewBox="0 0 48 48" fill="none" xmlns="http://www.w3.org/2000/svg">
<g clip-path="url(#clip0_9801_52943)">
<path d="M22 44C14 44 8 36.3212 8 28C8 9 24 4 24 4L25 4.00008C19 15 27 25 34 15C36 16.3333 40 20.8 40 28C40 36.3212 34 44 26 44" stroke="#172057" stroke-width="1.5"/>
<path d="M26 44C29 44 31 41 31 38C31 35 29 31 24 31C19 31 17 34.6863 17 38C17 41 19 44 22 44" stroke="#172057" stroke-width="1.5"/>
</g>
<defs>
<clipPath id="clip0_9801_52943">
<rect width="48" height="48" fill="white"/>
</clipPath>
</defs>
</svg>
