<svg width="24" height="24" viewBox="0 0 24 24" fill="none" xmlns="http://www.w3.org/2000/svg">
<g clip-path="url(#clip0_2711_30453)">
<path d="M21 20L21 2L7 2L7 20C7 22 5 22 5 22L19 22C20 22 21 21 21 20Z" stroke="black" stroke-width="1.5" stroke-linecap="round" stroke-linejoin="round"/>
<path d="M17 22C17 22 6 22 5 22C4 22 3 21 3 20C3 19 3 5.5 3 5.5L7 5.5" stroke="black" stroke-width="1.5" stroke-linecap="round" stroke-linejoin="round"/>
<path d="M10 15L18 15" stroke="black" stroke-width="1.5" stroke-linecap="round" stroke-linejoin="round"/>
<path d="M10 18L16 18" stroke="black" stroke-width="1.5" stroke-linecap="round" stroke-linejoin="round"/>
<path d="M18 11L10 11L10 6L18 6L18 11Z" stroke="black" stroke-width="1.5" stroke-linecap="round" stroke-linejoin="round"/>
</g>
<defs>
<clipPath id="clip0_2711_30453">
<rect width="24" height="24" fill="white"/>
</clipPath>
</defs>
</svg>
