<svg width="49" height="48" viewBox="0 0 49 48" fill="none" xmlns="http://www.w3.org/2000/svg">
<g clip-path="url(#clip0_9538_3977)">
<path d="M42.75 40L42.75 4L14.75 4L14.75 40C14.75 44 10.75 44 10.75 44L38.75 44C40.75 44 42.75 42 42.75 40Z" stroke="#172057" stroke-width="2" stroke-linecap="round" stroke-linejoin="round"/>
<path d="M34.75 44C34.75 44 12.75 44 10.75 44C8.75 44 6.75 42 6.75 40C6.75 38 6.75 11 6.75 11L14.75 11" stroke="#172057" stroke-width="2" stroke-linecap="round" stroke-linejoin="round"/>
<path d="M20.75 30L36.75 30" stroke="#172057" stroke-width="2" stroke-linecap="round" stroke-linejoin="round"/>
<path d="M20.75 36L32.75 36" stroke="#172057" stroke-width="2" stroke-linecap="round" stroke-linejoin="round"/>
<path d="M36.75 22L20.75 22L20.75 12L36.75 12L36.75 22Z" stroke="#172057" stroke-width="2" stroke-linecap="round" stroke-linejoin="round"/>
</g>
<defs>
<clipPath id="clip0_9538_3977">
<rect width="48" height="48" fill="white" transform="translate(0.75)"/>
</clipPath>
</defs>
</svg>
