<svg width="24" height="24" viewBox="0 0 24 24" fill="none" xmlns="http://www.w3.org/2000/svg">
<g clip-path="url(#clip0_742_59675)">
<path d="M5 3V17H15V19C15 20.5 16 21 17 21C18 21 19 20 19 19V3H17.5L16.5 4H15.5L14.5 3H13.5L12.5 4H11.5L10.5 3H9.5L8.5 4H7.5L6.5 3H5Z" stroke="black" stroke-width="1.5" stroke-linecap="round" stroke-linejoin="round"/>
<path d="M8 8L12 8" stroke="black" stroke-width="1.5" stroke-linecap="round" stroke-linejoin="round"/>
<path d="M15 8H16" stroke="black" stroke-width="1.5" stroke-linecap="round" stroke-linejoin="round"/>
<path d="M8 11H12" stroke="black" stroke-width="1.5" stroke-linecap="round" stroke-linejoin="round"/>
<path d="M15 11H16" stroke="black" stroke-width="1.5" stroke-linecap="round" stroke-linejoin="round"/>
<path d="M17 21C17 21 6 21 5 21C4 21 3 20 3 19C3 18 3 17 3 17H15" stroke="black" stroke-width="1.5" stroke-linecap="round" stroke-linejoin="round"/>
</g>
<defs>
<clipPath id="clip0_742_59675">
<rect width="24" height="24" fill="white"/>
</clipPath>
</defs>
</svg>
