<svg width="834" height="182" viewBox="0 0 834 182" fill="none" xmlns="http://www.w3.org/2000/svg">
<path opacity="0.2" d="M181.936 178H0.648001V152.208C1.64 85.744 140.52 88.72 140.52 60.448C140.52 44.08 124.4 38.376 88.688 38.376C59.672 38.376 18.752 45.32 7.096 50.528V11.84C23.216 5.39199 63.144 0.679992 95.384 0.679992C156.392 0.679992 187.888 12.584 187.888 51.768C187.888 122.944 68.352 111.04 48.76 140.8H181.936V178ZM310.016 181.968C242.312 181.968 200.4 145.76 200.4 91.2C200.4 36.64 242.312 0.431995 310.016 0.431995C377.968 0.431995 419.88 36.64 419.88 91.2C419.88 145.76 377.968 181.968 310.016 181.968ZM310.016 144.768C350.936 144.768 375.984 125.92 375.984 91.2C375.984 56.48 350.936 37.384 310.016 37.384C269.096 37.384 244.048 56.48 244.048 91.2C244.048 125.92 269.096 144.768 310.016 144.768ZM611.577 178H430.289V152.208C431.281 85.744 570.161 88.72 570.161 60.448C570.161 44.08 554.041 38.376 518.329 38.376C489.313 38.376 448.393 45.32 436.737 50.528V11.84C452.857 5.39199 492.785 0.679992 525.025 0.679992C586.033 0.679992 617.529 12.584 617.529 51.768C617.529 122.944 497.993 111.04 478.401 140.8H611.577V178ZM809.506 178H765.858V149.48H626.482V120.96L742.546 4.39999H809.506V112.28H833.066V149.48H809.506V178ZM765.858 30.936L685.754 112.28H765.858V30.936Z" fill="url(#paint0_linear_9625_7967)"/>
<defs>
<linearGradient id="paint0_linear_9625_7967" x1="352.598" y1="30.3451" x2="351.526" y2="128.692" gradientUnits="userSpaceOnUse">
<stop stop-color="white"/>
<stop offset="1" stop-color="#172057"/>
</linearGradient>
</defs>
</svg>
