<svg viewBox="0 0 108 13" fill="none" xmlns="http://www.w3.org/2000/svg">
<mask id="mask0_9625_7950" style="mask-type:luminance" maskUnits="userSpaceOnUse" x="0" y="0" width="108" height="13">
<path d="M107.362 0.5H0V12.5H107.362V0.5Z" fill="white"/>
</mask>
<g mask="url(#mask0_9625_7950)">
<path d="M55.6444 4.29332C55.6444 4.29332 55.6569 4.29332 55.664 4.29332L57.1108 4.28797C59.1651 4.28797 60.3215 3.1922 61.4369 1.74009L62.3901 0.5L59.7282 0.508909C59.6106 0.508909 58.8248 0.524944 58.4596 0.524944C56.2199 0.524944 54.7856 2.34766 53.8181 4.35746L49.7558 0.5H44.6992L52.489 7.89955V7.90312H52.4961L52.5032 7.91381C52.1487 8.50535 51.7888 8.70312 51.4449 8.70668C51.4378 8.70668 51.4324 8.70668 51.4253 8.70668L49.9785 8.71203C47.9242 8.71203 46.7678 9.8078 45.6524 11.2599L44.6992 12.5L47.3611 12.4911C47.4787 12.4911 48.2645 12.4751 48.6297 12.4751C50.8694 12.4751 52.3037 10.6541 53.2712 8.64076L57.3335 12.5H62.3901L54.6003 5.10045V5.09688H54.5932L54.5861 5.08619C54.9406 4.49465 55.3006 4.2951 55.6444 4.29154" fill="#00BCF1"/>
<path d="M6.61024 0.5H4.82494L8.28864 6.49911H6.51047C4.62539 6.49911 2.88463 7.50401 1.94209 9.13608L0 12.5H1.77996C3.66325 12.5 5.40579 11.4951 6.34833 9.86303L6.78486 9.10579C7.25523 8.28975 7.83964 7.54677 8.51849 6.89644L10.2307 9.86303C11.1733 11.4951 12.914 12.5 14.7991 12.5H16.6076L11.1733 3.12984C10.2307 1.50134 8.49176 0.5 6.61024 0.5Z" fill="#00BCF1"/>
<path d="M101.929 3.12984C100.985 1.50312 99.2476 0.5 97.3661 0.5H95.5808L99.0445 6.49911H97.2663C95.3812 6.49911 93.6405 7.50401 92.698 9.13608L90.7559 12.4982H92.5358C94.4191 12.4982 96.1599 11.4933 97.1024 9.86125L97.5407 9.10401C98.0111 8.28797 98.5955 7.54499 99.2726 6.89465L100.987 9.86125C101.927 11.4933 103.67 12.4982 105.553 12.4982H107.363L101.929 3.12806V3.12984Z" fill="#00BCF1"/>
<path d="M20.0505 10.2657H20.022C20.7597 9.51381 21.1784 8.5 21.1784 7.43808V0.5H17.4082V12.5H29.7503V9.31069H22.6572C21.7022 9.31069 20.7793 9.64922 20.0505 10.2657Z" fill="#00BCF1"/>
<path d="M80.2847 10.2657H80.2562C80.9939 9.51381 81.4126 8.5 81.4126 7.43808V0.5H77.6406V12.5H89.9845V9.31069H82.8896C81.9364 9.31069 81.0135 9.64922 80.2847 10.2657Z" fill="#00BCF1"/>
<path d="M32.8612 0.5H31.0527V12.5H43.7387V9.31069H37.0625C35.5677 9.31069 34.5325 9.65457 34.0657 10.3067C34.0193 10.378 34.0389 10.3459 34.0621 10.3067H34.0657C34.1743 10.1249 34.2759 9.95746 34.3775 9.80245C34.4933 9.62249 34.8051 9.11114 34.9155 8.96325C35.4714 8.22739 36.0167 7.89421 37.0394 7.89421H38.2492C39.6817 7.89421 41.0037 7.12984 41.72 5.88976L42.1957 5.06481H38.8389C37.4082 5.06481 36.0844 5.82918 35.3681 7.06926L34.9832 7.73563L34.7623 8.11693L34.2688 8.97038L34.4113 8.57483C34.6857 7.82116 34.8247 7.0265 34.8247 6.22472V3.42918H43.7387V0.5H32.8612Z" fill="#00BCF1"/>
<path d="M65.1231 0.5H63.3164V12.5H76.0006V9.31069H69.3244C67.8313 9.31069 66.7944 9.65457 66.3275 10.3067C66.2812 10.378 66.3008 10.3459 66.324 10.3067H66.3275C66.4362 10.1249 66.5396 9.95746 66.6394 9.80245C66.7552 9.62249 67.067 9.11114 67.1792 8.96325C67.7333 8.22739 68.2803 7.89421 69.3013 7.89421H70.5128C71.9436 7.89421 73.2674 7.12984 73.9837 5.88976L74.4594 5.06481H71.1026C69.6701 5.06481 68.3463 5.82918 67.6318 7.06926L67.2469 7.73563L67.026 8.11693L66.5307 8.97038L66.6732 8.57483C66.9476 7.82116 67.0866 7.0265 67.0866 6.22472V3.42918H76.0006V0.5H65.1231Z" fill="#00BCF1"/>
</g>
</svg>
