<svg width="320" height="690" viewBox="0 0 320 690" fill="none" xmlns="http://www.w3.org/2000/svg">
<g clip-path="url(#clip0_10151_26493)">
<rect width="320" height="690" fill="#172057"/>
<path d="M65.2094 715.438L69.0113 704.3L68.8106 702.516L66.0458 699.394L62.6338 697.12L60.7495 692.303L53.8371 692.024L47.3152 692.292L45.2636 692.058L39.0534 690.04L33.0665 686.784L29.0638 684.878L25.6967 682.737L23.8792 680.485L21.0143 681.087L19.0742 681.109L18.6727 689.661L17.6139 699.059L11.5704 700.821L8.18161 700.453L4.63625 698.413L1.61419 697.945L-0.983244 696.495L7.30037 685.524L10.3775 680.307L8.56064 679.883L6.86554 682.871L1.64821 689.95L-3.31324 695.815L-7.18183 698.19L-16.2351 697.911L-20.4051 699.829L-21.074 704.746L-21.3639 709.105L-24.0287 715.382L-27.1726 720.176L-32 724.792L-30.7513 725.439L-21.9771 726.141L-13.1021 726.843L1.18003 727.602L16.0637 728.393L31.5054 729.218L48.2291 730.11L65.8559 730.634L66.9372 730.278L65.6218 727.668L64.2282 722.975L64.3731 719.217L65.2094 715.438Z" fill="#E5F9FF" stroke="#172057" stroke-width="1.70297"/>
<path d="M211.079 646.017L214.91 650.387L215.81 650.557L217.94 648.837L218.36 648.727L222.76 648.577L224.8 650.097L226.321 653.058L227.72 655.418L229.241 656.058L233.521 653.087L235.891 652.097L237.451 652.128L242.941 654.798L245.521 656.258L246.112 657.578L246.171 659.138L245.471 661.448L244.921 663.958L246.591 666.918L248.532 668.929L252.682 665.608L254.212 664.688L255.882 664.658L258.122 663.428L259.742 661.568L261.292 660.928L264.263 661.368L269.622 660.928L275.873 663.838L276.413 664.738L279.533 668.139L280.623 669.829L281.653 670.369L283.313 672.029L285.544 673.069L287.084 672.749L287.823 673.299L288.514 674.599L288.564 676.819L288.344 683.139L287.253 684.96L286.103 686.44L285.813 687.59L285.923 688.98L287.693 691.7L289.974 695.91L290.504 698.341V700.171L287.394 705.531L286.363 706.781L285.644 709.411L285.264 712.081L285.483 713.191L290.684 717.432L294.534 719.722L295.394 720.842L295.474 721.542L293.434 726.072L293.234 727.292L296.314 729.163L298.024 732.113L299.525 736.913L302.454 741.503L308.765 745.563L313.355 748.204L314.315 749.404L314.645 750.824L314.295 753.954L313.105 757.764L312.295 759.874L314.165 760.755L318.975 760.514L324.826 761.255L331.836 765.435L331.856 767.305L331.136 769.015L331.616 770.805L332.376 772.325L338.446 776.975L339.026 778.326L339.126 780.586L338.966 782.236L337.287 782.576L335.416 783.346L332.366 785.326L331.166 788.116L326.226 791.957L323.185 793.696L320.756 793.767L314.975 792.987L312.945 791.096L312.105 789.356L309.885 788.566L306.935 788.496L302.865 788.796L302.034 789.326L301.364 791.456L299.634 795.107L298.394 797.157L299.414 798.417L301.035 801.037L303.554 804.357L306.155 807.308L306.985 809.108L306.944 810.398L305.714 811.908L305.895 814.948L308.415 818.938L307.565 819.578L307.305 824.469L307.334 829.679L308.015 830.939L309.365 831.979L310.515 833.879L312.425 838.199L312.555 839.33L307.235 839.009L300.844 839.139L297.254 841.65L295.854 841.069L293.354 840.429L290.584 841.83L286.804 846.06L284.264 848.69L281.793 852.37L281.013 854.36L279.453 858.021L278.023 862.201L278.803 865.121L279.973 867.831L280.233 870.752L280.813 873.032L279.253 874.692L278.343 877.082L275.683 876.662L272.423 874.372L271.732 871.052L269.223 868.741L267.573 867.531L264.852 867.351L260.502 868.431L254.812 869.261L250.522 869.481L248.181 870.662L244.721 871.822L243.381 870.441L241.461 866.671L239.891 862.911L238.801 861.261L237.861 860.801L236.701 860.891L235.371 862.081L234.371 863.311L232.961 863.741L230.781 864.731L229.191 866.071L227.45 869.531L226.3 869.292L225.11 868.491L223.74 864.621L221.86 863.731L218.85 863.681L215.12 862.861L212.089 861.681L210.989 861.961L209.179 863.611L207.239 863.851L202.959 862.381L202.129 863.061L200.999 865.231L199.669 867.321L198.509 867.531L197.859 866.991L198.219 863.281L195.738 861.971L191.558 861.761L188.618 862.301L187.188 862.151L186.448 861.431L182.848 855.18L180.948 854.78L177.537 855.09L172.507 854.331L166.707 852.921L163.517 852.4L161.867 850.99L158.297 850.51L148.696 847.86L144.786 847.39L139.015 847.35L130.235 846.76L124.605 847.09L121.995 847.97L118.984 848.52L113.894 849L111.824 848.95L108.564 849.24L104.823 849.95L103.753 851.26L102.524 854.15L98.2234 859.131L94.0532 862.431L93.2933 862.711L90.853 860.961L88.8228 860.371L86.4326 860.181L84.7424 860.741L83.6828 861.571L83.8226 865.401L83.5827 865.731L81.7424 861.191L81.8925 857.071L82.9125 854.71L84.1625 852.58L83.6529 849.39L84.8724 845.16L84.9127 842.09L84.3725 840.769L83.3825 839.24L80.6626 837.539L79.4626 836.209L75.782 834.429L72.1319 832.219L71.5117 830.859L71.682 829.929L72.3217 828.509L75.1124 824.359L78.1326 820.318L80.0626 818.698L90.3128 813.498L91.8931 811.678L92.2929 808.598L92.313 806.357L92.1232 802.357L91.4933 796.657L90.7132 792.716L88.7526 785.296L83.4124 769.865L80.2024 753.734L82.2923 754.684L87.1925 755.034L91.0831 753.924L93.1029 753.764L94.9035 754.124L97.5831 753.484L100.033 753.224L101.303 754.674L103.584 755.954L108.094 754.114L112.084 751.824L116.224 752.074L116.814 750.944L117.844 745.194L119.075 743.933L124.025 744.513L125.855 743.474L127.775 740.633L130.695 738.853L133.136 738.863L135.675 736.863L136.925 738.203L137.535 740.593L136.695 742.493L137.055 743.243L138.816 744.183L141.826 744.153L143.756 743.373L144.206 742.283V740.303L143.726 738.453L142.446 736.863L140.046 736.033L138.376 736.013L138.096 734.993L138.666 732.823L140.146 728.802L141.966 725.172L143.076 723.802L143.266 722.532L143.056 720.332L143.016 716.361L144.646 710.761L146.846 706.581L149.796 705.211L153.406 704.481L155.717 702.481L156.856 700.181L157.287 698.23L157.837 696.55L158.987 695.81L167.667 696.27L168.997 692.64L169.747 691.63L171.407 690.55L172.568 689.26L172.137 688.26L169.917 687.62L164.697 687.05L163.647 685.84L163.977 684.39L165.367 680.629L166.697 675.769L167.387 671.999L167.457 669.769L168.207 669.169L172.457 668.459L173.887 667.698L177.548 662.538L180.338 661.658L187.548 662.988L190.849 662.888L191.748 663.008L195.049 663.238L195.409 662.718L196.889 657.608L198.349 656.118L204.019 649.367L207.83 646.497L210.239 645.867L211.079 646.017Z" fill="#E5F9FF" stroke="#172057" stroke-width="1.70297"/>
<path d="M207.232 470.131L208.722 471.841L210.602 474.601L211.112 476.181L210.472 477.111L208.592 477.901L208.162 478.751L207.332 480.181L205.132 480.441L204.001 481.502L202.652 486.152L200.072 493.832L196.261 499.653L193.211 502.833L191.851 505.273L191.001 508.193L190.801 511.123L193.721 527.124L193.691 530.005L193.001 532.955L192.501 535.945L192.911 538.535L194.841 542.956L196.891 549.536L197.721 553.726L199.082 555.256L200.392 556.386L200.661 557.096L200.622 557.826L199.942 558.657L194.031 560.847L193.261 562.697L192.621 564.767L190.041 567.817L189.251 570.657L188.761 573.908L188.701 575.068L187.991 575.208L184.07 574.537L179.75 572.427L177.86 570.837L176 570.857L173.75 571.897L165.689 574.908L163.709 574.208L159.109 571.247L156.779 568.017L151.589 561.577L151.169 560.037L150.489 558.806L144.948 557.206L142.898 554.816L141.198 554.486L138.698 553.286L132.208 548.176L130.598 547.696L130.208 548.556L130.318 549.766L129.907 550.466L129.078 550.446L127.578 548.566L125.778 546.906L120.167 550.026L118.137 550.856L116.357 551.046L107.467 555.126L104.756 557.327L103.636 557.096L103.896 555.026L107.597 544.655L108.256 536.385L109.607 535.245L110.006 534.095L109.427 531.445L105.587 529.745L104.036 529.995L102.636 532.845L101.186 534.895L97.7957 536.145L94.8756 533.985L88.0454 531.095L86.3253 527.235L85.9151 523.344L82.3053 519.584L80.805 515.134L81.405 512.023L84.6852 509.973L85.6154 508.193L81.485 508.473L80.6451 508.043L80.465 506.443L78.6351 500.963L80.255 498.803L80.9649 496.703L79.6349 494.912L79.9846 492.862L81.0247 490.792L80.3948 485.982L84.4954 483.432L88.4757 481.632L96.9259 480.712L96.0957 476.291L99.506 476.091L105.256 470.761L110.957 471.701L119.207 468.041L135.098 468.091L137.268 465.971L136.888 463.84L136.938 461.57L139.928 462.2L144.928 461.8L163.649 466.271H168.26L174.63 470.801L178.07 471.971H188.201L203.832 473.971L206.902 470.911L207.232 470.131ZM64.4143 506.053L62.1138 508.723L60.7441 507.663L60.0238 506.383L57.0537 512.423L53.7137 513.454L51.7635 512.264L51.9436 510.013L50.0434 504.083L47.1331 502.343L43.0429 502.183L40.0826 499.733L51.4931 498.063L52.6736 495.222L54.9937 492.242L56.7339 491.922L58.2141 492.612L58.4936 494.922L58.8635 495.843L64.0341 497.143L66.0544 501.023L66.8144 505.673L64.4143 506.053ZM76.1948 520.964L73.8643 521.524L68.3342 517.704L69.6142 515.114L71.1945 514.094L75.8944 515.684L76.5549 519.614L76.1948 520.964ZM55.8134 517.154L57.8039 518.454L59.6436 518.044L61.5138 517.134L65.5539 517.984L74.7744 524.544L75.6247 526.294L70.1141 527.095L68.864 529.094L67.5444 530.495L65.9842 530.945L63.3242 533.755L59.7339 536.445L58.9837 538.055L52.4734 537.755L48.9234 538.775L46.0534 541.775L44.8729 547.556L42.7732 552.056L40.6325 553.676L38.4028 553.926L37.8724 552.246L38.083 550.566L42.7732 544.206L43.7528 542.135L41.4126 541.215L39.4527 538.995L35.1726 536.395L34.4023 534.305L35.4223 534.145L36.3623 533.545L37.5025 531.785L38.0329 529.765L34.6123 523.844L36.3525 522.924L38.5328 523.134L40.7625 524.854L43.2132 522.834L44.2527 522.534L45.963 523.254L47.6935 519.334L51.8032 518.044L53.8437 516.834L55.8134 517.154Z" fill="#00BCF1" stroke="#172057" stroke-width="1.70297"/>
<path d="M234.012 -152.375L232.132 -151.404L226.331 -147.604L222.791 -145.044L218.531 -143.164L219.631 -140.674L226.712 -140.154L227.802 -139.444L228.592 -138.174L228.722 -136.134L228.012 -132.843L220.351 -114.832L220.111 -111.062L222.611 -100.621L226.121 -88.3805L236.732 -82.9702L244.612 -78.7599L249.673 -68.8192L258.023 -55.8084L262.444 -50.968L262.693 -49.468L261.383 -40.5775L256.033 -31.7169L251.033 -24.2764L245.853 -15.3559L241.802 -7.78532L237.412 1.24524L236.902 4.16551L236.822 6.91562L237.582 9.94574L243.202 20.8765L245.393 26.4269L248.003 32.4072L250.253 38.9077L251.553 44.718L253.803 50.3484L255.203 53.2186L257.523 57.2388L260.323 63.1993L261.253 67.9095L265.484 84.1505L265.914 88.2609L265.704 91.3011L263.844 92.041L259.733 92.5211L255.273 94.5113L255.053 95.1813L257.963 98.9615L255.393 105.412L255.023 114.603L252.283 119.403L252.023 120.513L252.143 121.443L252.633 122.173L257.703 123.453L258.143 124.753L258.163 127.443L257.713 129.924L255.163 131.764L252.433 134.474L251.823 136.974L251.913 139.194L252.843 142.944L254.653 147.305L256.943 150.035L265.074 152.625L266.124 154.755L266.564 157.675L266.393 160.525L262.613 166.206L262.643 168.386L264.194 173.646L266.053 178.657L273.984 184.077L276.714 187.037L277.434 189.387L277.834 193.178L277.784 197.278L277.164 200.908L274.674 205.578L268.924 214.759L263.133 218.309L262.784 219.079L264.574 221.999L274.764 233.66L281.414 239.091L290.375 246.391L296.155 252.141L298.025 256.262L300.525 260.842L303.336 264.572L305.366 267.802L306.136 269.882L306.066 272.113L303.356 278.823L301.816 283.993L299.106 291.544L296.325 296.784L289.285 306.325L278.894 318.126L276.484 321.676L271.624 327.846L263.293 340.177L261.143 342.887L254.323 352.648L251.213 355.748L248.762 358.638L242.012 367.789L234.752 374.699L227.632 381.1L225.492 384.33L222.831 386.8L219.661 389.14L218.331 390.45L211.161 399.141L201.21 411.121L200.2 411.311L197.61 413.242L193.56 413.712L191.8 415.182L185.61 410.981L184.579 410.711L180.939 411.752L177.449 414.802L170.999 415.732L167.799 416.722L165.758 418.132L165.338 414.802L166.218 410.572L167.638 407.741L167.768 405.901L166.729 406.091L164.658 410.241L163.558 415.082L161.348 417.512L156.488 418.502L151.758 414.622L149.507 414.652L150.917 417.432L151.868 420.482L151.747 422.182L149.228 421.882L146.417 423.702L143.957 426.362L142.757 426.372L141.097 422.652L138.057 424.392L135.457 426.722L130.186 427.443L127.046 430.503L121.486 432.573L118.436 432.523L111.466 435.003L109.145 438.823L107.115 440.223L104.225 439.043L95.3142 440.903L86.7939 443.344L83.1737 443.203L79.5535 442.193L75.7136 445.574L71.6331 450.094L67.1432 451.704L65.533 451.124L66.8227 448.754L69.7928 446.304L71.8334 442.974L72.1135 440.193L70.7133 439.103L68.793 438.763L66.3826 435.883L64.0729 429.623L62.8229 429.273L62.1929 430.923L61.4825 435.713L60.7628 437.093L59.5427 438.193L58.0722 439.293L56.6323 439.833L51.4819 439.763L50.8019 437.343V436.333L51.7224 433.143L50.9222 432.583L51.6821 430.083L52.8919 430.223L54.3324 429.843L55.0521 428.563L55.002 427.022L53.0024 426.622L52.8821 425.572L54.662 421.172L54.9123 419.952L54.2225 419.702L53.1122 420.182L45.7419 418.802L36.6514 413.162L34.4113 412.872L33.041 407.821L30.8509 408.461L27.6507 411.421L25.2506 409.171L22.6705 407.691L21.9607 405.381L22.0003 401.961L21.7806 397.911L21.0805 393.16L20.5702 386.39L21.0506 381.08L23.1106 377.139L23.9005 374.619L24.8606 368.169L25.081 360.598L24.5304 358.018L24.6708 356.298H26.3109L25.9508 354.818L25.2305 354.008L24.4309 352.328L25.1109 351.438L27.0708 351.378L27.2307 350.808L27.4511 350.007L25.9306 345.567L25.7505 343.447L23.6508 336.997L21.2404 330.856L17.63 326.406L18.9106 319.056L20.3706 312.385L20.0807 309.165L19.5203 305.235L15.0902 300.914L14.4401 294.814L13.3604 288.234L13.7699 284.193L14.4902 281.083L15.9502 277.983L23.3005 268.182L23.7503 263.042L28.7311 262.662L26.4207 258.062L25.8806 255.472L25.7609 252.441L32.9213 250.361L35.6015 252.071L41.9013 249.961L47.5016 245.831L47.4021 243.631L46.5421 241.661L45.3518 237.86L46.1917 236.8L48.2322 237.58L47.2916 235.69L47.4619 233.69L49.6923 234.52L53.3222 228.93L53.4522 224.65L59.7325 222.409L66.9832 213.629L70.3233 210.889L73.5534 208.899L80.4337 200.068L83.3739 199.658L84.884 193.678L90.7345 185.687L92.5144 184.667L95.2446 177.427L102.435 169.026L106.995 158.255L109.505 154.415L110.285 150.315L113.086 149.965L115.606 146.945L121.066 144.844L126.466 145.425L128.716 146.865L130.786 146.415L130.576 142.714L129.097 140.424L130.306 138.214L133.156 136.544L132.866 132.844L132.247 130.614L129.877 127.643L131.057 120.963L131.337 113.613L132.457 105.082L129.487 100.552L118.186 92.8112L116.086 93.0811L113.576 92.1011L110.955 86.2107L112.125 81.1104L112.265 79.2303L111.245 79.2903L109.585 81.7803L105.985 84.6206L101.305 82.4405L99.0046 82.9205L96.0143 70.2496L94.4847 65.3793L92.034 59.299L87.6643 56.3287L86.8043 54.6387L86.2238 52.0485L86.0339 48.4483L85.4742 43.108L85.7037 38.7176L86.2439 36.0975L88.1343 34.3374L90.8541 29.347L91.4242 25.7169L91.6544 20.1365L92.9044 15.2461L94.2943 12.7659L93.9445 10.7858L92.9844 7.96565L90.9445 3.94545L87.8443 -0.964813L85.5542 -5.6752L84.544 -10.0854L84.0239 -14.0458L84.1039 -17.6459L84.9639 -20.1061L87.884 -23.2062L88.2741 -24.5264L87.1143 -31.3968L85.0738 -32.6469L81.6038 -33.3169L79.6634 -33.377L79.2935 -34.137L79.1934 -35.5171L79.5938 -38.3473L80.6839 -41.5975L81.594 -43.6777L81.7136 -45.4377L80.5539 -51.4781L80.2036 -58.9086L80.604 -64.749L84.284 -69.0693L84.4537 -70.6493L79.8337 -75.3597L76.5034 -80.7099L75.4633 -83.8401L71.6533 -84.3102L69.2728 -93.4508L65.8327 -97.911L62.4328 -101.781L60.4228 -103.581L48.6223 -109.152L43.9418 -110.212L38.3916 -113.472L34.2611 -117.572L30.7209 -120.213L27.691 -123.483L23.4604 -126.543L22.2506 -129.163L17.68 -134.023L15.54 -137.234L8.10982 -143.304L7.84003 -145.704L7.78998 -148.024L7.45 -148.994L-0.210938 -153.455L1.29915 -156.015L7.28947 -156.175L12.2403 -153.845L13.3298 -154.845L13.9799 -156.915L11.8698 -165.235L12.2501 -167.416L14.4304 -170.036L17.89 -172.126L23.3407 -172.426L27.061 -172.116L27.8509 -171.886L33.4011 -162.705L38.1713 -153.795L40.7013 -150.014L46.8918 -139.334L49.2119 -133.183L50.0017 -128.793L52.522 -128.813L61.2328 -126.893L68.5531 -125.273L70.593 -122.823L75.6336 -123.313L79.5236 -125.523L86.3837 -128.313L88.224 -131.753L90.5142 -135.443L94.5342 -134.863L98.9344 -131.953L103.925 -128.133L108.375 -126.373L114.345 -123.613L117.126 -120.052L121.026 -119.032L125.106 -122.593L127.516 -132.303L129.656 -136.654L132.686 -139.844L136.157 -141.254L138.807 -141.764L140.817 -144.254L143.667 -149.794L144.227 -156.535L143.677 -168.776L144.197 -172.836L146.527 -179.496L149.657 -197.257L151.058 -202.418L152.767 -205.558L155.118 -207.428L159.388 -212.868L165.488 -223.709L167.138 -224.629L171.518 -225.179L176.959 -224.779L181.859 -222.869L182.389 -223.019L184.589 -224.019L188.58 -227.399L195.42 -234.14L199.8 -236L203.78 -235.74L208.191 -228.359L214.421 -220.169L218.421 -216.209L229.331 -208.798L238.912 -203.948L244.293 -188.007L241.633 -181.696L240.312 -179.526L235.622 -173.276L230.612 -164.495L230.232 -159.935L231.892 -155.345L234.012 -152.375ZM118.446 137.684L114.256 139.884L110.885 138.514L110.825 134.244L112.915 132.174L116.695 131.344L121.876 133.414L122.636 134.514L119.666 135.344L118.446 137.684ZM16.5502 250.071L16.8505 251.231L18.4906 250.911L20.7106 248.791L22.2805 249.781L22.1004 252.801L21.0402 252.681L20.7503 252.181L19.3806 253.901L19.1401 254.941L17.5604 255.602L14.6403 252.651L12.8 247.791L17.08 247.781L16.6705 248.941L16.5502 250.071ZM23.0905 411.461L22.7005 414.112L20.7906 413.822L18.8501 414.302L17.29 411.671L16.4605 407.231L16.7504 406.271L17.9706 405.261L18.9002 407.701L23.0905 411.461ZM38.3416 422.412L36.2913 422.662L33.4011 419.852L33.041 418.752L34.1714 418.112L33.4212 415.852L33.641 414.852L35.8713 416.642L37.0915 418.722L35.9012 419.202L37.9216 421.352L38.3416 422.412ZM43.4218 420.492L46.9718 421.802L48.4617 421.332L50.1623 424.302L47.2819 426.182L47.0816 428.523L48.2218 429.973L48.6223 432.073H45.7516L44.3819 430.303L43.7819 428.052L42.4415 426.462L40.6616 425.252L41.5314 423.632L42.0313 421.312L43.4218 420.492ZM33.821 433.483L31.0108 435.413L29.9408 434.953L30.2112 431.693L31.8812 430.203L34.6915 430.033L33.821 433.483ZM28.0706 435.323L25.6108 435.883L24.0805 434.253L24.6604 433.043L26.3707 431.693L28.2311 431.883L28.6309 433.463L28.0706 435.323Z" fill="#00BCF1" stroke="#172057" stroke-width="1.70297"/>
<path d="M167.41 669.702L167.34 671.932L166.66 675.702L165.33 680.563L163.94 684.323L163.6 685.773L164.65 686.983L169.87 687.553L172.09 688.193L172.521 689.193L171.36 690.483L169.69 691.553L168.951 692.574L167.62 696.204L158.94 695.744L157.79 696.484L157.24 698.164L156.809 700.104L155.67 702.404L153.369 704.404L149.76 705.144L146.809 706.505L144.609 710.685L142.969 716.285L143.009 720.245L143.219 722.456L143.029 723.715L141.919 725.086L140.099 728.716L138.619 732.726L138.049 734.896L138.329 735.916L139.999 735.946L142.409 736.766L143.689 738.366L144.159 740.217V742.197L143.709 743.287L141.779 744.077L138.759 744.107L136.999 743.167L136.639 742.417L137.479 740.507L136.869 738.116L135.619 736.786L133.078 738.776H130.638L127.718 740.557L125.808 743.397L123.978 744.437L119.017 743.857L117.788 745.107L116.757 750.867L116.168 751.987L112.027 751.747L108.037 754.037L103.527 755.888L101.247 754.608L99.9765 753.157L97.5167 753.417L94.8365 754.057L93.0365 753.708L91.0161 753.867L87.1157 754.977L82.2156 754.617L80.1256 753.667L79.9254 752.757L80.0756 750.517L80.0255 747.037L79.2454 743.957L76.8955 741.237L74.435 739.326L71.2952 737.356L68.9751 736.496L67.7049 736.276L67.415 735.136L66.9547 734.146L65.8646 733.286L63.5445 732.126L61.5748 731.876L59.9646 733.746L58.7841 731.406L57.5341 727.196L57.6641 723.826L58.3746 720.455L61.7848 710.465L61.6047 708.865L59.1241 706.064L56.0643 704.024L54.3741 699.704L48.1738 699.454L42.3233 699.694L40.4836 699.484L34.9132 697.674L29.5431 694.754L25.9528 693.044L22.9326 691.123L21.3023 689.103L18.7319 689.643L16.9923 689.663L17.0119 689.313L16.0218 685.743L17.0619 680.263L15.1819 672.202L12.1117 662.472L11.892 652.001L11.6716 649.641L19.2123 643.701L28.7227 637.33L30.8828 636.75L39.6431 632.97L40.8132 632.67L48.714 633.37L54.9143 634.27L60.1447 634.16L63.0147 633.19L65.6149 634L67.7049 636.85L69.8651 636.51L71.9953 634.67L83.6958 636.35L86.3357 636.31L89.3058 636.58L94.7864 638.29L97.9464 639.86L104.887 638.91L107.857 638.86L109.407 638.24L114.197 633.94L116.268 633.2L118.168 632.43L119.907 633.08L121.048 636.75L124.588 643.06L128.438 644.171L139.069 646.591L141.239 647.861L147.219 653.401L150.809 656.111L153.09 658.271L156.57 662.501L158.58 665.572L161.94 667.892L165.92 669.452L167.41 669.702ZM9.2319 688.903L7.60156 688.523L10.8116 682.843L12.0421 679.143L12.8918 673.882L13.6419 672.222L13.6621 674.612L13.3319 678.593L11.3017 685.363L9.2319 688.903Z" fill="#E5F9FF" stroke="#172057" stroke-width="1.70297"/>
<path d="M188.74 575.017L192.05 575.227L193.21 576.057L193.99 580.137L197.751 583.347L201.23 585.997L202.12 587.228L202.391 589.588L202.17 592.348L201.73 593.768L200.27 595.408L199.001 599.558L198.821 603.498L196.82 610.299L197.27 610.419L201.49 609.199L202.681 609.899L203.611 611.389L203.911 615.639L205.291 617.549L206.701 620.53L207.141 622.84L209.831 625.59L210.041 627.38L211.681 633.651L212.311 637.251L212.601 640.041L211.801 643.571L211.081 645.951L210.241 645.801L207.831 646.431L204.021 649.302L198.351 656.052L196.891 657.542L195.41 662.652L195.05 663.172L191.75 662.942L190.85 662.822L187.55 662.922L180.339 661.592L177.549 662.472L173.889 667.633L172.459 668.393L168.209 669.103L167.459 669.703L166.039 669.463L162.058 667.903L158.698 665.583L156.678 662.512L153.198 658.282L150.918 656.122L147.327 653.412L141.347 647.861L139.177 646.591L128.537 644.171L124.696 643.061L121.157 636.751L120.016 633.07L118.276 632.42L116.366 633.19L114.306 633.93L109.516 638.231L107.966 638.841L104.995 638.891L98.0547 639.841L94.8948 638.271L89.4148 636.561L86.4342 636.291L83.7943 636.331L72.0939 634.651L69.9636 636.491L67.8035 636.821L65.7135 633.97L63.1029 633.16L60.2329 634.131L55.0025 634.241L48.8022 633.34L40.9118 632.64L39.7417 632.94L30.9717 636.731L28.8115 637.301L19.3005 643.671L11.7604 649.611L10.8906 640.111L11.3502 620.97L12.4703 611.419L17.6909 605.829L20.3107 601.468L21.8312 595.628L22.2908 590.208L23.351 585.718L30.9216 572.777L36.9119 571.376L45.0319 567.766L54.1028 564.756L55.8528 568.586L56.7427 571.506L67.6631 582.097L70.4434 585.647L74.6636 597.748L84.7844 603.869L92.7346 601.938L96.1949 598.968L102.565 593.488L105.406 589.468L105.985 585.587L104.856 568.886L103.136 561.606L103.715 557.065L104.836 557.296L107.546 555.095L116.436 551.015L118.216 550.825L120.246 549.995L125.847 546.875L127.657 548.535L129.157 550.415L129.977 550.435L130.387 549.735L130.277 548.525L130.667 547.665L132.277 548.145L138.767 553.255L141.257 554.455L142.967 554.785L145.007 557.176L150.548 558.766L151.228 559.996L151.648 561.536L156.838 567.976L159.168 571.206L163.769 574.167L165.749 574.867L173.809 571.846L176.049 570.807L177.91 570.786L179.799 572.377L184.12 574.487L188.03 575.157L188.74 575.017Z" fill="#00BCF1" stroke="#172057" stroke-width="1.70297"/>
<path d="M822.068 -78.314L828.312 -84.4187V806.147H304.142L303.11 804.972L300.59 801.642L298.97 799.022L297.94 797.772L299.18 795.712L300.91 792.072L301.58 789.931L302.41 789.412L306.48 789.112L309.43 789.181L311.651 789.961L312.49 791.701L314.521 793.592L320.291 794.372L322.721 794.291L325.771 792.561L330.701 788.721L331.912 785.931L334.962 783.961L336.832 783.191L338.512 782.841L338.682 781.191L338.572 778.931L337.992 777.581L331.931 772.93L331.162 771.41L330.681 769.62L331.401 767.92L331.381 766.05L324.371 761.87L318.531 761.13L313.72 761.359L311.85 760.48L312.66 758.37L313.841 754.559L314.19 751.429L313.86 749.999L312.91 748.799L308.32 746.159L302.01 742.108L299.08 737.518L297.579 732.718L295.879 729.768L292.789 727.888L292.989 726.667L295.04 722.127L294.96 721.437L294.1 720.317L290.249 718.027L285.049 713.787L284.829 712.686L285.209 710.016L285.929 707.386L286.969 706.136L290.079 700.776V698.946L289.549 696.506L287.269 692.295L285.499 689.585L285.389 688.195L285.679 687.045L286.829 685.565L287.919 683.745L288.139 677.424L288.089 675.204L287.399 673.904L286.659 673.354L285.109 673.674L282.889 672.634L281.219 670.974L280.189 670.434L279.099 668.744L275.978 665.333L275.438 664.443L269.188 661.523L263.828 661.963L260.868 661.523L259.317 662.163L257.697 664.023L255.457 665.254L253.787 665.283L252.257 666.204L248.107 669.514L246.167 667.513L244.497 664.553L245.047 662.043L245.747 659.733L245.697 658.173L245.106 656.853L242.526 655.393L237.037 652.723L235.476 652.693L233.106 653.683L228.826 656.663L227.316 656.023L225.906 653.663L224.395 650.702L222.356 649.183L217.955 649.333L217.535 649.452L215.405 651.173L214.505 651.003L210.675 646.632L211.385 644.252L212.195 640.722L211.905 637.942L211.275 634.341L209.635 628.071L209.425 626.291L206.735 623.541L206.295 621.231L204.885 618.25L203.504 616.341L203.205 612.09L202.284 610.59L201.084 609.89L196.864 611.12L196.414 610.99L198.424 604.199L198.604 600.259L199.875 596.109L201.335 594.469L201.775 593.039L201.994 590.289L201.725 587.929L200.834 586.698L197.354 584.039L193.594 580.828L192.814 576.748L191.654 575.918L188.344 575.708L188.404 574.548L188.894 571.297L189.684 568.457L192.264 565.407L192.904 563.337L193.674 561.487L199.584 559.297L200.265 558.467L200.304 557.737L200.034 557.027L198.724 555.897L197.364 554.366L196.534 550.176L194.484 543.596L192.554 539.176L192.144 536.585L192.644 533.595L193.334 530.645L193.364 527.765L190.444 511.764L190.644 508.833L191.494 505.913L192.854 503.473L195.904 500.293L199.714 494.473L202.295 486.792L203.644 482.142L204.775 481.082L206.975 480.822L207.805 479.392L208.235 478.542L210.115 477.752L210.755 476.821L210.245 475.242L208.365 472.481L206.874 470.771L208.325 466.921L207.825 461.761L206.915 457.45L208.155 454.29L210.205 454.01L212.485 457.45L215.915 459.24L218.416 456.93L219.265 452.47L221.065 450.5L223.476 452.25L227.506 452.88L230.856 452.59L233.116 451.65L234.076 450.19L234.966 447.58L236.816 444.249L238.726 442.079L253.387 444.55L266.098 449.13L267.058 447.42L267.498 444.469L264.338 441.929L262.007 440.599L259.078 435.289L254.837 431.099L250.577 430.729L244.997 432.189L236.536 431.319L229.336 423.398L224.576 420.918L221.185 414.808L220.325 411.547L223.996 414.307L224.496 411.387L224.786 407.507L222.746 405.137L220.916 403.717L211.555 409.787L200.844 411.777L210.795 399.797L217.965 391.106L219.295 389.796L222.465 387.456L225.126 384.986L227.266 381.755L234.386 375.355L241.647 368.444L248.397 359.294L250.847 356.404L253.957 353.303L260.777 343.543L262.928 340.833L271.258 328.502L276.118 322.331L278.529 318.781L288.919 306.981L295.959 297.44L298.74 292.199L301.45 284.649L302.99 279.479L305.7 272.768L305.77 270.538L305 268.458L302.97 265.228L300.159 261.498L297.659 256.917L295.79 252.797L290.009 247.047L281.049 239.746L274.398 234.316L264.208 222.655L262.418 219.735L262.768 218.965L268.558 215.415L274.308 206.234L276.798 201.564L277.418 197.934L277.468 193.833L277.069 190.043L276.348 187.693L273.618 184.733L265.688 179.313L263.828 174.302L262.278 169.042L262.248 166.862L266.028 161.181L266.198 158.331L265.758 155.411L264.708 153.281L256.577 150.691L254.287 147.961L252.477 143.6L251.547 139.85L251.457 137.63L252.067 135.13L254.798 132.42L257.347 130.579L257.798 128.099L257.777 125.409L257.337 124.109L252.267 122.829L251.777 122.099L251.657 121.169L251.917 120.059L254.657 115.258L255.027 106.068L257.597 99.6173L254.687 95.8371L254.907 95.1671L259.367 93.1769L263.478 92.697L265.338 91.9568L265.548 88.9166L265.118 84.8064L260.887 68.5653L259.958 63.8551L257.157 57.8946L254.837 53.8744L253.437 51.0043L251.187 45.3739L249.887 39.5636L247.637 33.063L245.027 27.0827L242.836 21.5323L237.216 10.6018L236.456 7.57144L236.536 4.82138L237.046 1.90106L241.437 -7.12949L245.487 -14.7L250.667 -23.6205L255.667 -31.0609L261.017 -39.9215L262.328 -48.8122L262.078 -50.3122L257.657 -55.1526L249.307 -68.1633L244.246 -78.104L236.366 -82.3142L225.755 -87.7245L222.246 -99.9654L219.746 -110.406L219.985 -114.176L227.646 -132.187L228.356 -135.478L228.226 -137.518L227.436 -138.788L226.346 -139.498L219.265 -140.018L218.165 -142.508L222.426 -144.388L225.965 -146.948L231.766 -150.749L233.646 -151.719L237.936 -153.909L239.407 -155.599L240.496 -157.599L244.517 -171.3L245.507 -173.48L257.978 -178.43L262.508 -180.971L265.128 -184.191L266.378 -186.691L267.278 -189.681L267.918 -192.981L268.198 -196.022L267.158 -199.982L267.738 -200.462L269.068 -200.292L273.338 -196.342L279.948 -192.151L284.819 -191.831L286.829 -192.631L287.839 -194.461L288.559 -198.042L288.609 -201.742L287.079 -212.393L292.129 -211.243L303.45 -204.792L306.09 -205.392L309.43 -207.332L312.87 -215.023L315.42 -216.343L318.751 -214.543L319.661 -216.613L317.941 -223.023L318.371 -226.273L329.791 -219.333L334.672 -214.273L345.232 -209.842L347.092 -207.432L347.232 -203.262L346.722 -199.692L344.492 -197.722L339.982 -198.042L323.771 -203.552L321.381 -200.202L323.341 -197.312L328.091 -193.912L329.412 -187.891L336.682 -188.721L343.612 -186.431L346.872 -187.171L347.472 -185.211L345.242 -180.241L346.282 -178.97L354.053 -183.781L357.673 -185.101L359.623 -183.811L359.883 -179.831L358.593 -174.83L358.453 -171.04L356.063 -161.909L352.372 -159.159L350.823 -155.379L356.223 -157.689L359.093 -160.219L364.463 -172.77L366.073 -174.44L381.364 -174.67L384.834 -173.86L399.185 -167.93L403.275 -167.39L407.936 -168.15L409.546 -170.9L411.136 -171.68L427.077 -165.059L448.418 -150.269L479.639 -126.077L497.24 -104.836L499.28 -100.306L505.641 -97.7452L507.011 -99.4753L510.551 -97.9753L531.252 -78.854L538.393 -77.864L537.453 -81.8943L536.232 -85.6544L538.003 -84.8045L540.423 -82.0642L544.363 -74.6237L549.153 -69.1234L554.034 -60.9328L558.104 -57.8028L561.774 -56.6427L564.854 -54.3424L570.474 -52.1623L573.125 -32.3712L575.174 -28.1207V-19.4603L578.765 -15.9399L581.485 -15.3L581.355 -8.92957L579.145 5.94141L576.715 12.2317L557.983 39.0635L546.243 49.3241L523.392 60.9948L505.561 65.3552L498.37 65.6751L484.42 63.525L476.769 61.1749L467.408 54.5445L458.678 51.2342L452.668 49.7742L441.547 49.1641L417.406 42.6336L413.216 40.3334L398.075 27.4927L392.055 31.133L388.474 31.7831L386.044 27.3527L387.025 26.1827L387.604 24.6726L379.034 20.9824L371.954 20.7324L368.194 17.6021L363.583 15.2121L361.553 16.6521L360.403 16.6421L351.092 10.9916L346.932 6.40138L342.592 -1.71915L343.652 -4.55933L344.912 -6.40944L330.021 -11.1597L315.86 -11.7898L318.321 -9.50955L324.451 -8.30949L328.351 -5.04919L332.852 -0.449127L331.812 5.82129L338.062 12.0218L342.852 17.9022L343.002 19.7123L344.862 20.9423L351.932 22.6523L353.163 28.0329L352.002 30.1429L352.972 33.1131L358.243 36.4433L361.393 37.3533L365.273 39.3735L363.513 43.4438L360.253 46.0839L356.983 47.294L358.533 48.264L362.763 47.8841L378.094 54.5544L386.154 61.2749L394.345 73.4657L397.005 79.4661L397.195 82.7662L396.745 86.0565L395.555 89.5967L395.015 93.1569L392.215 103.608L390.205 107.208L386.334 111.318L389.965 119.239L393.755 126.579L397.475 138.69L398.135 143.54L398.295 150.961L401.645 153.871L400.335 155.001L399.015 157.101L399.335 166.692L403.985 174.492L410.966 179.532L415.126 180.552L421.166 178.512L425.517 181.293L435.177 190.733L439.548 200.664L441.318 202.684L451.108 206.374L458.438 208.644L469.599 214.555L471.549 214.765L476.97 209.674L486.3 206.124L489.19 201.224L488.95 197.044L486.56 189.583L485.899 182.283L482.81 179.292L479.92 177.312L471.189 178.822L467.259 178.542L464.289 176.562L460.268 171.322L452.658 158.511L448.577 154.231L447.308 151.571L445.888 147.86L446.068 141.83L449.388 142.04L453.118 138.62L455.838 126.299L460.539 124.729L463.078 124.839L473.949 130.579L487.46 145.8L490.44 147.4L493.59 147.62L498.751 147.23L499.59 149.201L502.371 151.571L504.39 151.871L516.751 156.651L531.172 166.032L536.522 165.612L538.623 160.421L539.063 158.181L544.933 152.911L549.023 152.041L554.753 153.951L555.793 152.381L553.843 144.63L551.194 137.89L547.303 133.56L540.393 120.779L537.633 114.398L536.262 107.788L537.163 101.927L538.162 97.6472L552.513 87.1865L557.714 80.8862L562.724 72.6758L565.044 70.9954L573.515 68.7054L584.735 61.6248L593.295 52.1943L601.796 37.7433L605.356 33.9731L608.257 34.3232L612.096 36.5934L616.347 40.7936L622.077 41.5737L627.677 40.9037L634.048 41.2836L642.969 47.874L644.438 49.9742L645.839 52.7744L642.948 58.1648L642.709 61.635L645.008 60.0148L648.179 59.2049L651.179 60.3148L653.999 63.335L656.039 66.7152L658.499 69.5554L659.289 65.6951L659.649 62.3649L658.299 53.8744L661.759 41.8738L664.449 36.6434L669.289 23.2325L667.84 14.5118L667.62 4.30128L666.91 -0.459091L663.759 -7.32942L657.659 -12.2098L651.508 -13.7499L649.459 -18.5201L649.838 -23.9705L651.539 -31.971L656.589 -48.9621L661.889 -73.1136L662.069 -78.784L661.569 -81.8943L661.929 -85.0444L661.309 -92.545L660.309 -98.1052L638.838 -119.607L637.548 -121.707L636.848 -124.607L639.098 -125.247L640.748 -125.097L656.919 -115.026L660.489 -114.486L685.83 -117.276L698.211 -114.846L708.671 -109.726L716.152 -95.3851L723.763 -82.3544L730.883 -71.2236L731.073 -62.153L723.742 -60.2828L716.593 -59.8729L698.481 -55.3726L694.141 -50.2921L681.94 -34.7413L680.9 -30.0409L681.95 -25.4907L687.55 -20.6905L699.431 -13.5099L704.772 0.641113L708.502 7.66156L711.332 10.3716L714.082 11.0517L720.083 11.1017L724.313 12.8018L725.543 14.1419L727.223 12.8018L731.113 12.3418L753.724 4.89136L758.204 1.59108L759.695 -3.36911L761.354 -20.0302L763.355 -25.8607L765.285 -33.0812L764.565 -37.5215L764.345 -42.5818L775.686 -47.4521L786.216 -50.7622L791.246 -49.7422L792.496 -53.4324L789.266 -60.5228L787.386 -64.0332L789.036 -65.6531L791.456 -63.693L794.636 -62.513L800.287 -63.7531L822.068 -78.314Z" fill="#E5F9FF" stroke="#172057" stroke-width="1.70297"/>
<path d="M156.667 244.89C157.449 247.563 157.343 250.183 156.701 252.699C156.038 255.295 155.039 257.856 153.146 259.782C151.31 261.65 148.765 262.704 146.04 263.471C143.314 264.237 140.615 264.552 138.049 263.922C135.403 263.272 133.06 261.816 131.096 259.96C129.191 258.16 127.357 256.023 126.576 253.35C125.795 250.677 125.849 247.827 126.492 245.311C127.154 242.715 128.52 240.175 130.413 238.249C132.249 236.383 134.732 234.871 137.457 234.105C140.182 233.339 142.958 233.9 145.524 234.53C148.17 235.179 150.86 236.04 152.824 237.897C154.728 239.697 155.886 242.218 156.667 244.89Z" fill="#40D5FF"/>
<g clip-path="url(#clip1_10151_26493)">
<path d="M138.268 251.654H133.18V246.081H134.589V250.46H138.268V251.654Z" fill="#172057"/>
<path d="M140.044 251.654H138.635V246.081H139.797L143.667 249.56V246.081H145.077V251.654H143.898L140.044 248.183V251.654Z" fill="#172057"/>
<path d="M145.669 248.867C145.669 247.108 146.998 245.953 149.132 245.953C151.227 245.953 152.54 246.813 152.572 248.119H151.115C151.091 247.522 150.398 247.14 149.188 247.14C147.866 247.14 147.07 247.816 147.07 248.867C147.07 249.919 147.85 250.587 149.132 250.587C150.255 250.587 151.043 250.205 151.203 249.584H148.296V248.589H152.66V251.654H151.593L151.633 250.524H151.561C151.123 251.32 150.255 251.782 149.077 251.782C146.982 251.782 145.669 250.627 145.669 248.867Z" fill="#172057"/>
</g>
<path d="M191.886 244.89C192.667 247.563 192.562 250.183 191.919 252.699C191.257 255.295 190.257 257.856 188.364 259.782C186.529 261.65 183.984 262.704 181.258 263.471C178.533 264.237 175.834 264.552 173.268 263.922C170.622 263.272 168.278 261.816 166.314 259.96C164.41 258.16 162.576 256.023 161.795 253.35C161.014 250.677 161.068 247.827 161.711 245.311C162.373 242.715 163.739 240.175 165.632 238.249C167.468 236.383 169.95 234.871 172.676 234.105C175.401 233.339 178.177 233.9 180.742 234.53C183.389 235.179 186.079 236.04 188.043 237.897C189.947 239.697 191.105 242.218 191.886 244.89Z" fill="#40D5FF"/>
<g clip-path="url(#clip2_10151_26493)">
<path d="M173.66 244.688L183.116 244.688C184.765 244.688 186.102 246.024 186.102 247.673V250.66C186.102 252.65 187.097 253.646 187.097 253.646V258.125H185.604L184.111 254.641C180.13 256.632 179.632 254.143 179.632 252.65L176.646 252.65L174.656 258.125L173.163 258.125V253.314C173.163 252.947 172.865 252.65 172.499 252.65C171.766 252.65 171.172 252.056 171.172 251.323L171.172 248.669" stroke="#172057" stroke-width="1.49302" stroke-linecap="round" stroke-linejoin="round"/>
<path d="M168.324 241.822L169.071 247.794C169.133 248.292 169.556 248.666 170.058 248.666H172.282C172.784 248.666 173.208 248.292 173.27 247.794L174.017 241.822C174.091 241.228 173.628 240.703 173.029 240.703L169.312 240.703C168.713 240.703 168.25 241.228 168.324 241.822Z" stroke="#172057" stroke-width="1.49302" stroke-linecap="round" stroke-linejoin="round"/>
<path d="M168.185 242.695C166.536 242.695 165.199 241.358 165.199 239.709" stroke="#172057" stroke-width="1.49302" stroke-linecap="round"/>
<path d="M174.158 242.695C175.808 242.695 177.145 241.358 177.145 239.709" stroke="#172057" stroke-width="1.49302" stroke-linecap="round"/>
</g>
<path d="M227.105 244.89C227.886 247.563 227.781 250.183 227.138 252.699C226.476 255.295 225.476 257.856 223.583 259.782C221.748 261.65 219.202 262.704 216.477 263.471C213.752 264.237 211.052 264.552 208.487 263.922C205.84 263.272 203.497 261.816 201.533 259.96C199.629 258.16 197.795 256.023 197.014 253.35C196.232 250.677 196.287 247.827 196.929 245.311C197.592 242.715 198.958 240.175 200.851 238.249C202.687 236.383 205.169 234.871 207.894 234.105C210.62 233.339 213.396 233.9 215.961 234.53C218.608 235.179 221.297 236.04 223.261 237.897C225.165 239.697 226.324 242.218 227.105 244.89Z" fill="#40D5FF"/>
<g clip-path="url(#clip3_10151_26493)">
<path d="M210.37 257.626C206.388 257.626 203.402 253.804 203.402 249.663C203.402 240.207 211.365 237.719 211.365 237.719L211.863 237.719C208.877 243.193 212.858 248.17 216.342 243.193C217.337 243.857 219.328 246.08 219.328 249.663C219.328 253.804 216.342 257.626 212.36 257.626" stroke="#172057" stroke-width="1.49302"/>
<path d="M212.362 257.626C213.855 257.626 214.85 256.133 214.85 254.64C214.85 253.147 213.855 251.156 211.367 251.156C208.878 251.156 207.883 252.991 207.883 254.64C207.883 256.133 208.878 257.626 210.371 257.626" stroke="#172057" stroke-width="1.49302"/>
</g>
<path d="M262.324 244.89C263.105 247.563 262.999 250.183 262.357 252.699C261.695 255.295 260.695 257.856 258.802 259.782C256.967 261.65 254.421 262.704 251.696 263.471C248.971 264.237 246.271 264.552 243.706 263.922C241.059 263.272 238.716 261.816 236.752 259.96C234.848 258.16 233.013 256.023 232.232 253.35C231.451 250.677 231.506 247.827 232.148 245.311C232.81 242.715 234.176 240.175 236.069 238.249C237.906 236.383 240.388 234.871 243.113 234.105C245.838 233.339 248.615 233.9 251.18 234.53C253.826 235.179 256.516 236.04 258.48 237.897C260.384 239.697 261.543 242.218 262.324 244.89Z" fill="#40D5FF"/>
<rect x="240.195" y="243.961" width="13.9348" height="13.9348" rx="2.98603" stroke="#172057" stroke-width="1.49302"/>
<path d="M240.195 250.93H254.13" stroke="#172057" stroke-width="1.49302" stroke-linecap="round" stroke-linejoin="round"/>
<path d="M243.18 238.984L251.142 238.984" stroke="#172057" stroke-width="1.49302" stroke-linecap="round" stroke-linejoin="round"/>
<path d="M247.164 241.969L247.164 243.959" stroke="#172057" stroke-width="1.49302" stroke-linecap="round" stroke-linejoin="round"/>
<path d="M244.176 239.984L244.176 243.966" stroke="#172057" stroke-width="1.49302" stroke-linecap="round" stroke-linejoin="round"/>
<path d="M250.148 239.984L250.148 243.966" stroke="#172057" stroke-width="1.49302" stroke-linecap="round" stroke-linejoin="round"/>
<path d="M156.667 375.155C157.449 377.828 157.343 380.449 156.701 382.965C156.038 385.56 155.039 388.122 153.146 390.048C151.31 391.916 148.765 392.97 146.04 393.736C143.314 394.502 140.615 394.818 138.049 394.188C135.403 393.538 133.06 392.082 131.096 390.225C129.191 388.426 127.357 386.288 126.576 383.615C125.795 380.943 125.849 378.093 126.492 375.577C127.154 372.981 128.52 370.441 130.413 368.515C132.249 366.649 134.732 365.137 137.457 364.371C140.182 363.605 142.958 364.165 145.524 364.795C148.17 365.445 150.86 366.306 152.824 368.162C154.728 369.962 155.886 372.484 156.667 375.155Z" fill="#40D5FF"/>
<g clip-path="url(#clip4_10151_26493)">
<path d="M141.925 379.933H135.953L139.935 368.984H149.888L145.409 376.947H150.883L139.935 389.887L141.925 379.933Z" stroke="#172057" stroke-width="1.49302" stroke-linecap="round" stroke-linejoin="round"/>
</g>
<path d="M191.886 375.155C192.667 377.828 192.562 380.449 191.919 382.965C191.257 385.56 190.257 388.122 188.364 390.048C186.529 391.916 183.984 392.97 181.258 393.736C178.533 394.502 175.834 394.818 173.268 394.188C170.622 393.538 168.278 392.082 166.314 390.225C164.41 388.426 162.576 386.288 161.795 383.615C161.014 380.943 161.068 378.093 161.711 375.577C162.373 372.981 163.739 370.441 165.632 368.515C167.468 366.649 169.95 365.137 172.676 364.371C175.401 363.605 178.177 364.165 180.742 364.795C183.389 365.445 186.079 366.306 188.043 368.162C189.947 369.962 191.105 372.484 191.886 375.155Z" fill="#40D5FF"/>
<g clip-path="url(#clip5_10151_26493)">
<path d="M173.66 374.953L183.116 374.953C184.765 374.953 186.102 376.29 186.102 377.939V380.925C186.102 382.916 187.097 383.911 187.097 383.911V388.39H185.604L184.111 384.907C180.13 386.897 179.632 384.409 179.632 382.916L176.646 382.916L174.656 388.39L173.163 388.39V383.579C173.163 383.213 172.865 382.916 172.499 382.916C171.766 382.916 171.172 382.322 171.172 381.589L171.172 378.935" stroke="#172057" stroke-width="1.49302" stroke-linecap="round" stroke-linejoin="round"/>
<path d="M168.324 372.088L169.071 378.06C169.133 378.558 169.556 378.932 170.058 378.932H172.282C172.784 378.932 173.208 378.558 173.27 378.06L174.017 372.088C174.091 371.493 173.628 370.969 173.029 370.969L169.312 370.969C168.713 370.969 168.25 371.493 168.324 372.088Z" stroke="#172057" stroke-width="1.49302" stroke-linecap="round" stroke-linejoin="round"/>
<path d="M168.185 372.961C166.536 372.961 165.199 371.624 165.199 369.975" stroke="#172057" stroke-width="1.49302" stroke-linecap="round"/>
<path d="M174.158 372.961C175.808 372.961 177.145 371.624 177.145 369.975" stroke="#172057" stroke-width="1.49302" stroke-linecap="round"/>
</g>
<path d="M227.105 375.155C227.886 377.828 227.781 380.449 227.138 382.965C226.476 385.56 225.476 388.122 223.583 390.048C221.748 391.916 219.202 392.97 216.477 393.736C213.752 394.502 211.052 394.818 208.487 394.188C205.84 393.538 203.497 392.082 201.533 390.225C199.629 388.426 197.795 386.288 197.014 383.615C196.232 380.943 196.287 378.093 196.929 375.577C197.592 372.981 198.958 370.441 200.851 368.515C202.687 366.649 205.169 365.137 207.894 364.371C210.62 363.605 213.396 364.165 215.961 364.795C218.608 365.445 221.297 366.306 223.261 368.162C225.165 369.962 226.324 372.484 227.105 375.155Z" fill="#40D5FF"/>
<g clip-path="url(#clip6_10151_26493)">
<path d="M212.362 388.891C208.381 388.891 205.395 385.07 205.395 380.929C205.395 371.473 213.357 368.984 213.357 368.984L213.855 368.984C210.869 374.459 214.85 379.435 218.334 374.459C219.329 375.122 221.32 377.345 221.32 380.929C221.32 385.07 218.334 388.891 214.353 388.891" stroke="#172057" stroke-width="1.49302"/>
<path d="M214.354 388.892C215.847 388.892 216.842 387.399 216.842 385.906C216.842 384.413 215.847 382.422 213.359 382.422C210.87 382.422 209.875 384.256 209.875 385.906C209.875 387.399 210.87 388.892 212.363 388.892" stroke="#172057" stroke-width="1.49302"/>
</g>
<path d="M262.324 375.155C263.105 377.828 262.999 380.449 262.357 382.965C261.695 385.56 260.695 388.122 258.802 390.048C256.967 391.916 254.421 392.97 251.696 393.736C248.971 394.502 246.271 394.818 243.706 394.188C241.059 393.538 238.716 392.082 236.752 390.225C234.848 388.426 233.013 386.288 232.232 383.615C231.451 380.943 231.506 378.093 232.148 375.577C232.81 372.981 234.176 370.441 236.069 368.515C237.906 366.649 240.388 365.137 243.113 364.371C245.838 363.605 248.615 364.165 251.18 364.795C253.826 365.445 256.516 366.306 258.48 368.162C260.384 369.962 261.543 372.484 262.324 375.155Z" fill="#40D5FF"/>
<g clip-path="url(#clip7_10151_26493)">
<path d="M251.424 370.897C249.853 369.861 247.972 369.258 245.95 369.258C240.452 369.258 235.996 373.714 235.996 379.211C235.996 384.708 240.452 389.165 245.95 389.165C251.447 389.165 255.903 384.708 255.903 379.211V378.216" stroke="#172057" stroke-width="1.49302" stroke-linecap="round"/>
<path d="M257.895 376.227C257.895 377.326 257.004 378.217 255.905 378.217C254.805 378.217 253.914 377.326 253.914 376.227" stroke="#172057" stroke-width="1.49302" stroke-linecap="round" stroke-linejoin="round"/>
<path d="M254.41 374.233V372.242" stroke="#172057" stroke-width="1.49302" stroke-linecap="round" stroke-linejoin="round"/>
<path d="M257.395 374.233V372.242" stroke="#172057" stroke-width="1.49302" stroke-linecap="round" stroke-linejoin="round"/>
<path d="M243.46 382.698V381.951H242.714V382.698H243.46ZM248.437 382.698H249.183V381.951H248.437V382.698ZM251.921 378.717H252.667C252.667 378.519 252.589 378.329 252.449 378.189L251.921 378.717ZM239.977 378.717L239.449 378.189C239.309 378.329 239.23 378.519 239.23 378.717H239.977ZM250.925 377.721L250.243 378.024C250.28 378.108 250.333 378.184 250.397 378.249L250.925 377.721ZM240.972 377.721L241.5 378.249C241.565 378.184 241.617 378.108 241.654 378.024L240.972 377.721ZM249.46 374.424L250.142 374.121L249.46 374.424ZM241.967 384.937H242.465V383.444H241.967V384.937ZM244.207 383.196V382.698H242.714V383.196H244.207ZM247.69 382.698V383.196H249.183V382.698H247.69ZM249.432 384.937H249.93V383.444H249.432V384.937ZM252.667 382.2V378.717H251.174V382.2H252.667ZM247.641 372.496H244.256V373.989H247.641V372.496ZM239.23 378.717V382.2H240.723V378.717H239.23ZM252.449 378.189L251.453 377.193L250.397 378.249L251.393 379.244L252.449 378.189ZM251.608 377.418L250.142 374.121L248.778 374.728L250.243 378.024L251.608 377.418ZM241.755 374.121L240.29 377.418L241.654 378.024L243.119 374.728L241.755 374.121ZM240.444 377.193L239.449 378.189L240.504 379.244L241.5 378.249L240.444 377.193ZM243.46 383.444H245.949V381.951H243.46V383.444ZM245.949 383.444H248.437V381.951H245.949V383.444ZM244.256 372.496C243.175 372.496 242.194 373.133 241.755 374.121L243.119 374.728C243.319 374.278 243.765 373.989 244.256 373.989V372.496ZM247.641 373.989C248.133 373.989 248.578 374.278 248.778 374.728L250.142 374.121C249.703 373.133 248.723 372.496 247.641 372.496V373.989ZM247.69 383.196C247.69 384.158 248.47 384.937 249.432 384.937V383.444C249.295 383.444 249.183 383.333 249.183 383.196H247.69ZM242.465 384.937C243.427 384.937 244.207 384.158 244.207 383.196H242.714C242.714 383.333 242.602 383.444 242.465 383.444V384.937ZM249.93 384.937C251.442 384.937 252.667 383.712 252.667 382.2H251.174C251.174 382.887 250.617 383.444 249.93 383.444V384.937ZM239.23 382.2C239.23 383.712 240.456 384.937 241.967 384.937V383.444C241.28 383.444 240.723 382.887 240.723 382.2H239.23Z" fill="#172057"/>
<path d="M241.469 377.219H250.427" stroke="#172057" stroke-width="1.49302" stroke-linecap="round" stroke-linejoin="round"/>
<path d="M249.434 380.203H248.438" stroke="#172057" stroke-width="1.49302" stroke-linecap="round" stroke-linejoin="round"/>
<path d="M243.461 380.203H242.466" stroke="#172057" stroke-width="1.49302" stroke-linecap="round" stroke-linejoin="round"/>
<path d="M253.914 376.225V374.234" stroke="#172057" stroke-width="1.49302" stroke-linecap="round" stroke-linejoin="round"/>
<path d="M257.895 376.225V374.234" stroke="#172057" stroke-width="1.49302" stroke-linecap="round" stroke-linejoin="round"/>
<path d="M254.908 374.234L256.898 374.234" stroke="#172057" stroke-width="1.49302" stroke-linecap="round" stroke-linejoin="round"/>
</g>
<path d="M297.542 375.155C298.324 377.828 298.218 380.449 297.576 382.965C296.913 385.56 295.914 388.122 294.021 390.048C292.185 391.916 289.64 392.97 286.915 393.736C284.189 394.502 281.49 394.818 278.924 394.188C276.278 393.538 273.935 392.082 271.971 390.225C270.066 388.426 268.232 386.288 267.451 383.615C266.67 380.943 266.724 378.093 267.367 375.577C268.029 372.981 269.395 370.441 271.288 368.515C273.124 366.649 275.607 365.137 278.332 364.371C281.057 363.605 283.833 364.165 286.399 364.795C289.045 365.445 291.735 366.306 293.699 368.162C295.603 369.962 296.761 372.484 297.542 375.155Z" fill="#40D5FF"/>
<g clip-path="url(#clip8_10151_26493)">
<path d="M278.147 381.92H273.059V376.346H274.468V380.726H278.147V381.92Z" fill="#172057"/>
<path d="M279.923 381.92H278.514V376.346H279.676L283.546 379.826V376.346H284.956V381.92H283.777L279.923 378.448V381.92Z" fill="#172057"/>
<path d="M285.547 379.133C285.547 377.373 286.877 376.219 289.011 376.219C291.105 376.219 292.419 377.079 292.451 378.385H290.994C290.97 377.787 290.277 377.405 289.067 377.405C287.745 377.405 286.949 378.082 286.949 379.133C286.949 380.184 287.729 380.853 289.011 380.853C290.134 380.853 290.922 380.471 291.082 379.85H288.175V378.854H292.539V381.92H291.472L291.512 380.789H291.44C291.002 381.586 290.134 382.047 288.956 382.047C286.861 382.047 285.547 380.893 285.547 379.133Z" fill="#172057"/>
</g>
<path d="M156.667 409.679C157.449 412.352 157.343 414.972 156.701 417.488C156.038 420.084 155.039 422.645 153.146 424.572C151.31 426.439 148.765 427.493 146.04 428.26C143.314 429.026 140.615 429.341 138.049 428.711C135.403 428.062 133.06 426.605 131.096 424.749C129.191 422.949 127.357 420.812 126.576 418.139C125.795 415.466 125.849 412.616 126.492 410.1C127.154 407.505 128.52 404.965 130.413 403.038C132.249 401.172 134.732 399.66 137.457 398.894C140.182 398.128 142.958 398.689 145.524 399.319C148.17 399.968 150.86 400.829 152.824 402.686C154.728 404.486 155.886 407.007 156.667 409.679Z" fill="#40D5FF"/>
<path d="M143.418 414.453H144.911C146.01 414.453 146.902 415.345 146.902 416.444V419.43C146.902 420.529 147.793 421.421 148.892 421.421V421.421C149.992 421.421 150.883 420.529 150.883 419.43V409.477" stroke="#172057" stroke-width="1.49302" stroke-linecap="round"/>
<path d="M142.922 411.469L134.959 411.469" stroke="#172057" stroke-width="1.49302" stroke-linecap="round"/>
<path d="M150.883 409.477L145.906 404.5" stroke="#172057" stroke-width="1.49302" stroke-linecap="round"/>
<path d="M134.957 405.495C134.957 404.946 135.403 404.5 135.952 404.5H141.924C142.474 404.5 142.92 404.946 142.92 405.495V422.416H134.957V405.495Z" stroke="#172057" stroke-width="1.49302" stroke-linejoin="round"/>
<path d="M133.961 422.414H143.914" stroke="#172057" stroke-width="1.49302" stroke-linecap="round"/>
<path d="M147.898 406.492V410.474L150.884 413.46" stroke="#172057" stroke-width="1.49302" stroke-linecap="round"/>
<path d="M191.886 409.679C192.667 412.352 192.562 414.972 191.919 417.488C191.257 420.084 190.257 422.645 188.364 424.572C186.529 426.439 183.984 427.493 181.258 428.26C178.533 429.026 175.834 429.341 173.268 428.711C170.622 428.062 168.278 426.605 166.314 424.749C164.41 422.949 162.576 420.812 161.795 418.139C161.014 415.466 161.068 412.616 161.711 410.1C162.373 407.505 163.739 404.965 165.632 403.038C167.468 401.172 169.95 399.66 172.676 398.894C175.401 398.128 178.177 398.689 180.742 399.319C183.389 399.968 186.079 400.829 188.043 402.686C189.947 404.486 191.105 407.007 191.886 409.679Z" fill="#40D5FF"/>
<path d="M169.184 422.422L183.118 422.422" stroke="#172057" stroke-width="1.49302" stroke-linecap="round" stroke-linejoin="round"/>
<path d="M176.15 406.494V403.508M176.15 419.931H174.177C172.399 419.931 170.837 418.753 170.349 417.043L168.55 410.749C168.368 410.113 168.846 409.48 169.507 409.48H176.15H182.793C183.455 409.48 183.932 410.113 183.75 410.749L181.952 417.043C181.464 418.753 179.901 419.931 178.124 419.931H176.15Z" stroke="#172057" stroke-width="1.49302" stroke-linecap="round" stroke-linejoin="round"/>
<path d="M183.119 412.469C183.119 412.469 182.92 412.469 184.115 412.469C185.309 412.469 186.105 413.464 186.105 414.459C186.105 416.45 184.612 417.445 182.622 417.445C181.427 417.445 181.825 417.445 181.825 417.445" stroke="#172057" stroke-width="1.49302" stroke-linecap="round" stroke-linejoin="round"/>
<path d="M179.135 406.491L180.131 404.5M173.163 406.491L172.168 404.5" stroke="#172057" stroke-width="1.49302" stroke-linecap="round" stroke-linejoin="round"/>
<path d="M227.105 409.679C227.886 412.352 227.781 414.972 227.138 417.488C226.476 420.084 225.476 422.645 223.583 424.572C221.748 426.439 219.202 427.493 216.477 428.26C213.752 429.026 211.052 429.341 208.487 428.711C205.84 428.062 203.497 426.605 201.533 424.749C199.629 422.949 197.795 420.812 197.014 418.139C196.232 415.466 196.287 412.616 196.929 410.1C197.592 407.505 198.958 404.965 200.851 403.038C202.687 401.172 205.169 399.66 207.894 398.894C210.62 398.128 213.396 398.689 215.961 399.319C218.608 399.968 221.297 400.829 223.261 402.686C225.165 404.486 226.324 407.007 227.105 409.679Z" fill="#40D5FF"/>
<g clip-path="url(#clip9_10151_26493)">
<circle cx="216.345" cy="421.424" r="2.98603" stroke="#172057" stroke-width="1.49302"/>
<circle cx="2.98603" cy="2.98603" r="2.98603" transform="matrix(-1 0 0 1 211.367 406.492)" stroke="#172057" stroke-width="1.49302"/>
<path d="M206.391 421.425V415.453H223.312V421.425H219.33M201.414 421.425H213.358" stroke="#172057" stroke-width="1.49302" stroke-linecap="round" stroke-linejoin="round"/>
<path d="M218.336 409.48V403.508H201.415V409.48H205.396M223.312 409.48H211.368" stroke="#172057" stroke-width="1.49302" stroke-linecap="round" stroke-linejoin="round"/>
<path d="M221.32 407.484L223.311 409.475L221.32 411.466" stroke="#172057" stroke-width="1.49302" stroke-linecap="round"/>
<path d="M203.402 423.414L201.412 421.423L203.402 419.433" stroke="#172057" stroke-width="1.49302" stroke-linecap="round"/>
</g>
<path d="M262.324 409.679C263.105 412.352 262.999 414.972 262.357 417.488C261.695 420.084 260.695 422.645 258.802 424.572C256.967 426.439 254.421 427.493 251.696 428.26C248.971 429.026 246.271 429.341 243.706 428.711C241.059 428.062 238.716 426.605 236.752 424.749C234.848 422.949 233.013 420.812 232.232 418.139C231.451 415.466 231.506 412.616 232.148 410.1C232.81 407.505 234.176 404.965 236.069 403.038C237.906 401.172 240.388 399.66 243.113 398.894C245.838 398.128 248.615 398.689 251.18 399.319C253.826 399.968 256.516 400.829 258.48 402.686C260.384 404.486 261.543 407.007 262.324 409.679Z" fill="#40D5FF"/>
<path d="M254.548 420.425C254.548 422.074 253.211 423.411 251.562 423.411H243.599C241.95 423.411 240.613 422.074 240.613 420.425V412.463C240.613 410.813 241.95 409.477 243.599 409.477H251.562C253.211 409.477 254.548 410.813 254.548 412.463" stroke="#172057" stroke-width="1.49302"/>
<path d="M243.598 404.5L251.56 404.5" stroke="#172057" stroke-width="1.49302" stroke-linecap="round" stroke-linejoin="round"/>
<path d="M247.582 407.484L247.582 409.475" stroke="#172057" stroke-width="1.49302" stroke-linecap="round" stroke-linejoin="round"/>
<path d="M244.594 404.5L244.594 409.477" stroke="#172057" stroke-width="1.49302" stroke-linecap="round" stroke-linejoin="round"/>
<path d="M250.566 404.5L250.566 409.477" stroke="#172057" stroke-width="1.49302" stroke-linecap="round" stroke-linejoin="round"/>
<path d="M243.019 419.433V418.548C243.179 418.415 243.338 418.283 243.496 418.153C243.654 418.022 243.813 417.892 243.972 417.761C244.344 417.455 244.663 417.168 244.93 416.902C245.197 416.635 245.401 416.379 245.543 416.132C245.686 415.885 245.757 415.637 245.757 415.387C245.757 415.115 245.678 414.91 245.522 414.773C245.365 414.635 245.128 414.567 244.812 414.567C244.676 414.567 244.536 414.582 244.392 414.611C244.248 414.641 244.104 414.684 243.959 414.739C243.814 414.794 243.669 414.859 243.526 414.933C243.382 415.006 243.242 415.089 243.106 415.179L242.988 413.929C243.122 413.866 243.269 413.808 243.43 413.752C243.591 413.697 243.762 413.647 243.944 413.604C244.125 413.56 244.312 413.525 244.505 413.499C244.698 413.474 244.892 413.461 245.086 413.461C245.527 413.461 245.901 413.531 246.207 413.671C246.513 413.812 246.745 414.013 246.903 414.275C247.061 414.538 247.141 414.852 247.141 415.218C247.141 415.518 247.077 415.817 246.949 416.113C246.821 416.409 246.628 416.706 246.368 417.004C246.108 417.302 245.78 417.603 245.382 417.906L244.525 418.565L244.359 418.31H247.21V419.433H243.019V419.433Z" fill="#172057"/>
<path d="M250.265 419.431V417.717L250.343 417.534V414.144L251.275 413.782C251.121 413.998 250.971 414.206 250.826 414.407C250.681 414.609 250.535 414.812 250.387 415.016L249.429 416.352C249.299 416.527 249.17 416.704 249.044 416.881C248.918 417.058 248.789 417.235 248.659 417.411L248.62 417.13H250.604L250.744 417.079H252.463V418.198H247.566V417.326C247.682 417.167 247.809 416.99 247.947 416.796C248.085 416.602 248.227 416.406 248.372 416.209C248.517 416.012 248.65 415.83 248.772 415.662L249.495 414.663C249.625 414.484 249.756 414.304 249.887 414.123C250.017 413.941 250.148 413.76 250.278 413.578H251.601V419.431H250.265L250.265 419.431Z" fill="#172057"/>
<path d="M257.082 415.794C256.878 415.565 256.577 415.45 256.179 415.45C255.991 415.45 255.822 415.48 255.672 415.541C255.523 415.602 255.391 415.682 255.277 415.78C255.163 415.879 255.066 415.983 254.987 416.095H254.888V413.578H253.699V419.431H254.888V417.011C254.949 416.918 255.019 416.833 255.098 416.757C255.178 416.68 255.265 416.62 255.36 416.574C255.456 416.529 255.561 416.506 255.674 416.506C255.873 416.506 256.011 416.564 256.088 416.679C256.165 416.794 256.203 416.966 256.203 417.194V419.431H257.387V416.821C257.387 416.365 257.285 416.022 257.081 415.793L257.082 415.794Z" fill="#172057"/>
<path d="M297.542 409.679C298.324 412.352 298.218 414.972 297.576 417.488C296.913 420.084 295.914 422.645 294.021 424.572C292.185 426.439 289.64 427.493 286.915 428.26C284.189 429.026 281.49 429.341 278.924 428.711C276.278 428.062 273.935 426.605 271.971 424.749C270.066 422.949 268.232 420.812 267.451 418.139C266.67 415.466 266.724 412.616 267.367 410.1C268.029 407.505 269.395 404.965 271.288 403.038C273.124 401.172 275.607 399.66 278.332 398.894C281.057 398.128 283.833 398.689 286.399 399.319C289.045 399.968 291.735 400.829 293.699 402.686C295.603 404.486 296.761 407.007 297.542 409.679Z" fill="#40D5FF"/>
<g clip-path="url(#clip10_10151_26493)">
<path d="M278.405 410.336C280.843 410.336 282.486 411.52 282.486 414.059C282.486 416.338 280.754 417.572 278.116 417.572C276.892 417.572 276.046 417.363 275.299 416.995V415.372C276.006 415.771 276.872 416.079 278.136 416.079C279.748 416.079 280.724 415.362 280.724 414.188C279.928 414.755 278.833 415.034 277.937 415.034C275.737 415.034 274.762 414.019 274.762 412.665C274.762 411.262 276.086 410.336 278.405 410.336ZM278.494 411.819C277.34 411.819 276.523 412.147 276.523 412.784C276.523 413.402 277.091 413.75 278.186 413.75C278.992 413.75 280.007 413.471 280.565 413.063C280.286 412.317 279.569 411.819 278.494 411.819Z" fill="#172057"/>
<path d="M286.577 417.602C285.542 417.602 284.149 417.443 283.392 417.104V415.502C284.039 415.83 285.443 416.099 286.597 416.099C287.971 416.099 288.857 415.79 288.857 415.163C288.857 414.516 288.22 414.228 286.786 414.228C285.95 414.228 284.975 414.467 284.248 414.775L283.482 414.059L283.88 410.475H290.3V411.958H285.184L284.955 413.292C285.592 413.043 286.518 412.924 287.473 412.924C289.136 412.924 290.609 413.441 290.609 415.213C290.609 416.736 289.016 417.602 286.577 417.602Z" fill="#172057"/>
</g>
<path d="M156.667 444.202C157.449 446.875 157.343 449.496 156.701 452.012C156.038 454.607 155.039 457.169 153.146 459.095C151.31 460.962 148.765 462.017 146.04 462.783C143.314 463.549 140.615 463.865 138.049 463.235C135.403 462.585 133.06 461.129 131.096 459.272C129.191 457.472 127.357 455.335 126.576 452.662C125.795 449.99 125.849 447.139 126.492 444.623C127.154 442.028 128.52 439.488 130.413 437.562C132.249 435.695 134.732 434.184 137.457 433.418C140.182 432.652 142.958 433.212 145.524 433.842C148.17 434.492 150.86 435.353 152.824 437.209C154.728 439.009 155.886 441.531 156.667 444.202Z" fill="#40D5FF"/>
<g clip-path="url(#clip11_10151_26493)">
<path d="M137.217 444.859C139.656 444.859 141.298 446.044 141.298 448.582C141.298 450.861 139.566 452.096 136.929 452.096C135.704 452.096 134.858 451.887 134.112 451.518V449.896C134.818 450.294 135.684 450.603 136.948 450.603C138.561 450.603 139.536 449.886 139.536 448.711C138.74 449.279 137.645 449.557 136.749 449.557C134.55 449.557 133.574 448.542 133.574 447.188C133.574 445.785 134.898 444.859 137.217 444.859ZM137.307 446.342C136.152 446.342 135.336 446.671 135.336 447.308C135.336 447.925 135.903 448.273 136.998 448.273C137.804 448.273 138.82 447.995 139.377 447.587C139.098 446.84 138.382 446.342 137.307 446.342Z" fill="#172057"/>
<path d="M142.242 450.145C142.242 449.109 143.367 448.691 144.452 448.552V448.522C143.456 448.333 142.441 447.826 142.441 446.78C142.441 445.546 143.894 444.869 146.194 444.869C148.324 444.869 149.936 445.516 149.936 446.78C149.936 447.826 148.921 448.333 147.935 448.522V448.552C149.01 448.691 150.135 449.109 150.135 450.145C150.135 451.429 148.543 452.185 146.233 452.165C143.775 452.185 142.242 451.439 142.242 450.145ZM144.213 447.049C144.213 447.437 144.462 447.806 146.194 447.806C147.856 447.806 148.174 447.437 148.174 447.049C148.174 446.492 147.239 446.293 146.194 446.293C145.139 446.293 144.213 446.492 144.213 447.049ZM144.014 450.005C144.014 450.483 144.73 450.742 146.184 450.742C147.627 450.742 148.373 450.493 148.373 450.005C148.373 449.567 147.945 449.259 146.194 449.259C144.432 449.259 144.014 449.567 144.014 450.005Z" fill="#172057"/>
</g>
<path d="M191.886 444.202C192.667 446.875 192.562 449.496 191.919 452.012C191.257 454.607 190.257 457.169 188.364 459.095C186.529 460.962 183.984 462.017 181.258 462.783C178.533 463.549 175.834 463.865 173.268 463.235C170.622 462.585 168.278 461.129 166.314 459.272C164.41 457.472 162.576 455.335 161.795 452.662C161.014 449.99 161.068 447.139 161.711 444.623C162.373 442.028 163.739 439.488 165.632 437.562C167.468 435.695 169.95 434.184 172.676 433.418C175.401 432.652 178.177 433.212 180.742 433.842C183.389 434.492 186.079 435.353 188.043 437.209C189.947 439.009 191.105 441.531 191.886 444.202Z" fill="#40D5FF"/>
<g clip-path="url(#clip12_10151_26493)">
<path d="M167.198 447.989H165.344L169.124 441.719H170.898L174.678 447.989H172.833L172.161 446.816H167.87L167.198 447.989ZM170.02 443.036L168.622 445.481H171.399L170.02 443.036Z" fill="#172057"/>
<path d="M177.225 448.133C175.819 448.133 174.86 447.165 174.86 445.714C174.86 444.308 175.828 443.367 177.154 443.367C178.247 443.367 179.16 443.958 179.366 444.962H179.402V441.719H180.979V447.989H179.366L179.563 446.529H179.456C179.259 447.479 178.363 448.133 177.225 448.133ZM177.781 446.879C178.497 446.879 179.196 446.502 179.196 445.732C179.196 444.979 178.497 444.612 177.781 444.612C177.028 444.612 176.383 444.979 176.383 445.732C176.383 446.502 177.028 446.879 177.781 446.879Z" fill="#172057"/>
<path d="M170.772 455.952H165.836V449.682H170.575C171.874 449.682 172.591 450.318 172.591 451.276C172.591 452.127 171.973 452.512 170.737 452.611V452.674C172.098 452.745 172.797 453.292 172.797 454.223C172.797 455.227 171.991 455.952 170.772 455.952ZM167.413 451.016L167.422 452.118H170.262C170.719 452.118 171.014 452.002 171.014 451.581C171.014 451.142 170.719 451.016 170.262 451.016H167.413ZM167.422 453.211L167.431 454.6H170.396C170.943 454.6 171.211 454.358 171.211 453.901C171.211 453.453 170.943 453.211 170.396 453.211H167.422Z" fill="#172057"/>
<path d="M174.841 455.952H173.264V449.682H174.841V455.952Z" fill="#172057"/>
<path d="M179.651 451.473H181.237V455.952H179.526L179.705 454.107H179.624C179.409 455.451 178.782 456.096 177.403 456.096C176.139 456.078 175.566 455.522 175.566 453.417V451.473H177.152V453.265C177.152 454.51 177.474 454.904 178.263 454.904C179.096 454.904 179.651 454.062 179.651 452.862V451.473Z" fill="#172057"/>
<path d="M184.582 456.096C182.961 456.096 181.886 455.146 181.886 453.713C181.886 452.279 182.961 451.33 184.582 451.33C186.185 451.33 187.251 452.145 187.278 453.363V454.098H183.453C183.597 454.635 184.089 454.886 185.03 454.886C186.123 454.886 186.571 454.608 187.081 454.393V455.657C186.311 455.943 185.782 456.096 184.582 456.096ZM183.417 453.444H185.755C185.72 452.871 185.227 452.575 184.582 452.575C183.973 452.575 183.498 452.897 183.417 453.444Z" fill="#172057"/>
</g>
<path d="M227.105 444.202C227.886 446.875 227.781 449.496 227.138 452.012C226.476 454.607 225.476 457.169 223.583 459.095C221.748 460.962 219.202 462.017 216.477 462.783C213.752 463.549 211.052 463.865 208.487 463.235C205.84 462.585 203.497 461.129 201.533 459.272C199.629 457.472 197.795 455.335 197.014 452.662C196.232 449.99 196.287 447.139 196.929 444.623C197.592 442.028 198.958 439.488 200.851 437.562C202.687 435.695 205.169 434.184 207.894 433.418C210.62 432.652 213.396 433.212 215.961 433.842C218.608 434.492 221.297 435.353 223.261 437.209C225.165 439.009 226.324 441.531 227.105 444.202Z" fill="#40D5FF"/>
<g clip-path="url(#clip13_10151_26493)">
<path d="M204.89 451.094C202.756 451.094 201.426 449.94 201.426 448.18C201.426 446.42 202.756 445.266 204.89 445.266C207.024 445.266 208.361 446.277 208.361 447.822H206.936C206.88 446.986 206.116 446.452 204.89 446.452C203.608 446.452 202.827 447.129 202.827 448.18C202.827 449.231 203.608 449.9 204.89 449.9C206.124 449.9 206.888 449.374 206.936 448.538H208.361C208.361 450.083 207.024 451.094 204.89 451.094Z" fill="#172057"/>
<path d="M210.359 450.967H208.949V445.393H210.112L213.982 448.873V445.393H215.391V450.967H214.213L210.359 447.495V450.967Z" fill="#172057"/>
<path d="M215.983 448.18C215.983 446.42 217.313 445.266 219.447 445.266C221.541 445.266 222.855 446.126 222.887 447.431H221.43C221.406 446.834 220.713 446.452 219.503 446.452C218.181 446.452 217.384 447.129 217.384 448.18C217.384 449.231 218.165 449.9 219.447 449.9C220.57 449.9 221.358 449.518 221.517 448.897H218.611V447.901H222.974V450.967H221.907L221.947 449.836H221.875C221.437 450.633 220.57 451.094 219.391 451.094C217.297 451.094 215.983 449.94 215.983 448.18Z" fill="#172057"/>
</g>
<path d="M262.324 444.202C263.105 446.875 262.999 449.496 262.357 452.012C261.695 454.607 260.695 457.169 258.802 459.095C256.967 460.962 254.421 462.017 251.696 462.783C248.971 463.549 246.271 463.865 243.706 463.235C241.059 462.585 238.716 461.129 236.752 459.272C234.848 457.472 233.013 455.335 232.232 452.662C231.451 449.99 231.506 447.139 232.148 444.623C232.81 442.028 234.176 439.488 236.069 437.562C237.906 435.695 240.388 434.184 243.113 433.418C245.838 432.652 248.615 433.212 251.18 433.842C253.826 434.492 256.516 435.353 258.48 437.209C260.384 439.009 261.543 441.531 262.324 444.202Z" fill="#40D5FF"/>
<g clip-path="url(#clip14_10151_26493)">
<path d="M247.305 451.967H243.98V445H247.305C249.823 445 251.366 446.204 251.366 448.484C251.366 450.793 249.813 451.967 247.305 451.967ZM245.742 446.483V450.474H247.305C248.818 450.474 249.614 449.808 249.614 448.484C249.614 447.14 248.798 446.483 247.305 446.483H245.742Z" fill="#172057"/>
</g>
<g clip-path="url(#clip15_10151_26493)">
<path d="M297.542 444.202C298.324 446.875 298.218 449.496 297.576 452.012C296.913 454.607 295.914 457.169 294.021 459.095C292.185 460.962 289.64 462.017 286.915 462.783C284.189 463.549 281.49 463.865 278.924 463.235C276.278 462.585 273.935 461.129 271.971 459.272C270.066 457.472 268.232 455.335 267.451 452.662C266.67 449.99 266.724 447.139 267.367 444.623C268.029 442.028 269.395 439.488 271.288 437.562C273.124 435.695 275.607 434.184 278.332 433.418C281.057 432.652 283.833 433.212 286.399 433.842C289.045 434.492 291.735 435.353 293.699 437.209C295.603 439.009 296.761 441.531 297.542 444.202Z" fill="#40D5FF"/>
<g clip-path="url(#clip16_10151_26493)">
<path d="M274.445 452.123C272.644 452.123 271.449 451.068 271.449 449.476C271.449 447.883 272.644 446.828 274.445 446.828C276.227 446.828 277.411 447.734 277.441 449.087V449.904H273.191C273.35 450.501 273.898 450.78 274.943 450.78C276.157 450.78 276.655 450.471 277.222 450.232V451.636C276.366 451.954 275.779 452.123 274.445 452.123ZM273.151 449.177H275.749C275.709 448.54 275.162 448.212 274.445 448.212C273.768 448.212 273.241 448.57 273.151 449.177Z" fill="#172057"/>
<path d="M278.173 450.143C278.173 449.107 279.298 448.689 280.383 448.55V448.52C279.388 448.331 278.373 447.823 278.373 446.778C278.373 445.544 279.826 444.867 282.125 444.867C284.255 444.867 285.867 445.514 285.867 446.778C285.867 447.823 284.852 448.331 283.867 448.52V448.55C284.942 448.689 286.067 449.107 286.067 450.143C286.067 451.427 284.474 452.183 282.165 452.163C279.706 452.183 278.173 451.436 278.173 450.143ZM280.144 447.047C280.144 447.435 280.393 447.803 282.125 447.803C283.787 447.803 284.106 447.435 284.106 447.047C284.106 446.49 283.17 446.291 282.125 446.291C281.07 446.291 280.144 446.49 280.144 447.047ZM279.945 450.003C279.945 450.481 280.662 450.74 282.115 450.74C283.558 450.74 284.305 450.491 284.305 450.003C284.305 449.565 283.877 449.257 282.125 449.257C280.363 449.257 279.945 449.565 279.945 450.003Z" fill="#172057"/>
<path d="M289.895 452.123C288.859 452.123 287.466 451.964 286.709 451.626V450.023C287.356 450.352 288.76 450.62 289.914 450.62C291.288 450.62 292.174 450.312 292.174 449.685C292.174 449.038 291.537 448.749 290.104 448.749C289.267 448.749 288.292 448.988 287.565 449.296L286.799 448.58L287.197 444.997H293.617V446.48H288.501L288.272 447.813C288.909 447.565 289.835 447.445 290.79 447.445C292.453 447.445 293.926 447.963 293.926 449.734C293.926 451.257 292.333 452.123 289.895 452.123Z" fill="#172057"/>
</g>
</g>
<g clip-path="url(#clip17_10151_26493)">
<path d="M156.667 478.726C157.449 481.398 157.343 484.019 156.701 486.535C156.038 489.13 155.039 491.692 153.146 493.618C151.31 495.486 148.765 496.54 146.04 497.306C143.314 498.073 140.615 498.388 138.049 497.758C135.403 497.108 133.06 495.652 131.096 493.796C129.191 491.996 127.357 489.859 126.576 487.186C125.795 484.513 125.849 481.663 126.492 479.147C127.154 476.551 128.52 474.011 130.413 472.085C132.249 470.219 134.732 468.707 137.457 467.941C140.182 467.175 142.958 467.736 145.524 468.366C148.17 469.015 150.86 469.876 152.824 471.733C154.728 473.533 155.886 476.054 156.667 478.726Z" fill="#40D5FF"/>
<g clip-path="url(#clip18_10151_26493)">
<path d="M137.723 485.488H132.109V479.914H137.723V481.101H133.519V481.992H137.253V483.115H133.519V484.294H137.723V485.488Z" fill="#172057"/>
<path d="M141.204 485.488H138.544V479.914H141.204C143.218 479.914 144.453 480.878 144.453 482.701C144.453 484.548 143.21 485.488 141.204 485.488ZM139.954 481.101V484.294H141.204C142.414 484.294 143.051 483.76 143.051 482.701C143.051 481.626 142.398 481.101 141.204 481.101H139.954Z" fill="#172057"/>
<path d="M146.459 485.488H145.049V479.914H146.459V482.645L149.668 479.914H151.666L149.054 482.183L151.897 485.488H150.002L147.987 483.067L146.459 484.325V485.488Z" fill="#172057"/>
</g>
</g>
<g clip-path="url(#clip19_10151_26493)">
<path d="M191.886 478.726C192.667 481.398 192.562 484.019 191.919 486.535C191.257 489.13 190.257 491.692 188.364 493.618C186.529 495.486 183.984 496.54 181.258 497.306C178.533 498.073 175.834 498.388 173.268 497.758C170.622 497.108 168.278 495.652 166.314 493.796C164.41 491.996 162.576 489.859 161.795 487.186C161.014 484.513 161.068 481.663 161.711 479.147C162.373 476.551 163.739 474.011 165.632 472.085C167.468 470.219 169.95 468.707 172.676 467.941C175.401 467.175 178.177 467.736 180.742 468.366C183.389 469.015 186.079 469.876 188.043 471.733C189.947 473.533 191.105 476.054 191.886 478.726Z" fill="#40D5FF"/>
<g clip-path="url(#clip20_10151_26493)">
<path d="M172.854 485.49H167.766V479.916H169.175V484.296H172.854V485.49Z" fill="#172057"/>
<path d="M174.63 485.49H173.221V479.916H177.274C178.428 479.916 179.145 480.689 179.145 481.62C179.145 482.751 178.349 483.317 177.274 483.317H174.63V485.49ZM174.622 481.055V482.178H177.075C177.521 482.178 177.744 482.019 177.744 481.62C177.744 481.222 177.521 481.055 177.075 481.055H174.622Z" fill="#172057"/>
<path d="M179.531 482.703C179.531 480.944 180.861 479.789 182.995 479.789C185.089 479.789 186.403 480.649 186.435 481.955H184.978C184.954 481.358 184.261 480.976 183.051 480.976C181.729 480.976 180.933 481.652 180.933 482.703C180.933 483.755 181.713 484.423 182.995 484.423C184.118 484.423 184.906 484.041 185.065 483.42H182.159V482.425H186.523V485.49H185.456L185.495 484.36H185.424C184.986 485.156 184.118 485.618 182.939 485.618C180.845 485.618 179.531 484.463 179.531 482.703Z" fill="#172057"/>
</g>
</g>
<g clip-path="url(#clip21_10151_26493)">
<circle cx="140.057" cy="514.592" r="3.5139" stroke="#172057" stroke-width="1.75695"/>
<circle cx="131.858" cy="518.1" r="2.3426" stroke="#172057" stroke-width="1.75695"/>
<circle cx="148.253" cy="518.1" r="2.3426" stroke="#172057" stroke-width="1.75695"/>
<path d="M134.198 523.957L133.026 530.984L147.082 530.984L145.911 523.957C145.911 523.957 144.739 521.614 142.397 521.614L140.054 521.614L137.712 521.614C135.369 521.614 134.198 523.957 134.198 523.957Z" stroke="#172057" stroke-width="1.75695" stroke-linecap="round" stroke-linejoin="round"/>
<path d="M134.2 523.957C133.363 523.957 133.028 523.957 130.686 523.957C128.343 523.957 127.758 526.299 127.758 526.299L127.172 530.984L133.028 530.984" stroke="#172057" stroke-width="1.75695" stroke-linecap="round" stroke-linejoin="round"/>
<path d="M145.914 523.957C146.75 523.957 147.085 523.957 149.428 523.957C151.77 523.957 152.356 526.299 152.356 526.299L152.941 530.984L147.085 530.984" stroke="#172057" stroke-width="1.75695" stroke-linecap="round" stroke-linejoin="round"/>
</g>
<path d="M168.88 529.297C166.591 529.297 163.51 528.945 161.837 528.197V524.653C163.268 525.38 166.371 525.974 168.924 525.974C171.962 525.974 173.921 525.292 173.921 523.905C173.921 522.475 172.512 521.836 169.343 521.836C167.494 521.836 165.337 522.364 163.73 523.047L162.035 521.462L162.916 513.539H177.112V516.818H165.799L165.293 519.767C166.702 519.217 168.748 518.953 170.861 518.953C174.537 518.953 177.794 520.097 177.794 524.015C177.794 527.383 174.273 529.297 168.88 529.297ZM194.402 528.945H178.313V526.656C178.401 520.758 190.727 521.022 190.727 518.513C190.727 517.06 189.296 516.554 186.127 516.554C183.552 516.554 179.92 517.17 178.886 517.632V514.199C180.316 513.627 183.86 513.208 186.721 513.208C192.135 513.208 194.93 514.265 194.93 517.742C194.93 524.059 184.322 523.003 182.583 525.644H194.402V528.945ZM205.109 529.297C199.1 529.297 195.381 526.084 195.381 521.242C195.381 516.4 199.1 513.186 205.109 513.186C211.139 513.186 214.859 516.4 214.859 521.242C214.859 526.084 211.139 529.297 205.109 529.297ZM205.109 525.996C208.74 525.996 210.963 524.323 210.963 521.242C210.963 518.161 208.74 516.466 205.109 516.466C201.477 516.466 199.254 518.161 199.254 521.242C199.254 524.323 201.477 525.996 205.109 525.996ZM224.27 516.62C222.817 516.62 221.981 516.026 221.981 514.551C221.981 513.098 222.817 512.504 224.27 512.504C225.744 512.504 226.625 513.098 226.625 514.551C226.625 516.026 225.789 516.62 224.27 516.62ZM226.273 528.945H222.377V517.941H226.273V528.945ZM231.757 528.945H227.861V517.941H232.065L231.625 522.475H231.823C232.351 519.151 233.892 517.588 237.303 517.588C240.385 517.632 241.793 518.975 241.793 524.169V528.945H237.898V524.543C237.898 521.484 237.105 520.516 235.169 520.516C233.122 520.516 231.757 522.585 231.757 525.534V528.945Z" fill="#172057"/>
<g clip-path="url(#clip22_10151_26493)">
<circle cx="140.057" cy="281.592" r="3.5139" stroke="#172057" stroke-width="1.75695"/>
<circle cx="131.858" cy="285.1" r="2.3426" stroke="#172057" stroke-width="1.75695"/>
<circle cx="148.253" cy="285.1" r="2.3426" stroke="#172057" stroke-width="1.75695"/>
<path d="M134.198 290.957L133.026 297.984L147.082 297.984L145.911 290.957C145.911 290.957 144.739 288.614 142.397 288.614L140.054 288.614L137.712 288.614C135.369 288.614 134.198 290.957 134.198 290.957Z" stroke="#172057" stroke-width="1.75695" stroke-linecap="round" stroke-linejoin="round"/>
<path d="M134.2 290.957C133.363 290.957 133.028 290.957 130.686 290.957C128.343 290.957 127.758 293.299 127.758 293.299L127.172 297.984L133.028 297.984" stroke="#172057" stroke-width="1.75695" stroke-linecap="round" stroke-linejoin="round"/>
<path d="M145.914 290.957C146.75 290.957 147.085 290.957 149.428 290.957C151.77 290.957 152.356 293.299 152.356 293.299L152.941 297.984L147.085 297.984" stroke="#172057" stroke-width="1.75695" stroke-linecap="round" stroke-linejoin="round"/>
</g>
<path d="M172.93 295.945H169.035V283.818L161.463 288.594V284.742L170.355 280.539H172.93V295.945ZM184.748 296.297C178.74 296.297 175.02 293.084 175.02 288.242C175.02 283.4 178.74 280.186 184.748 280.186C190.779 280.186 194.499 283.4 194.499 288.242C194.499 293.084 190.779 296.297 184.748 296.297ZM184.748 292.996C188.38 292.996 190.603 291.323 190.603 288.242C190.603 285.161 188.38 283.466 184.748 283.466C181.117 283.466 178.894 285.161 178.894 288.242C178.894 291.323 181.117 292.996 184.748 292.996ZM203.909 283.62C202.457 283.62 201.62 283.026 201.62 281.551C201.62 280.098 202.457 279.504 203.909 279.504C205.384 279.504 206.264 280.098 206.264 281.551C206.264 283.026 205.428 283.62 203.909 283.62ZM205.912 295.945H202.016V284.941H205.912V295.945ZM211.397 295.945H207.501V284.941H211.705L211.264 289.475H211.463C211.991 286.151 213.531 284.588 216.943 284.588C220.024 284.632 221.433 285.975 221.433 291.169V295.945H217.537V291.543C217.537 288.484 216.745 287.516 214.808 287.516C212.761 287.516 211.397 289.585 211.397 292.534V295.945Z" fill="#172057"/>
<g clip-path="url(#clip23_10151_26493)">
<circle cx="140.057" cy="614.592" r="3.5139" stroke="#172057" stroke-width="1.75695"/>
<circle cx="131.858" cy="618.1" r="2.3426" stroke="#172057" stroke-width="1.75695"/>
<circle cx="148.253" cy="618.1" r="2.3426" stroke="#172057" stroke-width="1.75695"/>
<path d="M134.198 623.957L133.026 630.984L147.082 630.984L145.911 623.957C145.911 623.957 144.739 621.614 142.397 621.614L140.054 621.614L137.712 621.614C135.369 621.614 134.198 623.957 134.198 623.957Z" stroke="#172057" stroke-width="1.75695" stroke-linecap="round" stroke-linejoin="round"/>
<path d="M134.2 623.957C133.363 623.957 133.028 623.957 130.686 623.957C128.343 623.957 127.758 626.299 127.758 626.299L127.172 630.984L133.028 630.984" stroke="#172057" stroke-width="1.75695" stroke-linecap="round" stroke-linejoin="round"/>
<path d="M145.914 623.957C146.75 623.957 147.085 623.957 149.428 623.957C151.77 623.957 152.356 626.299 152.356 626.299L152.941 630.984L147.085 630.984" stroke="#172057" stroke-width="1.75695" stroke-linecap="round" stroke-linejoin="round"/>
</g>
<path d="M161.683 624.918C161.683 622.629 164.17 621.704 166.569 621.396V621.33C164.369 620.912 162.124 619.789 162.124 617.478C162.124 614.749 165.337 613.253 170.421 613.253C175.131 613.253 178.697 614.683 178.697 617.478C178.697 619.789 176.452 620.912 174.273 621.33V621.396C176.65 621.704 179.137 622.629 179.137 624.918C179.137 627.757 175.615 629.43 170.509 629.386C165.073 629.43 161.683 627.779 161.683 624.918ZM166.041 618.073C166.041 618.931 166.591 619.745 170.421 619.745C174.097 619.745 174.801 618.931 174.801 618.073C174.801 616.84 172.732 616.4 170.421 616.4C168.088 616.4 166.041 616.84 166.041 618.073ZM165.601 624.609C165.601 625.666 167.186 626.238 170.399 626.238C173.59 626.238 175.241 625.688 175.241 624.609C175.241 623.641 174.295 622.959 170.421 622.959C166.525 622.959 165.601 623.641 165.601 624.609ZM188.406 616.62C186.954 616.62 186.117 616.026 186.117 614.551C186.117 613.098 186.954 612.504 188.406 612.504C189.881 612.504 190.761 613.098 190.761 614.551C190.761 616.026 189.925 616.62 188.406 616.62ZM190.409 628.945H186.514V617.941H190.409V628.945ZM195.894 628.945H191.998V617.941H196.202L195.761 622.475H195.96C196.488 619.151 198.028 617.588 201.44 617.588C204.521 617.632 205.93 618.975 205.93 624.169V628.945H202.034V624.543C202.034 621.484 201.242 620.516 199.305 620.516C197.258 620.516 195.894 622.585 195.894 625.534V628.945Z" fill="#172057"/>
<path d="M156.667 577.89C157.449 580.563 157.343 583.183 156.701 585.699C156.038 588.295 155.039 590.856 153.146 592.782C151.31 594.65 148.765 595.704 146.04 596.471C143.314 597.237 140.615 597.552 138.049 596.922C135.403 596.272 133.06 594.816 131.096 592.96C129.191 591.16 127.357 589.023 126.576 586.35C125.795 583.677 125.849 580.827 126.492 578.311C127.154 575.715 128.52 573.175 130.413 571.249C132.249 569.383 134.732 567.871 137.457 567.105C140.182 566.339 142.958 566.9 145.524 567.53C148.17 568.179 150.86 569.04 152.824 570.897C154.728 572.697 155.886 575.218 156.667 577.89Z" fill="#40D5FF"/>
<g clip-path="url(#clip24_10151_26493)">
<path d="M141.925 582.668H135.953L139.935 571.719H149.888L145.409 579.682H150.883L139.935 592.621L141.925 582.668Z" stroke="#172057" stroke-width="1.49302" stroke-linecap="round" stroke-linejoin="round"/>
</g>
<path d="M191.886 577.89C192.667 580.563 192.562 583.183 191.919 585.699C191.257 588.295 190.257 590.856 188.364 592.782C186.529 594.65 183.984 595.704 181.258 596.471C178.533 597.237 175.834 597.552 173.268 596.922C170.622 596.272 168.278 594.816 166.314 592.96C164.41 591.16 162.576 589.023 161.795 586.35C161.014 583.677 161.068 580.827 161.711 578.311C162.373 575.715 163.739 573.175 165.632 571.249C167.468 569.383 169.95 567.871 172.676 567.105C175.401 566.339 178.177 566.9 180.742 567.53C183.389 568.179 186.079 569.04 188.043 570.897C189.947 572.697 191.105 575.218 191.886 577.89Z" fill="#40D5FF"/>
<g clip-path="url(#clip25_10151_26493)">
<path d="M173.66 577.688L183.116 577.688C184.765 577.688 186.102 579.024 186.102 580.673V583.66C186.102 585.65 187.097 586.646 187.097 586.646V591.125H185.604L184.111 587.641C180.13 589.632 179.632 587.143 179.632 585.65L176.646 585.65L174.656 591.125L173.163 591.125V586.314C173.163 585.947 172.865 585.65 172.499 585.65C171.766 585.65 171.172 585.056 171.172 584.323L171.172 581.669" stroke="#172057" stroke-width="1.49302" stroke-linecap="round" stroke-linejoin="round"/>
<path d="M168.324 574.822L169.071 580.794C169.133 581.292 169.556 581.666 170.058 581.666H172.282C172.784 581.666 173.208 581.292 173.27 580.794L174.017 574.822C174.091 574.228 173.628 573.703 173.029 573.703L169.312 573.703C168.713 573.703 168.25 574.228 168.324 574.822Z" stroke="#172057" stroke-width="1.49302" stroke-linecap="round" stroke-linejoin="round"/>
<path d="M168.185 575.695C166.536 575.695 165.199 574.358 165.199 572.709" stroke="#172057" stroke-width="1.49302" stroke-linecap="round"/>
<path d="M174.158 575.695C175.808 575.695 177.145 574.358 177.145 572.709" stroke="#172057" stroke-width="1.49302" stroke-linecap="round"/>
</g>
<path d="M227.105 577.89C227.886 580.563 227.781 583.183 227.138 585.699C226.476 588.295 225.476 590.856 223.583 592.782C221.748 594.65 219.202 595.704 216.477 596.471C213.752 597.237 211.052 597.552 208.487 596.922C205.84 596.272 203.497 594.816 201.533 592.96C199.629 591.16 197.795 589.023 197.014 586.35C196.232 583.677 196.287 580.827 196.929 578.311C197.592 575.715 198.958 573.175 200.851 571.249C202.687 569.383 205.169 567.871 207.894 567.105C210.62 566.339 213.396 566.9 215.961 567.53C218.608 568.179 221.297 569.04 223.261 570.897C225.165 572.697 226.324 575.218 227.105 577.89Z" fill="#40D5FF"/>
<g clip-path="url(#clip26_10151_26493)">
<path d="M212.362 591.626C208.381 591.626 205.395 587.804 205.395 583.663C205.395 574.207 213.357 571.719 213.357 571.719L213.855 571.719C210.869 577.193 214.85 582.17 218.334 577.193C219.329 577.857 221.32 580.08 221.32 583.663C221.32 587.804 218.334 591.626 214.353 591.626" stroke="#172057" stroke-width="1.49302"/>
<path d="M214.354 591.626C215.847 591.626 216.842 590.133 216.842 588.64C216.842 587.147 215.847 585.156 213.359 585.156C210.87 585.156 209.875 586.991 209.875 588.64C209.875 590.133 210.87 591.626 212.363 591.626" stroke="#172057" stroke-width="1.49302"/>
</g>
<path d="M262.324 577.89C263.105 580.563 262.999 583.183 262.357 585.699C261.695 588.295 260.695 590.856 258.802 592.782C256.967 594.65 254.421 595.704 251.696 596.471C248.971 597.237 246.271 597.552 243.706 596.922C241.059 596.272 238.716 594.816 236.752 592.96C234.848 591.16 233.013 589.023 232.232 586.35C231.451 583.677 231.506 580.827 232.148 578.311C232.81 575.715 234.176 573.175 236.069 571.249C237.906 569.383 240.388 567.871 243.113 567.105C245.838 566.339 248.615 566.9 251.18 567.53C253.826 568.179 256.516 569.04 258.48 570.897C260.384 572.697 261.543 575.218 262.324 577.89Z" fill="#40D5FF"/>
<g clip-path="url(#clip27_10151_26493)">
<path d="M251.424 573.632C249.853 572.595 247.972 571.992 245.95 571.992C240.452 571.992 235.996 576.448 235.996 581.946C235.996 587.443 240.452 591.899 245.95 591.899C251.447 591.899 255.903 587.443 255.903 581.946V580.95" stroke="#172057" stroke-width="1.49302" stroke-linecap="round"/>
<path d="M257.895 578.961C257.895 580.06 257.004 580.952 255.905 580.952C254.805 580.952 253.914 580.06 253.914 578.961" stroke="#172057" stroke-width="1.49302" stroke-linecap="round" stroke-linejoin="round"/>
<path d="M254.41 576.967V574.977" stroke="#172057" stroke-width="1.49302" stroke-linecap="round" stroke-linejoin="round"/>
<path d="M257.395 576.967V574.977" stroke="#172057" stroke-width="1.49302" stroke-linecap="round" stroke-linejoin="round"/>
<path d="M243.46 585.432V584.686H242.714V585.432H243.46ZM248.437 585.432H249.183V584.686H248.437V585.432ZM251.921 581.451H252.667C252.667 581.253 252.589 581.063 252.449 580.923L251.921 581.451ZM239.977 581.451L239.449 580.923C239.309 581.063 239.23 581.253 239.23 581.451H239.977ZM250.925 580.456L250.243 580.759C250.28 580.843 250.333 580.919 250.397 580.983L250.925 580.456ZM240.972 580.456L241.5 580.983C241.565 580.919 241.617 580.843 241.654 580.759L240.972 580.456ZM249.46 577.159L250.142 576.856L249.46 577.159ZM241.967 587.672H242.465V586.179H241.967V587.672ZM244.207 585.93V585.432H242.714V585.93H244.207ZM247.69 585.432V585.93H249.183V585.432H247.69ZM249.432 587.672H249.93V586.179H249.432V587.672ZM252.667 584.935V581.451H251.174V584.935H252.667ZM247.641 575.23H244.256V576.723H247.641V575.23ZM239.23 581.451V584.935H240.723V581.451H239.23ZM252.449 580.923L251.453 579.928L250.397 580.983L251.393 581.979L252.449 580.923ZM251.608 580.152L250.142 576.856L248.778 577.462L250.243 580.759L251.608 580.152ZM241.755 576.856L240.29 580.152L241.654 580.759L243.119 577.462L241.755 576.856ZM240.444 579.928L239.449 580.923L240.504 581.979L241.5 580.983L240.444 579.928ZM243.46 586.179H245.949V584.686H243.46V586.179ZM245.949 586.179H248.437V584.686H245.949V586.179ZM244.256 575.23C243.175 575.23 242.194 575.867 241.755 576.856L243.119 577.462C243.319 577.013 243.765 576.723 244.256 576.723V575.23ZM247.641 576.723C248.133 576.723 248.578 577.013 248.778 577.462L250.142 576.856C249.703 575.867 248.723 575.23 247.641 575.23V576.723ZM247.69 585.93C247.69 586.892 248.47 587.672 249.432 587.672V586.179C249.295 586.179 249.183 586.067 249.183 585.93H247.69ZM242.465 587.672C243.427 587.672 244.207 586.892 244.207 585.93H242.714C242.714 586.067 242.602 586.179 242.465 586.179V587.672ZM249.93 587.672C251.442 587.672 252.667 586.446 252.667 584.935H251.174C251.174 585.622 250.617 586.179 249.93 586.179V587.672ZM239.23 584.935C239.23 586.446 240.456 587.672 241.967 587.672V586.179C241.28 586.179 240.723 585.622 240.723 584.935H239.23Z" fill="#172057"/>
<path d="M241.469 579.953H250.427" stroke="#172057" stroke-width="1.49302" stroke-linecap="round" stroke-linejoin="round"/>
<path d="M249.434 582.938H248.438" stroke="#172057" stroke-width="1.49302" stroke-linecap="round" stroke-linejoin="round"/>
<path d="M243.461 582.938H242.466" stroke="#172057" stroke-width="1.49302" stroke-linecap="round" stroke-linejoin="round"/>
<path d="M253.914 578.959V576.969" stroke="#172057" stroke-width="1.49302" stroke-linecap="round" stroke-linejoin="round"/>
<path d="M257.895 578.959V576.969" stroke="#172057" stroke-width="1.49302" stroke-linecap="round" stroke-linejoin="round"/>
<path d="M254.908 576.969L256.898 576.969" stroke="#172057" stroke-width="1.49302" stroke-linecap="round" stroke-linejoin="round"/>
</g>
<rect x="68.4" y="259.4" width="33.2" height="25.2" rx="2.2" stroke="#172057" stroke-width="1.2"/>
<mask id="mask0_10151_26493" style="mask-type:luminance" maskUnits="userSpaceOnUse" x="69" y="260" width="32" height="24">
<rect x="69" y="260" width="32" height="24" rx="1.6" fill="white"/>
</mask>
<g mask="url(#mask0_10151_26493)">
<path fill-rule="evenodd" clip-rule="evenodd" d="M69 260V284H101V260H69Z" fill="#F7FCFF"/>
<mask id="mask1_10151_26493" style="mask-type:luminance" maskUnits="userSpaceOnUse" x="69" y="260" width="32" height="24">
<path fill-rule="evenodd" clip-rule="evenodd" d="M69 260V284H101V260H69Z" fill="white"/>
</mask>
<g mask="url(#mask1_10151_26493)">
<path d="M82.5996 260.802V270.401H101.8V273.602H82.5996V284.802H79.4004V273.602H68.2002V270.401H79.4004V260.802H82.5996Z" fill="#2E42A5" stroke="#2E42A5" stroke-width="1.6"/>
</g>
</g>
<path d="M107 272H300" stroke="#172057" stroke-width="1.70297"/>
<rect x="68.4" y="492.4" width="33.2" height="25.2" rx="2.2" stroke="#172057" stroke-width="1.2"/>
<mask id="mask2_10151_26493" style="mask-type:luminance" maskUnits="userSpaceOnUse" x="69" y="493" width="32" height="24">
<rect x="69" y="493" width="32" height="24" rx="1.6" fill="white"/>
</mask>
<g mask="url(#mask2_10151_26493)">
<path fill-rule="evenodd" clip-rule="evenodd" d="M69 493V517H101V493H69Z" fill="#F7FCFF"/>
<mask id="mask3_10151_26493" style="mask-type:luminance" maskUnits="userSpaceOnUse" x="69" y="493" width="32" height="24">
<path fill-rule="evenodd" clip-rule="evenodd" d="M69 493V517H101V493H69Z" fill="white"/>
</mask>
<g mask="url(#mask3_10151_26493)">
<path fill-rule="evenodd" clip-rule="evenodd" d="M69 493V501H101V493H69Z" fill="#40A8FF"/>
<path fill-rule="evenodd" clip-rule="evenodd" d="M69 501V509H101V501H69Z" fill="#272727"/>
</g>
</g>
<path d="M107 505H300" stroke="#172057" stroke-width="1.70297"/>
<rect x="68.4" y="592.4" width="33.2" height="25.2" rx="2.2" stroke="#172057" stroke-width="1.2"/>
<mask id="mask4_10151_26493" style="mask-type:luminance" maskUnits="userSpaceOnUse" x="69" y="593" width="32" height="24">
<rect x="69" y="593" width="32" height="24" rx="1.6" fill="white"/>
</mask>
<g mask="url(#mask4_10151_26493)">
<path fill-rule="evenodd" clip-rule="evenodd" d="M69 607.398H101V616.998H69V607.398Z" fill="#C51918"/>
<path fill-rule="evenodd" clip-rule="evenodd" d="M69 602.602H101V608.602H69V602.602Z" fill="#F7FCFF"/>
<path fill-rule="evenodd" clip-rule="evenodd" d="M69 593H101V602.6H69V593Z" fill="#C51918"/>
</g>
<path d="M107 605H300" stroke="#172057" stroke-width="1.70297"/>
</g>
<defs>
<clipPath id="clip0_10151_26493">
<rect width="320" height="690" fill="white"/>
</clipPath>
<clipPath id="clip1_10151_26493">
<rect width="23.8883" height="23.8883" fill="white" transform="translate(130.977 236.727)"/>
</clipPath>
<clipPath id="clip2_10151_26493">
<rect width="23.8883" height="23.8883" fill="white" transform="translate(164.203 235.727)"/>
</clipPath>
<clipPath id="clip3_10151_26493">
<rect width="23.8883" height="23.8883" fill="white" transform="translate(199.422 235.727)"/>
</clipPath>
<clipPath id="clip4_10151_26493">
<rect width="23.8883" height="23.8883" fill="white" transform="translate(130.977 366.992)"/>
</clipPath>
<clipPath id="clip5_10151_26493">
<rect width="23.8883" height="23.8883" fill="white" transform="translate(164.203 365.992)"/>
</clipPath>
<clipPath id="clip6_10151_26493">
<rect width="23.8883" height="23.8883" fill="white" transform="translate(201.414 366.992)"/>
</clipPath>
<clipPath id="clip7_10151_26493">
<rect width="23.8883" height="23.8883" fill="white" transform="translate(235 367.266)"/>
</clipPath>
<clipPath id="clip8_10151_26493">
<rect width="23.8883" height="23.8883" fill="white" transform="translate(270.855 366.992)"/>
</clipPath>
<clipPath id="clip9_10151_26493">
<rect width="23.8883" height="23.8883" fill="white" transform="translate(200.418 401.516)"/>
</clipPath>
<clipPath id="clip10_10151_26493">
<rect width="23.8883" height="23.8883" fill="white" transform="translate(270.855 401.516)"/>
</clipPath>
<clipPath id="clip11_10151_26493">
<rect width="23.8883" height="23.8883" fill="white" transform="translate(129.98 436.039)"/>
</clipPath>
<clipPath id="clip12_10151_26493">
<rect width="23.8883" height="23.8883" fill="white" transform="translate(165.199 436.039)"/>
</clipPath>
<clipPath id="clip13_10151_26493">
<rect width="23.8883" height="23.8883" fill="white" transform="translate(200.418 436.039)"/>
</clipPath>
<clipPath id="clip14_10151_26493">
<rect width="23.8883" height="23.8883" fill="white" transform="translate(235.637 436.039)"/>
</clipPath>
<clipPath id="clip15_10151_26493">
<rect width="31.2183" height="30.5239" fill="white" transform="translate(266.875 433.047)"/>
</clipPath>
<clipPath id="clip16_10151_26493">
<rect width="23.8883" height="23.8883" fill="white" transform="translate(270.855 436.039)"/>
</clipPath>
<clipPath id="clip17_10151_26493">
<rect width="31.2183" height="30.5239" fill="white" transform="translate(126 467.57)"/>
</clipPath>
<clipPath id="clip18_10151_26493">
<rect width="23.8883" height="23.8883" fill="white" transform="translate(129.98 470.562)"/>
</clipPath>
<clipPath id="clip19_10151_26493">
<rect width="31.2183" height="30.5239" fill="white" transform="translate(161.219 467.57)"/>
</clipPath>
<clipPath id="clip20_10151_26493">
<rect width="23.8883" height="23.8883" fill="white" transform="translate(165.199 470.562)"/>
</clipPath>
<clipPath id="clip21_10151_26493">
<rect width="28.1112" height="28.1112" fill="white" transform="translate(126 506.391)"/>
</clipPath>
<clipPath id="clip22_10151_26493">
<rect width="28.1112" height="28.1112" fill="white" transform="translate(126 273.391)"/>
</clipPath>
<clipPath id="clip23_10151_26493">
<rect width="28.1112" height="28.1112" fill="white" transform="translate(126 606.391)"/>
</clipPath>
<clipPath id="clip24_10151_26493">
<rect width="23.8883" height="23.8883" fill="white" transform="translate(130.977 569.727)"/>
</clipPath>
<clipPath id="clip25_10151_26493">
<rect width="23.8883" height="23.8883" fill="white" transform="translate(164.203 568.727)"/>
</clipPath>
<clipPath id="clip26_10151_26493">
<rect width="23.8883" height="23.8883" fill="white" transform="translate(201.414 569.727)"/>
</clipPath>
<clipPath id="clip27_10151_26493">
<rect width="23.8883" height="23.8883" fill="white" transform="translate(235 570)"/>
</clipPath>
</defs>
</svg>
