<svg width="236" height="201" viewBox="0 0 236 201" fill="none" xmlns="http://www.w3.org/2000/svg">
<path d="M62.013 138.008C54.5968 138.557 46.9143 138.74 39.8767 136.826C32.839 134.913 26.4603 130.522 24.9743 124.766C23.4882 119.011 28.3529 112.284 35.755 111.595C38.0542 111.384 40.83 111.567 42.1758 110.075C42.7506 109.442 42.8908 108.64 43.1852 107.908C45.1339 102.828 55.0595 101.238 59.3774 105.304C61.4802 102.138 63.7794 98.8875 67.4384 96.7766C71.0974 94.6658 76.5228 94.0185 80.0977 96.2278C83.3782 98.2542 84.1353 101.899 84.0511 105.192C83.967 108.485 83.3362 111.862 84.7661 114.944C89.5046 113.818 96.1918 113.41 97.8741 117.069C98.4629 118.378 98.2946 120.066 99.7526 120.84C100.524 121.248 101.519 121.248 102.444 121.22C107.351 121.037 113.87 121.22 115.132 124.949C115.903 127.229 113.842 129.635 111.178 130.719C108.515 131.803 74.3218 137.094 61.9849 138.008H62.013Z" fill="#C0FFD3"/>
<path d="M148.593 86.8171C161.217 90.5886 174.221 93.1112 187.348 94.3479C195.246 95.0949 203.413 95.3398 210.92 92.7561C218.426 90.1723 225.209 84.2333 226.777 76.4576C228.356 68.6818 223.177 59.5836 215.291 58.653C212.842 58.3591 209.879 58.6162 208.446 56.608C207.834 55.7508 207.675 54.6732 207.368 53.6691C205.287 46.8118 194.732 44.6566 190.128 50.1547C187.887 45.8689 185.45 41.4851 181.544 38.6319C177.638 35.7788 171.87 34.9094 168.062 37.885C164.572 40.6157 163.776 45.5505 163.85 49.9833C163.923 54.4161 164.609 59.0081 163.078 63.1715C158.034 61.653 150.907 61.0898 149.131 66.0491C148.495 67.8124 148.678 70.09 147.135 71.1431C146.315 71.6942 145.25 71.6942 144.27 71.6452C139.042 71.4125 132.111 71.6452 130.764 76.6902C129.944 79.7761 132.135 83.0211 134.964 84.4782C137.793 85.9354 141.111 86.0579 144.307 86.1436" fill="#C0FFD3"/>
<path d="M182.778 82.6421C185.516 92.1195 185.146 101.412 182.895 110.333C180.573 119.537 177.069 128.62 170.435 135.45C164.003 142.072 155.082 145.811 145.531 148.528C135.979 151.245 126.518 152.364 117.527 150.129C108.252 147.826 100.039 142.663 93.1552 136.079C86.4819 129.697 80.0537 122.118 77.3159 112.641C74.5781 103.163 74.7687 93.0572 77.0203 84.1355C79.342 74.9322 84.1292 65.9256 90.7636 59.0955C97.1997 52.4776 105.899 47.1176 115.45 44.401C125.001 41.6844 134.731 43.6717 143.722 45.906C152.997 48.2097 162.424 51.262 169.307 57.8452C175.98 64.2277 180.04 73.1687 182.778 82.6421Z" fill="#40D5FF"/>
<path d="M117.098 74.6292C119.225 74.2802 118.251 78.0389 124.096 80.3443C124.368 80.6348 124.907 81.384 124.884 82.0573C124.855 82.899 124.039 82.0286 121.475 82.7839C118.911 83.5393 116.096 79.2304 114.433 78.3312C112.771 77.432 110.307 75.2416 107.334 75.5617C104.361 75.8819 100.507 64.7967 99.225 65.1744C97.9428 65.552 97.9141 66.3943 97.5774 63.8547C97.2407 61.3151 97.2706 60.4735 95.58 60.4159C93.8895 60.3584 90.2863 54.338 105.35 46.8469C117.402 40.854 135.233 43.2299 142.642 45.1669C141.439 47.3729 138.516 52.0202 136.453 52.9611C133.874 54.1373 132.549 55.7764 130.887 54.8772C129.226 53.978 129.591 55.6757 128.746 55.6469C127.9 55.6182 127.32 60.2328 124.77 60.5673C122.219 60.9018 123.008 62.6139 122.936 64.7177C122.865 66.8215 123.23 68.5198 122.005 67.2142C120.78 65.9085 120.823 64.6458 120.866 63.3833C120.909 62.1209 117.528 62.0066 116.64 63.2395C115.752 64.4724 114.09 63.574 113.259 63.1244C112.428 62.6748 111.117 63.8941 109.412 64.2574C107.707 64.6207 108.86 68.0304 107.563 68.8289C106.266 69.6274 108.15 76.4317 112.126 71.5113C116.102 66.5909 115.465 72.8889 114.591 73.7017C113.717 74.5146 114.97 74.9781 117.098 74.6292Z" fill="#3D866B"/>
<path d="M133.977 126.585L128.297 132.231C124.878 133.369 125.391 130.878 125.476 128.378C125.561 125.878 128.219 122.214 127.825 121.367C127.432 120.519 128.864 115.563 130.752 109.787C132.641 104.012 127.507 105.923 122.996 102.015C118.485 98.1075 121.547 94.8748 120.324 93.585C119.102 92.2953 120.438 90.2487 121.745 89.0419C123.053 87.835 120.987 86.5166 124.516 82.0484C128.046 77.5803 133.007 80.6689 136.802 80.7981C140.597 80.9272 143.843 84.7918 144.672 85.2371C145.501 85.6824 149.704 86.2426 150.87 89.2021C152.036 92.1616 152.5 90.926 157.854 94.8623C163.208 98.7985 159.75 101.184 159.286 102.419C158.821 103.655 154.112 105.58 153.577 108.899C153.042 112.217 148.768 113.74 148.726 114.99C148.683 116.24 140.909 121.398 140.43 123.05C140.047 124.372 135.969 125.957 133.977 126.585Z" fill="#3D866B"/>
<path d="M155.884 156.623C163.531 155.447 167.649 158.976 172.943 161.329C174.119 161.877 181.179 150.152 181.179 148.388C181.179 146.623 173.531 144.858 168.826 143.094C164.12 141.329 167.649 140.153 165.884 138.976C164.473 138.035 163.533 141.03 160.591 142.501C159.415 143.089 157.651 144.261 154.121 145.442C150.592 146.622 150.002 147.211 147.061 147.8C144.12 148.388 146.473 144.858 137.649 143.094C128.826 141.329 133.964 146.251 134.708 146.623C135.884 147.211 137.649 148.78 138.825 150.152L134.12 149.564C132.355 149.76 127.296 149.8 121.179 148.388C115.061 146.976 115.1 149.76 115.884 151.329H111.766C104.237 152.741 107.845 155.447 110.59 156.623C113.139 157.211 119.178 158.506 122.943 158.976C127.649 159.564 136.472 156.623 138.825 157.211C141.178 157.8 148.237 157.8 155.884 156.623Z" fill="#F7DADD"/>
<path d="M63.5266 56.0223C57.056 58.3752 59.4089 58.3752 44.1148 61.9046C37.056 62.4158 36.4677 80.7281 38.2325 81.9046C39.9972 83.081 41.3935 80.4441 52.3501 83.6693C62.3539 86.614 75.2913 83.081 76.4678 82.4928C77.6442 81.9046 78.8244 82.4963 81.7656 75.4375C81.7656 74.261 85.8833 67.7904 87.056 67.1987C89.7338 65.8474 97.056 64.8457 97.056 61.9046C97.056 58.9635 91.7619 60.7281 90.5854 60.7281C89.4089 60.7281 92.9801 57.1718 95.8833 54.8493C98.8245 52.4963 98.2325 51.3163 109.409 51.3163C118.35 51.3163 114.115 46.6104 112.35 46.0222C115.88 44.8457 117.645 43.9114 118.821 43.0811C126.82 37.4336 121.762 34.8455 116.468 36.6105C111.566 37.787 101.056 40.2576 98.2325 40.7282C94.703 41.3164 89.4089 45.434 84.1148 48.3752C78.8207 51.3164 69.9972 53.6693 63.5266 56.0223Z" fill="#F7DADD"/>
<path d="M172.943 161.33C167.649 158.977 163.531 155.448 155.884 156.624C148.237 157.801 141.178 157.801 138.825 157.213C136.472 156.624 127.649 159.566 122.943 158.977C119.178 158.507 113.139 157.213 110.59 156.624" stroke="#172057" stroke-linecap="round"/>
<path d="M118.823 43.0781C117.646 43.9084 115.882 44.8428 112.352 46.0192C114.117 46.6075 118.352 51.3134 109.411 51.3134C98.2344 51.3134 98.8264 52.4934 95.8852 54.8463C92.982 57.1688 89.4108 60.7251 90.5873 60.7251C91.7638 60.7251 97.0579 58.9605 97.0579 61.9017C97.0579 64.8428 89.7357 65.8445 87.0579 67.1957C85.8852 67.7875 81.7675 74.2581 81.7675 75.4345C78.8264 82.4934 77.6461 81.9016 76.4697 82.4898C75.2932 83.0781 62.3558 86.611 52.352 83.6663C41.3954 80.4411 39.9991 83.0781 38.2344 81.9016" stroke="#172057" stroke-linecap="round"/>
</svg>
