<svg width="540" height="513" viewBox="0 0 540 513" fill="none" xmlns="http://www.w3.org/2000/svg">
<mask id="mask0_10012_20868" style="mask-type:luminance" maskUnits="userSpaceOnUse" x="0" y="0" width="540" height="513">
<path d="M540 0H0V512.184H540V0Z" fill="white"/>
</mask>
<g mask="url(#mask0_10012_20868)">
<mask id="mask1_10012_20868" style="mask-type:luminance" maskUnits="userSpaceOnUse" x="0" y="0" width="540" height="513">
<path d="M540 0.00390625H0V512.188H540V0.00390625Z" fill="white"/>
</mask>
<g mask="url(#mask1_10012_20868)">
<path d="M278.482 368.14C380.132 368.14 462.55 285.722 462.55 184.072C462.55 82.4225 380.132 0.00390625 278.482 0.00390625C176.833 0.00390625 94.4141 82.4225 94.4141 184.072C94.4141 285.722 176.833 368.14 278.482 368.14Z" fill="#F8DBDD"/>
<g style="mix-blend-mode:multiply">
<mask id="mask2_10012_20868" style="mask-type:luminance" maskUnits="userSpaceOnUse" x="-24" y="122" width="416" height="393">
<path d="M391.912 122.926H-23.7734V514.837H391.912V122.926Z" fill="white"/>
</mask>
<g mask="url(#mask2_10012_20868)">
<path d="M184.068 512.195C285.718 512.195 368.136 429.776 368.136 328.127C368.136 226.477 285.718 144.059 184.068 144.059C82.4185 144.059 0 226.477 0 328.127C0 429.776 82.4185 512.195 184.068 512.195Z" fill="#C8E5CA"/>
</g>
</g>
<g style="mix-blend-mode:multiply">
<mask id="mask3_10012_20868" style="mask-type:luminance" maskUnits="userSpaceOnUse" x="148" y="114" width="416" height="393">
<path d="M563.775 114.922H148.09V506.833H563.775V114.922Z" fill="white"/>
</mask>
<g mask="url(#mask3_10012_20868)">
<path d="M355.931 506.832C457.581 506.832 539.999 424.413 539.999 322.763C539.999 221.114 457.581 138.695 355.931 138.695C254.282 138.695 171.863 221.087 171.863 322.763C171.863 424.439 254.282 506.832 355.931 506.832Z" fill="#00BDF2"/>
</g>
</g>
</g>
<path d="M192.658 317.238V274.715H234.088V283.584H203.106V291.481H233.541V299.804H203.106V308.369H234.088V317.238H192.658ZM265.424 318.21C250.601 318.21 240.943 312.318 241.125 303.388H252.181C252.12 306.243 255.765 309.22 264.513 309.341C272.653 309.402 278.91 308.308 278.91 304.542C278.91 296.28 242.036 305.939 242.036 287.715C242.036 279.028 251.087 273.743 264.513 273.743C278.424 273.743 287.901 279.575 288.022 288.565H276.905C276.966 285.649 273.807 282.673 265.302 282.612C257.952 282.49 252.606 283.645 252.606 287.229C252.606 295.187 289.419 286.378 289.419 304.177C289.419 312.925 279.76 318.21 265.424 318.21ZM320.76 318.21C305.39 318.21 295.124 309.341 295.124 295.977C295.124 282.612 305.39 273.743 320.76 273.743C335.339 273.743 345.848 280.364 346.091 290.266H335.339C335.096 285.042 329.507 282.612 320.76 282.612C311.647 282.612 305.573 287.35 305.573 295.977C305.573 304.542 311.647 309.341 320.76 309.341C328.11 309.341 334.185 306.85 335.582 301.383H314.381V293.911H346.76V317.238H339.956L339.47 308.734C336.007 315.294 328.9 318.21 320.76 318.21Z" fill="white"/>
<path d="M165.367 106.113C164.865 106.905 164.284 107.645 163.597 108.411C162.937 109.15 162.25 109.837 161.59 110.418C160.929 111 160.322 111.475 159.846 111.792L156.174 108.992C156.914 108.596 157.627 108.147 158.314 107.618C159.001 107.09 159.608 106.562 160.19 105.98C160.744 105.399 161.246 104.792 161.642 104.184C162.039 103.577 162.303 102.995 162.435 102.467C162.593 101.912 162.567 101.41 162.435 100.961C162.303 100.512 161.959 100.116 161.484 99.7991C160.982 99.4821 160.48 99.3764 159.952 99.4821C159.424 99.5878 158.842 99.8784 158.208 100.327C157.574 100.777 156.861 101.331 156.095 102.018C155.012 102.943 153.982 103.682 153.004 104.211C152.027 104.739 151.05 105.003 150.046 104.977C149.068 104.977 148.012 104.58 146.902 103.867C145.793 103.154 144.947 102.256 144.446 101.226C143.917 100.195 143.732 99.033 143.891 97.7386C144.049 96.4442 144.63 95.0442 145.581 93.5385C145.951 92.9573 146.374 92.3761 146.849 91.8214C147.298 91.2667 147.774 90.7648 148.276 90.2893C148.751 89.8138 149.227 89.3911 149.702 88.9949C150.178 88.625 150.627 88.3081 151.023 88.0703L154.669 90.8968C153.955 91.2403 153.269 91.6365 152.635 92.0856C152.001 92.5347 151.419 93.0101 150.918 93.5385C150.416 94.0404 149.993 94.5423 149.702 95.0178C149.359 95.5725 149.121 96.1008 148.989 96.6292C148.857 97.1575 148.857 97.6594 148.989 98.1085C149.095 98.5575 149.385 98.9274 149.834 99.218C150.284 99.5085 150.706 99.6142 151.182 99.5614C151.631 99.5085 152.133 99.2972 152.687 98.9274C153.242 98.5575 153.903 98.0556 154.669 97.3952C156.095 96.1801 157.337 95.2819 158.42 94.7272C159.476 94.1725 160.48 93.9347 161.405 94.014C162.329 94.0932 163.307 94.463 164.363 95.1234C165.526 95.8895 166.397 96.7877 166.926 97.8443C167.454 98.901 167.639 100.143 167.401 101.516C167.19 102.89 166.529 104.448 165.42 106.139L165.367 106.113Z" fill="#00BDF2"/>
<path d="M178.577 88.862C177.203 90.3677 175.803 91.4772 174.324 92.164C172.871 92.8509 171.392 93.1943 169.939 93.1678C168.486 93.1678 167.086 92.8509 165.712 92.2697C164.365 91.6885 163.097 90.8696 161.935 89.8394C160.297 88.3601 159.108 86.7223 158.369 84.8732C157.629 83.024 157.444 81.1221 157.814 79.1408C158.184 77.1596 159.24 75.2048 160.984 73.2764C162.305 71.8236 163.678 70.7405 165.105 70.0537C166.531 69.3669 167.984 69.0234 169.437 69.0234C170.89 69.0234 172.316 69.314 173.69 69.8952C175.064 70.4763 176.358 71.3216 177.573 72.4047C179.237 73.9104 180.453 75.5747 181.166 77.4238C181.879 79.2729 182.037 81.1749 181.641 83.1297C181.245 85.0845 180.215 87.0129 178.551 88.862H178.577ZM175.328 86.0355C176.015 85.2694 176.49 84.4505 176.728 83.6052C176.966 82.7599 176.992 81.9145 176.807 81.0692C176.622 80.2239 176.305 79.405 175.803 78.6125C175.301 77.82 174.694 77.1068 173.954 76.42C173.188 75.7332 172.369 75.1784 171.497 74.7822C170.626 74.3859 169.78 74.1482 168.909 74.0953C168.037 74.0425 167.218 74.1746 166.425 74.4916C165.633 74.8086 164.893 75.3369 164.233 76.0766C163.546 76.8426 163.097 77.6351 162.859 78.4804C162.622 79.3258 162.595 80.1711 162.754 81.0428C162.912 81.8881 163.229 82.7335 163.731 83.5259C164.207 84.3184 164.841 85.0581 165.58 85.7449C166.32 86.4053 167.112 86.96 167.958 87.3563C168.803 87.7525 169.648 87.9903 170.52 88.0695C171.392 88.1488 172.237 88.0167 173.056 87.6997C173.875 87.3827 174.641 86.828 175.354 86.0355H175.328Z" fill="#00BDF2"/>
<path d="M191.783 75.4695C191.017 74.5185 190.278 73.5939 189.564 72.7222C188.851 71.8504 188.032 70.8466 187.16 69.7371L182.855 64.4011C181.93 63.2652 181.111 62.2349 180.371 61.3368C179.632 60.4122 178.866 59.4877 178.1 58.5367L181.956 60.2009L179.632 62.0765C178.707 62.8161 177.888 63.5029 177.175 64.0577C176.462 64.6124 175.775 65.1936 175.115 65.7219L172.262 62.1821L186.923 50.3477L189.776 53.8874C189.142 54.4158 188.455 54.9441 187.742 55.5252C187.028 56.1064 186.209 56.7668 185.258 57.5329L182.934 59.4084L182.141 55.2611C182.907 56.2121 183.674 57.163 184.413 58.0612C185.153 58.9593 185.972 59.9896 186.896 61.1255L191.202 66.4615C192.1 67.571 192.893 68.5484 193.606 69.4466C194.319 70.3447 195.059 71.2429 195.825 72.1939L191.783 75.4695Z" fill="#00BDF2"/>
<path d="M209.562 63.3455C208.77 63.821 207.898 64.2437 206.973 64.6135C206.049 64.9833 205.151 65.2739 204.279 65.5117C203.407 65.7494 202.694 65.9079 202.113 65.9607L200.079 61.8398C200.924 61.8398 201.769 61.7341 202.615 61.5492C203.46 61.3643 204.252 61.1794 205.018 60.8888C205.785 60.6247 206.471 60.3077 207.105 59.9114C207.713 59.5416 208.215 59.1453 208.585 58.7227C208.954 58.3 209.166 57.851 209.245 57.3755C209.324 56.9 209.192 56.4245 208.902 55.9226C208.585 55.4207 208.188 55.1037 207.66 54.9716C207.132 54.8395 206.471 54.8395 205.705 54.9716C204.939 55.1037 204.041 55.2886 203.064 55.5527C201.69 55.8962 200.448 56.1075 199.339 56.1603C198.229 56.2131 197.226 56.0018 196.354 55.5527C195.482 55.1037 194.716 54.3112 194.029 53.1753C193.342 52.0394 192.999 50.8771 192.973 49.7148C192.973 48.5524 193.316 47.4166 194.029 46.3335C194.743 45.2504 195.878 44.2466 197.411 43.322C198.018 42.9522 198.626 42.6352 199.286 42.3446C199.947 42.0541 200.607 41.7899 201.241 41.5786C201.875 41.3672 202.509 41.1823 203.09 41.0502C203.671 40.9182 204.2 40.8389 204.675 40.8125L206.683 44.9598C205.89 44.9598 205.098 44.9863 204.332 45.1183C203.566 45.2504 202.826 45.4353 202.165 45.6467C201.479 45.8844 200.898 46.1486 200.396 46.4392C199.841 46.7561 199.392 47.1524 199.048 47.575C198.705 47.9977 198.467 48.4204 198.388 48.8959C198.282 49.3449 198.388 49.794 198.652 50.2695C198.916 50.7186 199.26 51.0092 199.709 51.1677C200.158 51.3262 200.686 51.3526 201.347 51.2733C202.007 51.1941 202.826 51.0356 203.803 50.7714C205.626 50.3223 207.132 50.0582 208.347 50.0318C209.536 50.0053 210.539 50.2167 211.332 50.7186C212.124 51.1941 212.838 51.9601 213.472 53.0432C214.185 54.2319 214.555 55.4471 214.555 56.6358C214.555 57.8245 214.158 58.9869 213.366 60.1492C212.573 61.3115 211.279 62.3945 209.536 63.4248L209.562 63.3455Z" fill="#00BDF2"/>
<path d="M219.311 57.5656C218.809 56.4561 218.307 55.3995 217.831 54.3692C217.356 53.339 216.801 52.1767 216.22 50.8823L212.997 43.9348C212.39 42.614 211.835 41.4253 211.333 40.3686C210.831 39.312 210.329 38.2025 209.801 37.093L214.635 34.8477C215.163 35.9571 215.665 37.0666 216.167 38.1233C216.669 39.1799 217.224 40.3686 217.831 41.6895L221.054 48.6369C221.662 49.9313 222.19 51.0672 222.665 52.1239C223.141 53.1541 223.643 54.2372 224.145 55.3202L219.311 57.5656Z" fill="#00BDF2"/>
<path d="M226.152 53.9904C226.152 52.7224 226.152 51.3752 226.152 49.9487C226.152 48.5486 226.152 47.2014 226.152 45.9334V37.7708C226.152 36.2915 226.152 34.9707 226.152 33.782C226.152 32.5932 226.152 31.4045 226.152 30.2158L232.545 28.1289C233.285 29.1327 233.998 30.1101 234.685 31.0611C235.372 32.0121 236.164 33.0687 237.009 34.2311L241.844 40.8087C242.636 41.8653 243.429 42.9484 244.247 44.0843C245.066 45.1938 245.859 46.2768 246.598 47.3071L241.474 48.9977C240.787 47.9675 240.047 46.8844 239.334 45.8013C238.594 44.7183 237.908 43.6881 237.221 42.7107L230.881 33.3329L230.511 33.4386L230.907 44.6654C230.96 45.8806 230.987 47.175 231.039 48.4958C231.092 49.843 231.119 51.111 231.171 52.3526L226.205 53.9904H226.152ZM229.877 47.809L229.19 43.9258L238.779 40.7823L240.417 44.3485L229.877 47.809Z" fill="#00BDF2"/>
<path d="M247.097 47.1549C247.308 45.8869 247.519 44.5661 247.757 43.166C247.995 41.766 248.206 40.4451 248.391 39.2036L249.712 31.1466C249.95 29.6938 250.161 28.3729 250.346 27.2106C250.531 26.0483 250.716 24.8596 250.927 23.6709L257.558 22.6406C258.112 23.7501 258.667 24.8332 259.195 25.8898C259.724 26.9465 260.331 28.1088 260.992 29.4032L264.664 36.694C265.271 37.8564 265.879 39.0715 266.513 40.3131C267.147 41.5546 267.728 42.7434 268.309 43.8793L262.973 44.6982C262.445 43.5623 261.916 42.3999 261.361 41.2112C260.807 40.0225 260.278 38.8866 259.803 37.8299L255.074 27.554L254.705 27.6069L253.252 38.7281C253.093 39.9432 252.935 41.2112 252.75 42.532C252.565 43.8528 252.406 45.1472 252.248 46.3624L247.07 47.1549H247.097ZM251.746 41.6603L251.693 37.7243L261.678 36.1657L262.709 39.9432L251.746 41.6339V41.6603Z" fill="#00BDF2"/>
<path d="M270.504 44.0362C270.504 42.8211 270.477 41.6323 270.451 40.4964C270.424 39.3605 270.424 38.0661 270.398 36.6661L270.266 29.0054C270.266 27.5525 270.213 26.2317 270.213 25.0694C270.213 23.907 270.187 22.6919 270.16 21.4503L275.364 21.3711C275.364 22.6127 275.417 23.8014 275.417 24.9901C275.417 26.1524 275.47 27.4732 275.47 28.9261L275.575 35.7679C275.575 37.1944 275.628 38.4624 275.628 39.5983C275.628 40.7342 275.655 41.9229 275.681 43.138L273.806 39.4662L278.217 39.3869C279.3 39.3869 280.278 39.3605 281.096 39.3341C281.942 39.3341 282.708 39.3341 283.421 39.3077C284.134 39.3077 284.874 39.3077 285.614 39.2813L285.693 43.8249L270.451 44.0626L270.504 44.0362Z" fill="#00BDF2"/>
<path d="M288.098 43.9019C288.256 42.6867 288.441 41.5244 288.6 40.4149C288.758 39.3054 288.943 38.0111 289.128 36.611L290.211 29.0031C290.422 27.5502 290.607 26.2558 290.766 25.0935C290.924 23.9312 291.109 22.7425 291.268 21.5273L295.785 22.1613C296.604 23.8256 297.396 25.4105 298.136 26.8898C298.875 28.3691 299.615 29.8749 300.355 31.3542L303.261 37.1393L303.63 37.1922L304.502 31.0108C304.713 29.5579 304.898 28.2635 305.057 27.1012C305.215 25.9389 305.4 24.7501 305.559 23.535L310.393 24.2218C310.208 25.4369 310.05 26.6521 309.891 27.788C309.733 28.9239 309.548 30.2447 309.336 31.6976L308.253 39.3054C308.042 40.7055 307.883 41.9735 307.725 43.1094C307.566 44.2453 307.408 45.4076 307.223 46.6227L302.759 45.9887C302.072 44.6151 301.359 43.1622 300.619 41.6829C299.879 40.1772 299.06 38.5658 298.162 36.7959L295.23 30.9315L294.86 30.8787L293.962 37.2978C293.751 38.6979 293.592 39.9659 293.434 41.1018C293.275 42.2376 293.117 43.4 292.932 44.6151L288.098 43.9283V43.9019Z" fill="#00BDF2"/>
<path d="M310.761 47.5763C311.104 46.414 311.448 45.2781 311.791 44.195C312.108 43.1119 312.478 41.8968 312.901 40.5232L315.119 33.1794C315.542 31.7794 315.912 30.5378 316.255 29.4019C316.599 28.2924 316.942 27.1301 317.312 25.9414L331.682 30.3001L330.441 34.3682C329.516 34.0776 328.512 33.787 327.456 33.47C326.399 33.153 325.131 32.7832 323.705 32.3341L318.58 30.802L321.961 28.2396C321.591 29.4283 321.248 30.5642 320.905 31.7001C320.561 32.8096 320.191 34.0776 319.769 35.4777L318.025 41.2364C317.603 42.5836 317.233 43.8252 316.916 44.9082C316.599 45.9913 316.255 47.1272 315.886 48.2895L314.802 44.3799L319.954 45.9385C321.169 46.3083 322.305 46.6517 323.361 46.9687C324.444 47.2857 325.475 47.6027 326.452 47.9197L325.21 51.9878L310.734 47.6027L310.761 47.5763ZM317.233 39.7307L318.395 35.9267L322.358 37.1155C323.705 37.5117 324.841 37.8551 325.792 38.1457C326.743 38.4363 327.667 38.7004 328.565 38.991L327.403 42.7949C326.478 42.5044 325.527 42.2402 324.576 41.9496C323.625 41.659 322.49 41.3156 321.222 40.9458L317.259 39.7571L317.233 39.7307Z" fill="#00BDF2"/>
<path d="M332.926 54.5466C333.639 53.5956 334.352 52.6446 335.065 51.6936C335.779 50.7426 336.545 49.686 337.364 48.5765L341.907 42.4479C342.726 41.3385 343.519 40.3082 344.232 39.3308C344.972 38.3534 345.711 37.3232 346.477 36.293L351.074 38.8818C350.889 40.2554 350.704 41.5762 350.519 42.8178C350.334 44.0593 350.149 45.3009 349.991 46.5425L348.934 53.8862L349.251 54.0711L354.93 49.3426C355.881 48.5501 356.859 47.7576 357.783 46.9651C358.734 46.1726 359.738 45.3273 360.821 44.4027L365.365 46.9651C364.889 48.1538 364.414 49.3162 363.938 50.4256C363.463 51.5615 362.987 52.7767 362.459 54.0711L359.553 61.177C359.025 62.445 358.549 63.6337 358.1 64.7168C357.651 65.7999 357.202 66.9093 356.753 68.0188L352.447 65.5885C353.055 64.1092 353.636 62.7092 354.191 61.3884C354.746 60.0676 355.247 58.826 355.723 57.6637L357.783 52.671L357.466 52.5125L352.923 56.5542C351.813 57.558 350.704 58.5354 349.594 59.5128C348.485 60.4902 347.455 61.4148 346.504 62.2601L343.492 60.5695C343.624 59.7241 343.756 58.826 343.915 57.875C344.073 56.924 344.206 55.9466 344.364 54.9428C344.523 53.939 344.655 52.9616 344.813 52.0106L345.738 45.9085L345.447 45.7236L342.251 50.0294C341.511 51.0596 340.692 52.1427 339.847 53.305C339.001 54.4673 338.077 55.6825 337.152 56.9769L332.926 54.573V54.5466Z" fill="#00BDF2"/>
<path d="M366.366 76.9496C364.834 75.6287 363.698 74.2287 362.959 72.7758C362.246 71.3229 361.876 69.87 361.849 68.4171C361.823 66.9642 362.113 65.5378 362.668 64.1641C363.223 62.7905 364.015 61.5225 365.019 60.3338C366.446 58.6695 368.084 57.4544 369.906 56.6619C371.729 55.8958 373.631 55.6581 375.639 56.0015C377.646 56.3449 379.601 57.3487 381.556 59.0394C383.035 60.3338 384.145 61.681 384.858 63.081C385.571 64.4811 385.941 65.934 385.994 67.3869C386.02 68.8398 385.782 70.2663 385.228 71.6663C384.673 73.0664 383.854 74.3608 382.797 75.6023C381.318 77.3194 379.68 78.5345 377.858 79.3006C376.035 80.0667 374.133 80.2516 372.152 79.9082C370.17 79.5648 368.242 78.5609 366.34 76.9496H366.366ZM369.114 73.6475C369.906 74.3343 370.725 74.7834 371.57 74.9948C372.416 75.2061 373.261 75.2061 374.106 75.0212C374.952 74.8363 375.771 74.4928 376.537 73.9645C377.303 73.4362 378.042 72.8286 378.676 72.0626C379.363 71.2701 379.892 70.4512 380.261 69.5794C380.631 68.7077 380.843 67.836 380.895 66.9906C380.922 66.1189 380.79 65.3 380.446 64.5075C380.103 63.715 379.575 63.0018 378.809 62.3414C378.042 61.681 377.224 61.2319 376.378 61.0206C375.533 60.8093 374.661 60.7828 373.816 60.9678C372.971 61.1527 372.152 61.4961 371.359 61.998C370.567 62.4999 369.827 63.1339 369.193 63.9C368.533 64.666 368.031 65.4585 367.634 66.3038C367.238 67.1491 367.027 68.0209 366.974 68.8662C366.921 69.7379 367.053 70.5833 367.397 71.3757C367.74 72.1946 368.295 72.9343 369.114 73.6211V73.6475ZM384.567 59.9375C384.065 59.5149 383.722 59.0394 383.484 58.5375C383.273 58.0356 383.114 57.5336 383.035 57.0317C382.956 56.5298 382.877 56.0808 382.797 55.6845C382.718 55.2883 382.56 54.9977 382.348 54.8128C381.978 54.4958 381.582 54.4165 381.186 54.5486C380.79 54.6807 380.367 54.9184 379.997 55.2619L378.122 53.6505C379.231 52.3825 380.314 51.6164 381.371 51.3523C382.454 51.0881 383.379 51.2994 384.197 51.9862C384.673 52.4089 385.043 52.858 385.228 53.3599C385.439 53.8618 385.571 54.3637 385.624 54.8392C385.677 55.3147 385.756 55.7638 385.835 56.16C385.914 56.5562 386.073 56.8468 386.311 57.0582C386.681 57.3751 387.05 57.4544 387.447 57.2959C387.843 57.1374 388.213 56.8997 388.609 56.5298L390.485 58.1412C389.375 59.4092 388.318 60.2017 387.262 60.4923C386.205 60.7828 385.307 60.5979 384.514 59.9111L384.567 59.9375Z" fill="#00BDF2"/>
<path d="M371.941 88.2339C372.865 88.1547 373.737 87.9962 374.556 87.7584C375.375 87.5207 376.141 87.1773 376.907 86.7546C377.673 86.3319 378.412 85.7772 379.126 85.1168L384.752 80.0449L388.451 76.7164C389.534 75.739 390.511 74.8673 391.383 74.0748C392.255 73.2823 393.153 72.4898 394.077 71.6445L397.564 75.5277C396.64 76.3466 395.741 77.1655 394.87 77.9316C393.998 78.6977 393.021 79.5958 391.938 80.5732L388.53 83.6375C387.447 84.6149 386.39 85.5395 385.36 86.4904C384.33 87.4414 383.326 88.3131 382.375 89.1849C381.714 89.766 381.081 90.2415 380.447 90.6114C379.813 90.9812 379.205 91.2718 378.597 91.4567C377.99 91.6416 377.435 91.7737 376.854 91.8265C376.299 91.8793 375.744 91.8793 375.19 91.8265L371.914 88.1811L371.941 88.2339Z" fill="#00BDF2"/>
<path d="M388.584 101.436C387.263 99.5601 386.497 97.8166 386.286 96.258C386.075 94.6995 386.365 93.2466 387.105 91.9522C387.871 90.6314 388.98 89.4426 390.513 88.386C390.856 88.1482 391.305 87.8313 391.86 87.435C392.415 87.0388 393.022 86.6161 393.709 86.1406C394.396 85.6651 395.056 85.1896 395.717 84.7141C396.905 83.8688 397.988 83.1028 398.939 82.4423C399.89 81.7555 400.894 81.0687 401.898 80.3555L404.883 84.6085C403.879 85.3217 402.902 86.0085 401.924 86.6954C400.973 87.3822 399.89 88.1218 398.702 88.9672L393.735 92.4541C392.864 93.0881 392.177 93.7221 391.728 94.4089C391.279 95.0957 391.067 95.8089 391.12 96.5486C391.147 97.3147 391.464 98.1072 392.071 98.9261C392.679 99.7714 393.313 100.326 394 100.617C394.686 100.907 395.426 100.934 396.219 100.722C397.011 100.511 397.83 100.088 398.728 99.4544L403.668 95.9675C404.857 95.1221 405.94 94.3561 406.891 93.6957C407.842 93.0088 408.845 92.322 409.849 91.6088L412.834 95.8618C411.83 96.575 410.853 97.2618 409.876 97.9487C408.925 98.6355 407.842 99.3751 406.653 100.22C405.992 100.696 405.306 101.171 404.619 101.647C403.932 102.122 403.324 102.571 402.77 102.968C402.215 103.364 401.766 103.681 401.449 103.892C399.917 104.975 398.411 105.636 396.932 105.874C395.426 106.111 393.973 105.874 392.573 105.16C391.173 104.447 389.826 103.205 388.558 101.409L388.584 101.436Z" fill="#00BDF2"/>
</g>
<path d="M426.092 474.452C426.171 473.475 426.144 472.524 426.039 471.599C425.907 470.675 425.695 469.777 425.378 468.879C425.061 468.007 424.665 467.109 424.163 466.237L419.805 458.656L417.586 454.799C416.793 453.425 416.08 452.184 415.472 451.101C414.865 450.017 414.204 448.908 413.57 447.772L419.646 444.285C420.306 445.421 420.94 446.531 421.548 447.614C422.182 448.697 422.869 449.938 423.661 451.312L425.775 454.984C426.593 456.41 427.386 457.784 428.152 459.131C428.918 460.478 429.684 461.799 430.397 463.067C430.873 463.886 431.243 464.678 431.507 465.418C431.771 466.158 431.956 466.871 432.009 467.558C432.088 468.245 432.088 468.879 432.009 469.486C431.93 470.094 431.824 470.675 431.639 471.256L426.065 474.452H426.092Z" fill="#F8DBDD"/>
<path d="M446.062 456.101C444.001 457.659 442.126 458.584 440.409 458.875C438.692 459.165 437.107 458.927 435.654 458.161C434.201 457.395 432.854 456.18 431.638 454.542C431.374 454.225 431.057 453.75 430.608 453.195C430.186 452.64 429.71 452.006 429.182 451.32C428.653 450.633 428.152 449.946 427.65 449.286C426.699 448.018 425.827 446.882 425.087 445.878C424.348 444.874 423.555 443.87 422.789 442.814L428.363 438.613C429.155 439.67 429.921 440.674 430.661 441.678C431.427 442.681 432.272 443.817 433.223 445.085L437.027 450.104C437.609 450.897 438.216 451.478 438.85 451.874C439.458 452.271 440.092 452.455 440.726 452.403C441.36 452.35 441.994 452.086 442.654 451.61C443.314 451.108 443.764 450.553 443.975 449.972C444.186 449.391 444.16 448.757 443.948 448.07C443.711 447.384 443.314 446.644 442.707 445.851L438.929 440.832C437.978 439.564 437.107 438.428 436.367 437.425C435.627 436.421 434.835 435.417 434.069 434.36L439.643 430.16C440.435 431.217 441.201 432.221 441.941 433.224C442.68 434.228 443.552 435.364 444.503 436.632C445.005 437.293 445.533 437.979 446.062 438.693C446.59 439.406 447.066 440.04 447.515 440.595C447.964 441.176 448.281 441.625 448.518 441.915C449.76 443.553 450.526 445.191 450.843 446.829C451.16 448.467 450.922 450.052 450.183 451.61C449.443 453.169 448.096 454.701 446.141 456.154L446.062 456.101Z" fill="#F8DBDD"/>
<path d="M459.747 444.365C458.822 443.494 457.897 442.648 457.026 441.829C456.154 441.011 455.15 440.086 454.041 439.029L447.991 433.403C446.829 432.32 445.799 431.342 444.874 430.497C443.95 429.652 443.025 428.78 442.074 427.882L446.856 422.757C447.807 423.655 448.758 424.527 449.656 425.372C450.58 426.217 451.61 427.195 452.773 428.278L458.796 433.905C459.905 434.935 460.909 435.886 461.781 436.705C462.652 437.524 463.551 438.369 464.502 439.241L459.72 444.365H459.747ZM469.626 433.773C468.702 432.901 467.777 432.055 466.905 431.237C466.034 430.418 465.03 429.493 463.92 428.436L457.897 422.81C456.735 421.727 455.705 420.749 454.78 419.904C453.856 419.059 452.931 418.187 451.98 417.289L456.762 412.164C457.713 413.062 458.664 413.934 459.562 414.779C460.46 415.625 461.517 416.602 462.679 417.685L468.702 423.312C469.811 424.342 470.815 425.293 471.687 426.112C472.558 426.931 473.483 427.776 474.408 428.648L469.626 433.773ZM456.524 434.274L452.297 430.338L459.932 422.149L464.158 426.085L456.524 434.274Z" fill="#F8DBDD"/>
<path d="M481.937 418.108C480.88 417.395 479.85 416.708 478.846 416.048C477.842 415.388 476.706 414.621 475.438 413.776L469.495 409.84C468.174 408.968 466.985 408.176 465.955 407.489C464.925 406.802 463.842 406.089 462.759 405.376L468.306 405.931L466.431 408.757C465.744 409.787 465.163 410.685 464.634 411.478C464.106 412.27 463.63 413.01 463.155 413.723L458.109 410.395L469.389 393.383L474.435 396.738C473.959 397.451 473.484 398.191 472.955 398.983C472.427 399.776 471.846 400.674 471.159 401.704L469.283 404.53L466.615 399.643C467.698 400.357 468.782 401.07 469.812 401.757C470.842 402.444 472.031 403.236 473.352 404.108L479.295 408.044C480.563 408.889 481.699 409.655 482.703 410.316C483.707 410.976 484.737 411.663 485.794 412.376L481.937 418.188V418.108Z" fill="#F8DBDD"/>
<path d="M491.867 401.889C490.731 401.308 489.622 400.754 488.539 400.225C487.456 399.67 486.241 399.063 484.893 398.376L477.523 394.651C476.097 393.938 474.829 393.278 473.719 392.723C472.61 392.168 471.474 391.587 470.285 390.98L473.508 384.613C474.67 385.194 475.833 385.776 476.942 386.33C478.052 386.885 479.32 387.545 480.746 388.259L488.116 391.983C489.463 392.67 490.678 393.278 491.762 393.833C492.845 394.387 493.928 394.942 495.064 395.523L491.841 401.889H491.867Z" fill="#F8DBDD"/>
<path d="M498.472 389.604C497.336 389.076 496.2 388.548 495.064 388.019C493.902 387.491 492.66 386.91 491.313 386.276L483.863 382.789C482.543 382.155 481.275 381.574 480.059 381.019C478.871 380.464 477.629 379.883 476.414 379.302L478.58 372.592C479.848 372.539 481.063 372.486 482.199 372.434C483.335 372.381 484.471 372.328 485.58 372.275L492.264 371.958L492.396 371.535L487.139 367.494C486.241 366.807 485.369 366.12 484.497 365.46C483.626 364.799 482.648 364.06 481.592 363.241L483.731 356.637C485.052 356.874 486.373 357.112 487.694 357.35C488.988 357.588 490.388 357.852 491.868 358.142L499.977 359.648C501.43 359.939 502.777 360.177 503.993 360.414C505.234 360.626 506.449 360.863 507.691 361.101L505.657 367.415C504.23 367.124 502.883 366.86 501.589 366.622C500.321 366.384 499.106 366.147 497.97 365.935L493.135 365.011L493.003 365.46L497.494 368.55C498.604 369.317 499.713 370.083 500.796 370.822C501.879 371.562 502.883 372.275 503.86 372.936L502.434 377.294C501.642 377.321 500.796 377.347 499.924 377.373C499.053 377.373 498.155 377.426 497.256 377.453C496.358 377.453 495.46 377.506 494.588 377.532L489.041 377.69L488.909 378.14L493.32 380.2C494.377 380.675 495.487 381.204 496.702 381.759C497.89 382.313 499.158 382.894 500.453 383.502L498.472 389.631V389.604Z" fill="#F8DBDD"/>
<path d="M508.433 354.26C507.165 354.049 505.95 353.864 504.761 353.679C503.572 353.494 502.225 353.283 500.719 353.045L492.583 351.751C491.025 351.513 489.625 351.275 488.383 351.09C487.141 350.879 485.9 350.694 484.605 350.483L485.741 343.43C487.036 343.641 488.304 343.826 489.519 344.037C490.76 344.249 492.16 344.46 493.719 344.698L501.855 345.992C503.361 346.23 504.708 346.441 505.897 346.652C507.086 346.837 508.301 347.049 509.569 347.234L508.433 354.287V354.26Z" fill="#F8DBDD"/>
<path d="M510.754 340.212C509.486 340.212 508.244 340.159 507.029 340.132C505.814 340.106 504.467 340.079 502.935 340.053L494.693 339.868C493.108 339.842 491.681 339.815 490.44 339.789C489.198 339.762 487.904 339.736 486.609 339.71L486.741 333.687C488.194 332.762 489.542 331.89 490.783 331.098C492.025 330.305 493.293 329.487 494.561 328.694L499.395 325.603V325.101L495.036 324.996C493.451 324.969 492.025 324.943 490.783 324.917C489.542 324.917 488.247 324.864 486.953 324.837L487.085 318.312C488.406 318.339 489.674 318.365 490.915 318.392C492.157 318.418 493.583 318.445 495.168 318.497L503.41 318.682C504.942 318.709 506.289 318.735 507.505 318.762C508.72 318.762 509.935 318.814 511.229 318.841L511.097 324.811C509.935 325.577 508.693 326.369 507.452 327.188C506.184 328.007 504.81 328.879 503.331 329.83L498.444 333V333.475L503.093 333.581C504.625 333.607 505.972 333.634 507.188 333.66C508.403 333.66 509.644 333.713 510.912 333.74L510.78 340.264L510.754 340.212Z" fill="#F8DBDD"/>
<path d="M510.784 311.837C509.516 311.995 508.274 312.154 507.085 312.312C505.897 312.471 504.549 312.629 503.017 312.84L494.828 313.897C493.27 314.108 491.87 314.267 490.628 314.452C489.387 314.61 488.119 314.769 486.824 314.927L484.711 298.417L490.232 297.704C490.364 298.681 490.496 299.738 490.628 300.847C490.76 301.957 490.945 303.304 491.13 304.836L491.817 310.278L487.036 307.98C488.33 307.821 489.598 307.663 490.839 307.504C492.081 307.346 493.481 307.161 495.066 306.95L501.01 306.184C502.515 305.999 503.889 305.814 505.078 305.655C506.267 305.497 507.508 305.338 508.75 305.18L504.655 308.191L503.942 302.723C503.783 301.455 503.625 300.266 503.466 299.13C503.334 297.995 503.176 296.911 503.044 295.881L508.565 295.168L510.704 311.863L510.784 311.837ZM500.587 307.848L495.568 308.508L495.04 304.282C494.855 302.855 494.696 301.614 494.564 300.583C494.432 299.553 494.3 298.576 494.194 297.625L499.213 296.991C499.345 297.995 499.478 298.998 499.61 300.029C499.742 301.032 499.9 302.248 500.059 303.621L500.613 307.848H500.587Z" fill="#F8DBDD"/>
<path d="M30.4804 314.481C31.7132 313.953 32.8285 313.424 33.9145 312.949C35.0005 312.473 36.0278 311.998 37.0845 311.549L42.2503 309.251L42.4851 307.798L46.9759 308.405L46.7411 309.779L50.1165 312.922C50.909 313.662 51.7014 314.428 52.5233 315.168C53.3158 315.907 54.255 316.753 55.3116 317.73L54.3137 323.674C53.169 322.511 52.0243 321.402 50.9383 320.293C49.8523 319.183 48.7076 318.1 47.5629 316.99L43.307 312.79L45.8605 313.028L39.1684 316.145C38.1411 316.621 37.0258 317.149 35.8517 317.677C34.6777 318.232 33.5036 318.76 32.3883 319.289C31.2729 319.817 30.3043 320.266 29.4531 320.662L30.5098 314.428L30.4804 314.481ZM32.6524 301.616C33.9732 301.801 35.294 301.96 36.5268 302.145C37.7889 302.303 39.1978 302.514 40.7534 302.726L49.1772 303.862C50.7915 304.073 52.2298 304.284 53.5212 304.443C54.8127 304.628 56.1335 304.786 57.4836 304.971L56.6325 310.122C55.2823 309.937 53.9615 309.752 52.67 309.568C51.3786 309.383 49.9404 309.198 48.326 308.986L39.9022 307.85C38.3466 307.639 36.9377 307.454 35.6756 307.269C34.4135 307.084 33.122 306.926 31.8012 306.741L32.6524 301.59V301.616Z" fill="#00BDF2"/>
<path d="M29.2778 326.105C30.6279 326.105 31.9488 326.131 33.2109 326.157C34.473 326.184 35.8818 326.184 37.4668 326.21L45.9787 326.342C47.593 326.342 49.0606 326.395 50.352 326.395C51.6435 326.395 52.9937 326.422 54.3732 326.448L54.109 341.452L49.3834 341.373C49.3834 340.396 49.4128 339.365 49.4421 338.256C49.4715 337.147 49.4715 335.826 49.5009 334.32L49.5889 328.984L53.3752 331.546C51.9957 331.546 50.6749 331.52 49.3541 331.493C48.0626 331.493 46.5951 331.441 44.9807 331.441L38.2886 331.335C36.7037 331.335 35.2948 331.282 34.0327 331.282C32.7706 331.282 31.4498 331.256 30.0996 331.229L33.974 329.116L33.8859 334.478C33.8859 335.746 33.8566 336.935 33.8272 338.045C33.7979 339.154 33.7979 340.237 33.7685 341.294L29.043 341.215L29.3071 326.078L29.2778 326.105ZM39.6388 330.173L44.0709 330.225L43.9828 334.373C43.9828 335.773 43.9241 336.962 43.9241 337.965C43.9241 338.969 43.8947 339.92 43.8654 340.845L39.4333 340.792C39.4333 339.815 39.4627 338.837 39.492 337.833C39.492 336.83 39.5214 335.667 39.5507 334.32L39.6388 330.173Z" fill="#00BDF2"/>
<path d="M30.0995 355.109C29.9821 354.185 29.9234 353.234 29.9528 352.23C29.9821 351.226 30.0702 350.275 30.217 349.404C30.3637 348.532 30.5398 347.792 30.7159 347.237L35.8231 347.026C35.4708 347.819 35.2067 348.611 34.9719 349.456C34.7664 350.275 34.6197 351.094 34.561 351.913C34.5022 352.706 34.5022 353.498 34.6197 354.211C34.7077 354.925 34.9132 355.532 35.1773 356.06C35.4415 356.562 35.7937 356.959 36.2633 357.196C36.7036 357.46 37.2613 357.54 37.907 357.46C38.5527 357.381 39.0811 357.143 39.4333 356.694C39.7855 356.245 40.1084 355.664 40.3138 354.925C40.5486 354.158 40.7247 353.287 40.9008 352.256C41.165 350.856 41.5172 349.641 41.9575 348.611C42.3978 347.581 43.0728 346.735 43.924 346.128C44.7752 345.52 45.9199 345.124 47.3875 344.939C48.8551 344.781 50.1759 344.939 51.3793 345.362C52.5533 345.811 53.5513 346.577 54.3438 347.686C55.1362 348.796 55.6646 350.222 55.8994 351.992C55.9874 352.679 56.0461 353.392 56.0461 354.106C56.0461 354.819 56.0168 355.532 55.9287 356.192C55.87 356.879 55.7526 357.513 55.6352 358.094C55.5178 358.676 55.3417 359.204 55.1656 359.653L50.0291 359.838C50.4107 359.125 50.7042 358.385 50.9096 357.619C51.1151 356.853 51.2619 356.14 51.3499 355.426C51.4086 354.713 51.4086 354.079 51.3499 353.498C51.2619 352.864 51.0858 352.283 50.8216 351.807C50.5574 351.305 50.2052 350.936 49.7943 350.672C49.3834 350.407 48.8551 350.302 48.2974 350.381C47.7397 350.434 47.2701 350.645 46.9179 350.988C46.5656 351.332 46.3015 351.807 46.0667 352.441C45.8612 353.075 45.6558 353.894 45.4797 354.872C45.1274 356.721 44.7165 358.227 44.2175 359.336C43.7186 360.445 43.0435 361.264 42.1923 361.819C41.3411 362.347 40.2258 362.691 38.8756 362.849C37.3493 363.034 35.9698 362.876 34.7371 362.4C33.5043 361.925 32.5064 361.106 31.6845 359.891C30.8627 358.676 30.3344 357.091 30.0408 355.083L30.0995 355.109Z" fill="#00BDF2"/>
<path d="M33.0625 369.642C34.354 369.325 35.6161 369.008 36.8488 368.691C38.0816 368.374 39.4317 368.031 40.958 367.661L49.1764 365.6C50.732 365.204 52.1409 364.861 53.403 364.544C54.6651 364.227 55.9565 363.91 57.2773 363.566L58.833 368.585C57.5122 368.902 56.2207 369.246 54.9586 369.563C53.6965 369.88 52.2876 370.223 50.732 370.62L42.5136 372.68C40.9874 373.05 39.6372 373.393 38.4044 373.71C37.1717 374.027 35.9096 374.318 34.6181 374.661L33.0625 369.642ZM36.9075 382.19C37.7881 381.239 38.5805 380.367 39.3437 379.522C40.1068 378.703 40.8406 377.884 41.6037 377.065L45.2727 373.05L44.8324 371.65L49.2057 370.567L49.6167 371.914L54.1368 373.552C55.2228 373.948 56.2794 374.318 57.3361 374.714C58.3927 375.11 59.6255 375.533 61.0343 376.035L62.8248 381.82C61.2398 381.186 59.7135 380.578 58.2166 379.997C56.6903 379.416 55.1934 378.809 53.6378 378.227L47.8262 375.956L50.2624 375.242L45.5662 380.552C44.8324 381.371 44.0693 382.243 43.2474 383.194C42.4256 384.118 41.6037 385.043 40.8113 385.941C40.0188 386.839 39.3437 387.605 38.7567 388.292L36.8782 382.243L36.9075 382.19Z" fill="#00BDF2"/>
<path d="M41.1641 393.761C42.3968 393.26 43.5709 392.758 44.7449 392.309C45.919 391.859 47.1811 391.305 48.6193 390.724L56.3681 387.554C57.8356 386.946 59.1858 386.418 60.3598 385.916C61.5339 385.44 62.7666 384.938 64.0288 384.41L66.4062 389.139C65.1441 389.641 63.9407 390.142 62.7373 390.644C61.5632 391.12 60.2131 391.675 58.7455 392.282L50.9968 395.452C49.5585 396.033 48.2671 396.562 47.1224 397.037C45.9777 397.513 44.7743 397.988 43.5415 398.49L41.1641 393.761ZM47.1517 405.622C47.8562 404.566 48.5019 403.588 49.1183 402.664C49.7347 401.739 50.3217 400.815 50.9087 399.943L53.8438 395.452L53.1688 394.131L57.3073 392.441L57.953 393.709L62.7079 394.686C63.8233 394.924 64.9386 395.162 66.0833 395.373C67.1987 395.611 68.4902 395.875 69.9871 396.165L72.7461 401.633C71.0731 401.237 69.4587 400.841 67.8738 400.471C66.2888 400.101 64.6745 399.732 63.0602 399.362L56.9551 397.935L59.2445 396.905L55.5169 402.796C54.9298 403.694 54.3135 404.671 53.6677 405.728C52.9927 406.758 52.3763 407.788 51.7305 408.766C51.1142 409.743 50.5565 410.615 50.1162 411.355L47.2104 405.622H47.1517Z" fill="#00BDF2"/>
<path d="M58.835 424.713C57.5729 423.022 56.7804 421.358 56.4575 419.773C56.1346 418.188 56.164 416.682 56.5749 415.282C56.9858 413.882 57.7196 412.588 58.7176 411.426C59.7155 410.263 60.9483 409.233 62.3865 408.388C64.4117 407.173 66.525 406.433 68.7264 406.169C70.9277 405.905 73.0117 406.222 75.0369 407.067C77.0621 407.939 78.8819 409.444 80.4669 411.584C81.6703 413.222 82.4628 414.807 82.7856 416.392C83.1379 417.95 83.1085 419.43 82.6976 420.856C82.2867 422.283 81.5822 423.577 80.5843 424.766C79.5864 425.955 78.3242 427.011 76.798 427.909C74.714 429.151 72.5714 429.891 70.3994 430.128C68.2274 430.366 66.1141 430.049 64.1182 429.177C62.1223 428.306 60.3319 426.826 58.8056 424.739L58.835 424.713ZM62.768 422.283C63.4138 423.154 64.1476 423.815 64.9987 424.238C65.8499 424.66 66.7598 424.898 67.7284 424.951C68.697 425.004 69.6656 424.872 70.6636 424.607C71.6615 424.343 72.6007 423.921 73.5106 423.366C74.4792 422.785 75.3011 422.124 75.9468 421.385C76.6219 420.645 77.0915 419.879 77.385 419.06C77.6785 418.241 77.7666 417.396 77.6492 416.55C77.5318 415.705 77.1502 414.86 76.5632 414.041C75.9468 413.196 75.1837 412.535 74.3618 412.112C73.54 411.69 72.6007 411.426 71.6321 411.373C70.6636 411.32 69.695 411.426 68.697 411.69C67.6991 411.954 66.7305 412.377 65.7912 412.931C64.852 413.486 64.0595 414.12 63.4138 414.833C62.7387 415.547 62.2691 416.313 61.9462 417.132C61.6233 417.95 61.5353 418.796 61.6527 419.667C61.7701 420.539 62.1517 421.411 62.7974 422.309L62.768 422.283Z" fill="#00BDF2"/>
<path d="M71.3086 439.426C72.2772 438.581 73.2458 437.788 74.1557 436.996C75.0656 436.204 76.0929 435.332 77.2376 434.354L83.4013 429.071C84.5754 428.067 85.632 427.169 86.5713 426.35C87.5105 425.531 88.4791 424.713 89.4771 423.867L92.9699 427.169C92.5296 428.992 92.1187 430.735 91.7371 432.347C91.3556 433.958 90.974 435.596 90.5924 437.234L89.1249 443.574L89.4184 443.838L94.4374 439.532C95.6115 438.528 96.6681 437.63 97.6074 436.811C98.5466 435.992 99.5152 435.173 100.513 434.328L104.27 437.868C103.272 438.713 102.304 439.558 101.364 440.351C100.425 441.17 99.3685 442.068 98.1944 443.072L92.0306 448.355C90.8859 449.332 89.8586 450.204 88.9487 450.997C88.0388 451.789 87.0703 452.608 86.1017 453.427L82.6676 450.178C83.0198 448.672 83.4013 447.113 83.7829 445.476C84.1645 443.838 84.5754 442.042 85.0157 440.113L86.5126 433.694L86.2484 433.43L81.0239 437.894C79.8792 438.872 78.8519 439.743 77.942 440.536C77.0321 441.328 76.0635 442.121 75.0949 442.966L71.3673 439.426H71.3086Z" fill="#00BDF2"/>
<path d="M92.6172 458.605C93.439 457.627 94.2022 456.703 94.9653 455.778C95.7284 454.88 96.5796 453.85 97.5189 452.714L102.655 446.585C103.624 445.423 104.504 444.366 105.297 443.442C106.089 442.491 106.882 441.54 107.704 440.562C108.496 441.091 109.318 441.646 110.199 442.253C111.079 442.834 111.96 443.442 112.899 444.076C113.838 444.71 114.748 445.344 115.717 445.978C117.243 447.008 118.446 448.144 119.298 449.333C120.149 450.548 120.677 451.789 120.853 453.137C121.029 454.484 120.853 455.831 120.384 457.231C119.885 458.631 119.033 460.058 117.83 461.484C116.773 462.752 115.57 463.809 114.278 464.654C112.987 465.499 111.578 466.054 110.052 466.318C108.526 466.582 106.882 466.477 105.15 466.028C103.389 465.579 101.54 464.68 99.6028 463.333C98.6929 462.726 97.8711 462.145 97.0786 461.616C96.2861 461.088 95.523 460.56 94.8185 460.084C94.0848 459.582 93.3803 459.107 92.6759 458.631L92.6172 458.605ZM100.014 458.42L102.332 459.978C103.771 460.956 105.15 461.484 106.412 461.563C107.674 461.643 108.878 461.352 109.993 460.744C111.109 460.11 112.106 459.265 113.046 458.156C113.75 457.31 114.278 456.491 114.631 455.646C114.983 454.801 115.13 454.008 115.1 453.189C115.071 452.397 114.807 451.604 114.308 450.865C113.838 450.125 113.104 449.412 112.136 448.752L109.582 447.034C109.113 447.589 108.643 448.17 108.144 448.752C107.645 449.333 107.117 449.993 106.5 450.733L103.037 454.88C102.45 455.593 101.922 456.201 101.452 456.782C100.982 457.363 100.513 457.892 100.072 458.446L100.014 458.42Z" fill="#00BDF2"/>
</svg>
