<svg width="451" height="291" viewBox="0 0 451 291" fill="none" xmlns="http://www.w3.org/2000/svg">
<path d="M0 2H450.912" stroke="#D1D3D4" stroke-width="1.55781"/>
<path d="M0 43H450.912" stroke="#D1D3D4" stroke-width="1.55781"/>
<path d="M0 84H450.912" stroke="#D1D3D4" stroke-width="1.55781"/>
<path d="M0 125H450.912" stroke="#D1D3D4" stroke-width="1.55781"/>
<path d="M0 166H450.912" stroke="#D1D3D4" stroke-width="1.55781"/>
<path d="M0 207H450.912" stroke="#D1D3D4" stroke-width="1.55781"/>
<path d="M0 248H450.912" stroke="#D1D3D4" stroke-width="1.55781"/>
<path d="M0 289H450.912" stroke="#F2F4F7" stroke-width="2.22544"/>
<g clip-path="url(#clip0_10058_148397)">
<path d="M16 267.067L118.889 229.403L222 144.103L325 53L437.5 13.5V289H222H118.889H16V267.067Z" fill="#3D876C"/>
<path d="M13 275L119 251.5L326.5 144.5L439.5 120.5" stroke="#00BCF1" stroke-width="6" stroke-linecap="round"/>
<path d="M7 261.5L117 201L221.5 87.5L327 27L434.5 2" stroke="#969696" stroke-width="6" stroke-linecap="round"/>
</g>
<defs>
<clipPath id="clip0_10058_148397">
<rect width="419" height="289" fill="white" transform="translate(16)"/>
</clipPath>
</defs>
</svg>
