<svg width="451" height="" viewBox="0 0 451 362" preserveAspectRatio="none" fill="none" xmlns="http://www.w3.org/2000/svg">
<path d="M0 73H450.912" stroke="#D1D3D4" stroke-width="1.55781"/>
<path d="M0 114H450.912" stroke="#D1D3D4" stroke-width="1.55781"/>
<path d="M0 155H450.912" stroke="#D1D3D4" stroke-width="1.55781"/>
<path d="M0 196H450.912" stroke="#D1D3D4" stroke-width="1.55781"/>
<path d="M0 237H450.912" stroke="#D1D3D4" stroke-width="1.55781"/>
<path d="M0 278H450.912" stroke="#D1D3D4" stroke-width="1.55781"/>
<path d="M0 319H450.912" stroke="#D1D3D4" stroke-width="1.55781"/>
<path d="M0 360H450.912" stroke="#F2F4F7" stroke-width="2.22544"/>
<g clip-path="url(#clip0_10058_148397)">
<path d="M15.8086 337.776L155.461 300.166L295.414 214.988L435.216 124.016V359.677H295.414H155.461H15.8086V337.776Z" fill="#3D876C"/>
<path d="M15.8001 350.024C14.873 350.024 14.0958 348.602 14.014 346.72C13.9322 344.732 14.6684 343.017 15.6637 342.85L155.303 320.384L295.078 269.009L434.867 214.769C435.835 214.392 436.776 215.668 436.966 217.614C437.157 219.559 436.516 221.442 435.548 221.839L295.746 276.1L155.766 327.517L15.9364 350.024C15.9364 350.024 15.841 350.024 15.7864 350.024" fill="#00BDF2"/>
<path d="M15.7975 332.891C14.9658 332.891 14.2159 331.72 14.0387 330.004C13.8342 328.059 14.4613 326.155 15.4293 325.758L154.905 268.296L294.707 154.084C294.803 154 294.912 153.938 295.021 153.896L434.823 95.0119C435.791 94.6144 436.746 95.8486 436.95 97.7939C437.155 99.7393 436.541 101.643 435.56 102.061L295.921 160.882L156.104 275.095C156.009 275.178 155.9 275.241 155.791 275.283L16.1519 332.828C16.0292 332.87 15.9065 332.912 15.7838 332.912" fill="#969696"/>
</g>
<defs>
<clipPath id="clip0_10058_148397">
<rect width="419" height="360" fill="white" transform="translate(16)"/>
</clipPath>
</defs>
</svg>
