<svg width="451" height="254" viewBox="0 0 451 254" fill="none" preserveAspectRatio="none" xmlns="http://www.w3.org/2000/svg">
<path d="M0 6H450.912" stroke="#D1D3D4" stroke-width="1.55781"/>
<path d="M0 47H450.912" stroke="#D1D3D4" stroke-width="1.55781"/>
<path d="M0 88H450.912" stroke="#D1D3D4" stroke-width="1.55781"/>
<path d="M0 129H450.912" stroke="#D1D3D4" stroke-width="1.55781"/>
<path d="M0 170H450.912" stroke="#D1D3D4" stroke-width="1.55781"/>
<path d="M0 211H450.912" stroke="#D1D3D4" stroke-width="1.55781"/>
<path d="M0 252H450.912" stroke="#D1D3D4" stroke-width="2.22544"/>
<rect x="16" y="47" width="16" height="205" fill="#2A5D75"/>
<rect x="56" y="173" width="16" height="79" fill="#377A7D"/>
<rect x="96" y="191" width="16" height="61" fill="#3D866B"/>
<rect x="176" y="194" width="16" height="58" fill="#3D866B"/>
<rect x="216" y="198" width="16" height="54" fill="#3D866B"/>
<rect x="256" y="214" width="16" height="38" fill="#3D866B"/>
<rect x="296" y="228" width="16" height="24" fill="#3D866B"/>
<rect x="336" y="240" width="16" height="12" fill="#3CA57E"/>
<rect x="376" y="245" width="16" height="7" fill="#3CA57E"/>
<rect x="416" y="248" width="16" height="4" fill="#3CA57E"/>
<rect x="136" y="167" width="16" height="85" fill="#377A7D"/>
</svg>
