<svg width="235" height="201" viewBox="0 0 235 201" fill="none" xmlns="http://www.w3.org/2000/svg">
<path d="M204.86 86.3524C202.758 75.955 194.817 65.7476 183.09 62.7334C176.251 60.9731 168.956 61.7836 162.067 63.088C166.36 59.3141 171.654 56.4646 175.82 52.5893C179.987 48.714 183.014 43.281 181.342 38.114C180.43 35.2898 178.189 32.8583 175.517 31.0346C166.5 24.8544 153.101 25.4876 143.362 30.4394C133.623 35.3911 126.999 43.8383 121.959 52.5766C121.528 46.8777 121.047 41.0014 118.084 35.8471C115.12 30.6927 109.003 26.4121 102.431 26.83C98.7706 27.058 95.4399 28.6917 92.6918 30.756C82.2817 38.5192 79.6475 51.3735 77.6339 63.2147C70.4532 59.5927 62.576 55.8314 54.4328 56.7685C47.2141 57.5917 41.0846 62.2395 38.2224 67.9891C35.3603 73.7388 35.4743 80.4255 37.5006 86.5297C40.502 95.6101 47.8727 96.8638 39.8435 104.83C34.1445 110.491 29.0281 115.822 29.5347 123.94C30.2439 135.11 42.0597 141.113 53.4576 140.682C50.2662 147.762 48.8225 155.386 52.8371 162.655C56.763 169.76 65.7547 174.876 74.7591 174.281C82.3577 173.774 89.0064 169.506 93.4263 164.2C97.8461 158.894 100.392 152.6 102.887 146.407C102.431 154.195 108.548 162.566 117.476 163.934C125.48 165.163 133.851 158.894 133.332 152.232C135.611 159.806 144.058 165.935 153.151 166.163C178.1 166.771 173.465 144.165 168.627 130.83C167.082 126.562 163.409 120.306 168.931 117.747C171.553 116.532 178.518 118.976 181.709 118.71C186.952 118.279 192.081 116.392 195.931 113.315C204.176 106.742 206.848 96.0407 204.885 86.3651L204.86 86.3524Z" fill="#00BCF1"/>
<path d="M99.7958 94.312C90.7264 99.9708 102.962 108.883 106.761 108.249C109.22 110.627 115.631 113.966 127.029 131.062C137.525 144.978 148.546 163.736 156.79 165.889C169.784 169.283 183.997 152.557 171.976 139.277C159.301 131.028 150.836 126.472 143.488 119.031C134.839 110.274 130.093 97.6165 121.59 83.3536C120.928 83.1619 117.549 81.2953 115.482 80.2938C107.579 77.6986 102.328 80.3813 104.862 83.5514C100.299 84.6721 100.429 87.3532 102.962 88.6196C98.5292 88.6196 98.5292 93.0456 99.7958 94.312Z" fill="#F7DADD"/>
<path d="M121.25 83.7766C121.727 82.821 122.039 85.5041 127.103 80.2298C131.991 75.1394 136.332 82.5672 134.369 86.0371C134.316 86.1315 134.262 86.222 134.208 86.3087C134.262 86.3088 134.316 86.3101 134.369 86.3127C136.259 86.4046 141.709 88.0771 139.177 92.7999C142.222 93.3861 144.168 98.6256 140.828 100.702C140.73 100.763 140.635 100.821 140.541 100.876C140.637 100.979 140.733 101.093 140.828 101.217C142.571 103.496 140.388 107.704 127.874 115.808C121.364 120.024 116.889 124.722 111.823 129.791C104.858 138.022 86.2774 167.955 81.4279 172.196C71.2919 181.061 39 167.131 57.9989 144.968C66.2275 135.369 92.8478 119.624 97.8944 115.227C101.06 112.694 106.069 107.097 106.759 106.362L121.25 83.7766Z" fill="#F7DADD"/>
<path d="M106.759 106.359L111.133 103.234M101.691 94.3068C106.124 94.3068 109.302 94.1828 115.969 96.7222M103.591 88.6079C106.378 88.3188 113.372 88.7628 120.843 92.3003M106.124 83.5421C109.923 82.9114 116.721 83.9593 122.257 88.3188M121.773 83.3281C122.61 83.5666 128.34 88.7041 122.257 88.3188M122.257 88.3188C123.857 89.6032 125.814 92.1976 120.843 92.3003M120.843 92.3003C123.856 94.9613 123.223 98.1274 115.969 96.7222M115.969 96.7222C119.739 98.0127 124.943 100.997 115.597 102.612C113.915 102.903 112.435 103.104 111.133 103.234M103.591 100.643C103.925 101.067 106.129 103.234 111.133 103.234" stroke="#172057" stroke-linecap="round" stroke-linejoin="round"/>
<path d="M126.386 80.4086C131.273 75.3182 135.884 82.3137 134.366 86.0514C132.672 90.2223 130.745 87.9125 130.818 87.3734C130.977 86.8711 132.854 86.2535 134.366 86.327C136.256 86.4189 141.705 88.0913 139.173 92.8142M139.173 92.8142C137.169 96.5529 135.338 94.3581 135.962 93.3472C136.225 92.6857 138.219 92.6305 139.173 92.8142ZM139.173 92.8142C142.219 93.4004 144.164 98.6398 140.825 100.716C138.153 102.378 137.045 101.709 137.265 100.716C137.779 99.8161 139.43 99.408 140.825 101.231C142.568 103.51 140.384 107.718 127.87 115.823C119.42 121.295 107.389 135.498 103.59 140.564" stroke="#172057" stroke-linecap="round" stroke-linejoin="round"/>
<path d="M122.597 83.3682C124.52 83.1885 125.988 81.4964 126.481 80.6728C123.852 77.2187 120.053 77.8485 117.714 80.6728C117.511 80.8434 120.192 83.5928 122.597 83.3682Z" fill="#F7DADD" stroke="#172057" stroke-linejoin="round"/>
</svg>
