<svg width="478" height="208" viewBox="0 0 478 208" fill="none" xmlns="http://www.w3.org/2000/svg">
<path opacity="0.58" d="M126.053 207.531C48.7485 207.531 0.893066 166.188 0.893066 103.891C0.893066 41.5941 48.7485 0.251554 126.053 0.251554C203.642 0.251554 251.497 41.5941 251.497 103.891C251.497 166.188 203.642 207.531 126.053 207.531ZM126.053 165.055C172.776 165.055 201.376 143.535 201.376 103.891C201.376 64.2476 172.776 42.4436 126.053 42.4436C79.3307 42.4436 50.7307 64.2476 50.7307 103.891C50.7307 143.535 79.3307 165.055 126.053 165.055ZM470.377 203H263.381V173.551C264.514 97.6614 423.088 101.059 423.088 68.7783C423.088 50.0892 404.682 43.5763 363.906 43.5763C330.775 43.5763 284.052 51.505 270.744 57.4515V13.2773C289.149 5.91491 334.74 0.534718 371.551 0.534718C441.211 0.534718 477.173 14.1268 477.173 58.8674C477.173 140.137 340.686 126.545 318.316 160.525H470.377V203Z" fill="url(#paint0_linear_10048_74137)"/>
<defs>
<linearGradient id="paint0_linear_10048_74137" x1="203.47" y1="-9" x2="198.618" y2="151.392" gradientUnits="userSpaceOnUse">
<stop stop-color="white"/>
<stop offset="1" stop-color="white" stop-opacity="0.17"/>
</linearGradient>
</defs>
</svg>
