<svg width="477" height="208" viewBox="0 0 477 208" fill="none" xmlns="http://www.w3.org/2000/svg">
<path opacity="0.58" d="M126.053 207.531C48.7485 207.531 0.893066 166.188 0.893066 103.891C0.893066 41.5941 48.7485 0.251554 126.053 0.251554C203.642 0.251554 251.497 41.5941 251.497 103.891C251.497 166.188 203.642 207.531 126.053 207.531ZM126.053 165.055C172.776 165.055 201.376 143.535 201.376 103.891C201.376 64.2476 172.776 42.4436 126.053 42.4436C79.3307 42.4436 50.7307 64.2476 50.7307 103.891C50.7307 143.535 79.3307 165.055 126.053 165.055ZM362.218 207.531C332.768 207.531 293.125 203 271.604 193.372V147.782C290.01 157.127 329.937 164.772 362.784 164.772C401.861 164.772 427.063 155.994 427.063 138.154C427.063 119.749 408.941 111.537 368.164 111.537C344.378 111.537 316.628 118.333 295.957 127.111L274.153 106.723L285.479 4.78224H468.123V46.9743H322.574L316.062 84.9188C334.184 77.8396 360.519 74.4416 387.703 74.4416C434.992 74.4416 476.901 89.1664 476.901 139.57C476.901 182.895 431.594 207.531 362.218 207.531Z" fill="url(#paint0_linear_10048_74140)"/>
<defs>
<linearGradient id="paint0_linear_10048_74140" x1="203.47" y1="-9" x2="198.618" y2="151.392" gradientUnits="userSpaceOnUse">
<stop stop-color="white"/>
<stop offset="1" stop-color="white" stop-opacity="0.17"/>
</linearGradient>
</defs>
</svg>
