<svg width="486" height="209" viewBox="0 0 486 209" fill="none" xmlns="http://www.w3.org/2000/svg">
<path opacity="0.58" d="M126.053 208.531C48.7485 208.531 0.893066 167.188 0.893066 104.891C0.893066 42.5941 48.7485 1.25155 126.053 1.25155C203.642 1.25155 251.497 42.5941 251.497 104.891C251.497 167.188 203.642 208.531 126.053 208.531ZM126.053 166.055C172.776 166.055 201.376 144.535 201.376 104.891C201.376 65.2476 172.776 43.4436 126.053 43.4436C79.3307 43.4436 50.7307 65.2476 50.7307 104.891C50.7307 144.535 79.3307 166.055 126.053 166.055ZM370.363 208.531C336.1 208.248 296.173 203.717 272.387 194.372V149.349C291.643 158.41 337.233 166.055 365.55 166.055C411.989 166.055 437.757 160.675 437.757 147.933C437.757 130.659 409.157 124.147 317.977 122.164V87.0515C415.954 83.0872 432.094 77.9901 432.094 64.6812C432.094 49.107 400.096 43.1604 365.266 43.1604C337.233 43.1604 291.926 51.6555 272.387 60.4337V15.41C296.173 5.78224 340.914 0.968389 368.098 0.968389C431.528 0.968389 479.383 11.1624 479.383 55.3367C479.383 98.3782 435.209 103.192 394.433 103.475V104.608C432.944 104.608 485.047 109.705 485.047 151.897C485.047 196.638 439.173 208.814 370.363 208.531Z" fill="url(#paint0_linear_10048_74138)"/>
<defs>
<linearGradient id="paint0_linear_10048_74138" x1="206.043" y1="-8" x2="201.249" y2="152.396" gradientUnits="userSpaceOnUse">
<stop stop-color="white"/>
<stop offset="1" stop-color="white" stop-opacity="0.17"/>
</linearGradient>
</defs>
</svg>
