<svg width="418" height="208" viewBox="0 0 418 208" fill="none" xmlns="http://www.w3.org/2000/svg">
<path opacity="0.58" d="M126.053 207.531C48.7485 207.531 0.893066 166.188 0.893066 103.891C0.893066 41.5941 48.7485 0.251554 126.053 0.251554C203.642 0.251554 251.497 41.5941 251.497 103.891C251.497 166.188 203.642 207.531 126.053 207.531ZM126.053 165.055C172.776 165.055 201.376 143.535 201.376 103.891C201.376 64.2476 172.776 42.4436 126.053 42.4436C79.3307 42.4436 50.7307 64.2476 50.7307 103.891C50.7307 143.535 79.3307 165.055 126.053 165.055ZM417.086 203H366.965V46.9743L269.556 108.422V58.8674L383.955 4.78224H417.086V203Z" fill="url(#paint0_linear_10048_74136)"/>
<defs>
<linearGradient id="paint0_linear_10048_74136" x1="182.881" y1="-9" x2="177.515" y2="151.359" gradientUnits="userSpaceOnUse">
<stop stop-color="white"/>
<stop offset="1" stop-color="white" stop-opacity="0.17"/>
</linearGradient>
</defs>
</svg>
