<svg width="204" height="126" viewBox="0 0 204 126" fill="none" xmlns="http://www.w3.org/2000/svg">
<path d="M38.013 102.274C30.5968 102.823 22.9143 103.006 15.8767 101.092C8.83904 99.1782 2.46031 94.7876 0.974279 89.0321C-0.511755 83.2765 4.3529 76.5499 11.755 75.8604C14.0542 75.6493 16.83 75.8323 18.1758 74.3406C18.7506 73.7073 18.8908 72.9052 19.1852 72.1735C21.1339 67.0934 31.0595 65.5032 35.3774 69.5701C37.4802 66.4038 39.7794 63.1531 43.4384 61.0423C47.0974 58.9314 52.5228 58.2841 56.0977 60.4935C59.3782 62.5199 60.1353 66.1646 60.0511 69.4575C59.967 72.7504 59.3362 76.1278 60.7661 79.2096C65.5046 78.0838 72.1918 77.6757 73.8741 81.3345C74.4629 82.6432 74.2946 84.3319 75.7526 85.1059C76.5237 85.514 77.5191 85.514 78.4443 85.4859C83.351 85.3029 89.87 85.4858 91.1317 89.215C91.9027 91.4947 89.8419 93.9011 87.1783 94.9847C84.5146 96.0682 50.3218 101.359 37.9849 102.274H38.013Z" fill="#C0FFD3"/>
<path d="M124.593 51.0827C137.217 54.8543 150.221 57.3768 163.348 58.6136C171.246 59.3605 179.413 59.6054 186.92 57.0217C194.426 54.4379 201.209 48.499 202.777 40.7232C204.356 32.9475 199.177 23.8492 191.291 22.9186C188.842 22.6247 185.879 22.8818 184.446 20.8736C183.834 20.0165 183.675 18.9389 183.368 17.9348C181.287 11.0774 170.732 8.92223 166.128 14.4204C163.887 10.1345 161.45 5.75071 157.544 2.89756C153.638 0.0444109 147.87 -0.825005 144.062 2.1506C140.572 4.88129 139.776 9.81614 139.85 14.2489C139.923 18.6817 140.609 23.2737 139.078 27.4371C134.034 25.9187 126.907 25.3554 125.131 30.3147C124.495 32.078 124.678 34.3557 123.135 35.4088C122.315 35.9598 121.25 35.9598 120.27 35.9108C115.042 35.6782 108.111 35.9108 106.764 40.9559C105.944 44.0417 108.135 47.2867 110.964 48.7439C113.793 50.2011 117.111 50.3235 120.307 50.4092" fill="#C0FFD3"/>
<path d="M158.778 46.9078C161.516 56.3851 161.146 65.6772 158.895 74.5988C156.573 83.8022 153.069 92.8859 146.435 99.716C140.003 106.338 131.082 110.077 121.531 112.794C111.979 115.51 102.518 116.629 93.5268 114.395C84.2518 112.091 76.0385 106.928 69.1552 100.345C62.4819 93.9625 56.0537 86.3837 53.3159 76.9064C50.5781 67.4291 50.7687 57.3228 53.0203 48.4011C55.342 39.1978 60.1292 30.1913 66.7636 23.3611C73.1997 16.7432 81.8991 11.3833 91.4501 8.66663C101.001 5.95001 110.731 7.93731 119.722 10.1716C128.997 12.4753 138.424 15.5277 145.307 22.1108C151.98 28.4934 156.04 37.4343 158.778 46.9078Z" fill="#40D5FF"/>
<path d="M93.0979 38.8948C95.2254 38.5459 94.2513 42.3045 100.096 44.61C100.368 44.9004 100.907 45.6496 100.884 46.3229C100.855 47.1646 100.039 46.2942 97.4753 47.0496C94.9115 47.8049 92.0957 43.496 90.4332 42.5968C88.7708 41.6976 86.3066 39.5072 83.3338 39.8274C80.3611 40.1475 76.5072 29.0623 75.225 29.44C73.9428 29.8177 73.9141 30.6599 73.5774 28.1203C73.2407 25.5807 73.2706 24.7391 71.58 24.6816C69.8895 24.624 66.2863 18.6037 81.3505 11.1125C93.4018 5.11964 111.233 7.49549 118.642 9.43253C117.439 11.6385 114.516 16.2858 112.453 17.2268C109.874 18.4029 108.549 20.042 106.887 19.1428C105.226 18.2436 105.591 19.9413 104.746 19.9125C103.9 19.8838 103.32 24.4984 100.77 24.8329C98.2189 25.1674 99.008 26.8795 98.9364 28.9833C98.8648 31.0871 99.2301 32.7854 98.0052 31.4798C96.7803 30.1742 96.8232 28.9114 96.8662 27.6489C96.9092 26.3865 93.5275 26.2722 92.6399 27.5051C91.7523 28.738 90.0898 27.8396 89.2589 27.39C88.4279 26.9405 87.1171 28.1598 85.4122 28.5231C83.7074 28.8863 84.8595 32.296 83.563 33.0945C82.2665 33.893 84.1505 40.6973 88.126 35.7769C92.1015 30.8565 91.4647 37.1545 90.5908 37.9674C89.7169 38.7802 90.9705 39.2437 93.0979 38.8948Z" fill="#3D866B"/>
<path d="M109.981 90.8504L104.301 96.4967C100.882 97.6349 101.395 95.1432 101.48 92.6434C101.565 90.1436 104.223 86.48 103.829 85.6324C103.436 84.7848 104.868 79.8281 106.756 74.0528C108.645 68.2774 103.511 70.1882 98.9996 66.2807C94.4887 62.3731 97.5508 59.1404 96.3282 57.8507C95.1056 56.5609 96.4417 54.5144 97.7493 53.3075C99.0569 52.1007 96.9909 50.7822 100.52 46.3141C104.05 41.8459 109.011 44.9345 112.806 45.0637C116.601 45.1929 119.847 49.0574 120.676 49.5027C121.505 49.9481 125.708 50.5082 126.874 53.4677C128.04 56.4272 128.504 55.1916 133.858 59.1279C139.212 63.0642 135.754 65.4492 135.29 66.6847C134.825 67.9203 130.116 69.8456 129.581 73.1643C129.046 76.483 124.772 78.006 124.73 79.2559C124.687 80.5058 116.912 85.6638 116.434 87.3159C116.051 88.6377 111.973 90.223 109.981 90.8504Z" fill="#3D866B"/>
<path d="M131.884 120.889C139.531 119.712 143.649 123.242 148.943 125.595C150.119 126.143 157.179 114.418 157.179 112.654C157.179 110.889 149.531 109.124 144.826 107.359C140.12 105.594 143.649 104.418 141.884 103.242C140.473 102.301 139.533 105.296 136.591 106.767C135.415 107.355 133.651 108.527 130.121 109.708C126.592 110.888 126.002 111.477 123.061 112.065C120.12 112.653 122.473 109.124 113.649 107.359C104.826 105.595 109.964 110.516 110.708 110.889C111.884 111.477 113.649 113.045 114.825 114.418L110.12 113.83C108.355 114.026 103.296 114.065 97.1785 112.654C91.0609 111.242 91.1001 114.026 91.8844 115.595H87.7663C80.2369 117.006 83.8447 119.712 86.5898 120.889C89.1388 121.477 95.1781 122.771 98.9428 123.242C103.649 123.83 112.472 120.889 114.825 121.477C117.178 122.065 124.237 122.065 131.884 120.889Z" fill="#F7DADD"/>
<path d="M39.5266 20.2879C33.056 22.6408 35.4089 22.6408 20.1148 26.1703C13.056 26.6814 12.4677 44.9937 14.2325 46.1702C15.9972 47.3467 17.3935 44.7097 28.3501 47.9349C38.3539 50.8796 51.2913 47.3467 52.4678 46.7584C53.6442 46.1702 54.8245 46.762 57.7656 39.7031C57.7656 38.5267 61.8833 32.0561 63.056 31.4643C65.7338 30.1131 73.056 29.1114 73.056 26.1703C73.056 23.2291 67.7619 24.9937 66.5854 24.9937C65.4089 24.9937 68.9801 21.4374 71.8833 19.1149C74.8245 16.762 74.2325 15.582 85.4089 15.582C94.3501 15.582 90.115 10.8761 88.3503 10.2878C91.8797 9.11137 93.6445 8.17703 94.8207 7.34672C102.82 1.69926 97.7622 -0.888841 92.4677 0.876136C87.5658 2.05261 77.056 4.52319 74.2325 4.99378C70.703 5.58202 65.4089 9.69967 60.1148 12.6408C54.8207 15.582 45.9972 17.935 39.5266 20.2879Z" fill="#F7DADD"/>
</svg>
