<svg width="136" height="49" viewBox="0 0 136 49" fill="none" xmlns="http://www.w3.org/2000/svg">
<g clip-path="url(#clip0_9543_5625)">
<path d="M126.48 0.479836C131.466 0.479836 135.52 4.53445 135.52 9.51995V39.4425C135.52 44.428 131.466 48.4827 126.48 48.4827H9.51995C4.53445 48.4827 0.479836 44.428 0.479836 39.4425V9.51995C0.479836 4.53445 4.53445 0.479836 9.51995 0.479836H126.475M126.48 0H9.51995C4.26095 0 0 4.26095 0 9.51995V39.4425C0 44.7015 4.26095 48.9625 9.51995 48.9625H126.475C131.734 48.9625 135.995 44.7015 135.995 39.4425V9.51995C135.995 4.26095 131.734 0 126.475 0H126.48Z" fill="white"/>
<path d="M112.292 9.59791C112.249 9.6123 112.331 9.58351 112.292 9.59791V9.59791Z" fill="white"/>
<path d="M115.751 30.3199H115.722C114.528 30.3199 113.376 30.1424 112.292 29.8161C111.121 29.4082 110.036 28.5973 109.369 27.5801C108.261 25.963 107.258 22.8345 107.215 19.7155V19.7059C107.258 16.5918 108.261 13.4633 109.369 11.8414C110.041 10.8242 111.126 10.0085 112.292 9.60539C113.381 9.2743 114.556 9.10156 115.751 9.10156C116.946 9.10156 118.122 9.2743 119.211 9.60539C120.382 10.0133 121.466 10.829 122.138 11.8414C123.246 13.4633 124.249 16.5918 124.292 19.7059V19.7155C124.249 22.8297 123.246 25.9582 122.138 27.5801C121.466 28.5973 120.358 29.413 119.187 29.8209C118.098 30.152 116.975 30.3247 115.775 30.3247H115.751V30.3199ZM123.63 19.7059C123.668 17.3595 122.953 14.5093 122.267 12.9978C121.504 11.2656 120.338 10.21 118.625 9.74454C117.704 9.50942 116.735 9.38946 115.742 9.38946C114.748 9.38946 113.774 9.50942 112.853 9.74454C111.14 10.2148 109.974 11.2656 109.211 12.9978C108.52 14.5141 107.805 17.3595 107.843 19.7059C107.805 22.0523 108.52 24.9026 109.211 26.4189C109.974 28.1511 111.14 29.2067 112.853 29.6721C113.774 29.9073 114.748 30.032 115.742 30.032C116.74 30.032 117.704 29.9121 118.625 29.6721C120.338 29.2019 121.504 28.1511 122.267 26.4189C122.958 24.9026 123.673 22.0571 123.63 19.7059Z" fill="white"/>
<path d="M116.92 14.8775C116.805 14.6856 116.901 14.8583 116.781 14.6328L116.92 14.8775Z" fill="white"/>
<path d="M116.026 29.4828C116.016 29.051 116.438 28.835 116.702 28.5519C116.774 28.4847 116.803 28.3456 116.75 28.2352C116.722 28.1633 116.674 28.1297 116.616 28.1153C116.525 28.0961 116.448 28.1057 116.386 28.1585C116.304 28.2352 116.28 28.336 116.285 28.4416L115.987 28.4608C115.963 28.2976 116.002 28.1393 116.103 28.0193C116.242 27.8706 116.448 27.8322 116.65 27.8466C116.808 27.8754 116.995 27.9713 117.062 28.1345C117.149 28.3168 117.12 28.5519 116.985 28.7055C116.813 28.8926 116.587 28.9934 116.443 29.1997L117.187 29.1565C117.192 29.2477 117.197 29.3389 117.201 29.4204L116.031 29.4876L116.026 29.4828Z" fill="white"/>
<path d="M113.385 27.6236V27.638L112.901 29.1207L112.589 29.02L112.92 28.0075V27.9883C112.8 27.9451 112.651 27.902 112.531 27.8588L112.594 27.6668C112.747 27.71 112.91 27.734 113.045 27.6236C113.097 27.5853 113.102 27.5757 113.131 27.5469L113.381 27.6284L113.385 27.6236Z" fill="white"/>
<path d="M119.26 28.4416C119.221 28.2977 119.14 28.1777 118.977 28.1345L118.881 28.1153C118.977 28.0481 119.068 27.909 119.034 27.7746C119.01 27.6211 118.9 27.5251 118.761 27.4723C118.636 27.4339 118.497 27.4387 118.363 27.4723C118.223 27.5011 118.099 27.5635 118.007 27.6547C117.912 27.765 117.859 27.9042 117.912 28.0481C117.945 28.1825 118.084 28.2641 118.204 28.2785L118.132 28.3408C118.007 28.456 117.993 28.5999 118.027 28.7439C118.06 28.907 118.195 29.0366 118.353 29.0846C118.473 29.1134 118.617 29.1134 118.761 29.0798C118.905 29.0462 119.034 28.979 119.126 28.8926C119.245 28.7775 119.303 28.5999 119.255 28.4368L119.26 28.4416ZM118.238 28.0193C118.199 27.957 118.199 27.8466 118.267 27.7842C118.305 27.7458 118.358 27.7171 118.42 27.6979C118.478 27.6835 118.545 27.6835 118.598 27.6979C118.684 27.7266 118.732 27.8178 118.732 27.8946C118.732 27.9522 118.708 27.9954 118.67 28.0337C118.631 28.0673 118.578 28.0913 118.521 28.1057C118.463 28.1201 118.411 28.1201 118.363 28.1105C118.31 28.0961 118.271 28.0673 118.243 28.0193H118.238ZM118.89 28.7343C118.852 28.7775 118.78 28.8159 118.703 28.8351C118.626 28.8543 118.55 28.8591 118.492 28.8351C118.415 28.8063 118.363 28.7487 118.343 28.6767C118.315 28.576 118.343 28.4656 118.43 28.408C118.468 28.384 118.521 28.36 118.578 28.3408C118.636 28.3264 118.698 28.3264 118.742 28.3312C118.847 28.3456 118.924 28.4272 118.943 28.528C118.958 28.5999 118.943 28.6767 118.886 28.7343H118.89Z" fill="white"/>
<path d="M115.252 28.997C115.261 28.8483 115.218 28.7091 115.074 28.618L114.988 28.57C115.098 28.5316 115.228 28.4308 115.237 28.2917C115.261 28.1381 115.184 28.0134 115.069 27.9222C114.964 27.8502 114.829 27.8166 114.685 27.807C114.546 27.7974 114.407 27.8166 114.292 27.8742C114.162 27.951 114.071 28.0662 114.081 28.2197C114.071 28.3589 114.186 28.4788 114.292 28.5268L114.201 28.5652C114.047 28.642 113.99 28.7715 113.98 28.9203C113.966 29.0882 114.052 29.2514 114.191 29.3425C114.297 29.4097 114.436 29.4481 114.585 29.4577C114.729 29.4673 114.873 29.4433 114.988 29.3905C115.136 29.3137 115.242 29.165 115.247 28.997H115.252ZM114.407 28.2917C114.388 28.2197 114.422 28.1141 114.508 28.071C114.551 28.0422 114.618 28.0326 114.676 28.0374C114.738 28.0374 114.801 28.0566 114.844 28.0901C114.921 28.1381 114.94 28.2485 114.916 28.3205C114.897 28.378 114.858 28.4116 114.815 28.4356C114.767 28.4548 114.709 28.4644 114.657 28.4596C114.599 28.4596 114.541 28.4452 114.498 28.4164C114.455 28.3876 114.422 28.3493 114.412 28.2917H114.407ZM114.81 29.165C114.757 29.1986 114.681 29.2082 114.604 29.2034C114.527 29.2034 114.45 29.1746 114.402 29.141C114.335 29.0882 114.306 29.0162 114.306 28.9443C114.306 28.8387 114.369 28.7475 114.47 28.7139C114.517 28.6995 114.575 28.6899 114.633 28.6947C114.69 28.6947 114.753 28.7139 114.791 28.7331C114.887 28.7763 114.935 28.8771 114.925 28.9826C114.921 29.0498 114.877 29.1218 114.805 29.1602L114.81 29.165Z" fill="white"/>
<path d="M122.239 13.9507L120.795 14.5745L120.67 14.2722L122.109 13.6484L122.239 13.9507Z" fill="white"/>
<path d="M116.801 11.4608L116.432 9.84375L116.772 9.87734C116.84 10.2804 116.911 10.7314 116.993 11.0721C117.142 10.7554 117.3 10.3236 117.449 9.94931L117.785 9.9829L117.103 11.4944L116.806 11.4656L116.801 11.4608Z" fill="white"/>
<path d="M110.655 12.3839L110.304 13.0125L110.012 12.8445L110.41 12.1248L110.184 12L109.623 13.0077L110.995 13.7754L111.562 12.7629L111.331 12.6382L110.928 13.3579L110.544 13.142L110.899 12.5134L110.655 12.3839Z" fill="white"/>
<path d="M109.822 19.0624C109.745 18.8897 109.563 18.8273 109.376 18.8369C109.217 18.8561 109.097 18.9616 109.03 19.1248C109.006 19.0288 108.915 18.9089 108.766 18.8897C108.608 18.8705 108.459 18.9137 108.383 19.048C108.277 19.1824 108.325 19.763 108.311 20.1037H109.87V19.9885C109.86 19.3695 109.894 19.2927 109.817 19.0624H109.822ZM108.939 19.7726H108.55C108.565 19.4127 108.502 19.2208 108.723 19.1968C108.853 19.1872 108.886 19.216 108.915 19.2975C108.939 19.3791 108.934 19.4607 108.934 19.7726H108.939ZM109.616 19.7726H109.179C109.189 19.4223 109.131 19.216 109.337 19.1776C109.409 19.1584 109.501 19.168 109.553 19.2208C109.644 19.3071 109.616 19.4511 109.616 19.7726Z" fill="white"/>
<path d="M122.25 14.828L122.5 14.7656L122.817 15.994L122.562 16.0564L122.447 15.6005L121.185 15.9268L121.104 15.6101L122.365 15.2838L122.25 14.828Z" fill="white"/>
<path d="M114.322 11.5466C114.495 11.5178 114.663 11.4458 114.773 11.3163C114.869 11.2107 114.879 11.1052 114.865 10.99L114.687 9.86719L114.366 9.91997L114.548 11.0428C114.557 11.1292 114.5 11.2155 114.423 11.2587C114.38 11.2827 114.332 11.3019 114.279 11.3067C114.226 11.3163 114.174 11.3163 114.13 11.3067C114.044 11.2875 113.962 11.2347 113.943 11.1388L113.761 10.0159L113.439 10.0687L113.622 11.1915C113.646 11.3067 113.689 11.3979 113.814 11.4746C113.958 11.561 114.135 11.5802 114.313 11.5514L114.322 11.5466Z" fill="white"/>
<path d="M122.975 17.0529L121.344 16.7266L121.387 17.0433L121.742 17.1104L121.819 17.6718L121.497 17.8302L121.54 18.1517L123.018 17.3887L122.975 17.0529ZM122.068 17.5471L122.016 17.1584L122.692 17.2592L122.068 17.5423V17.5471Z" fill="white"/>
<path d="M122.743 19.7565H122.771L122.805 19.7422L122.834 19.7326C122.939 19.675 122.963 19.5358 122.954 19.4255C122.954 19.3103 122.915 19.1951 122.81 19.152C122.752 19.1376 122.685 19.1328 122.647 19.1903C122.469 19.4543 122.594 20.0109 122.133 20.1068C121.932 20.1404 121.759 20.054 121.653 19.8957C121.509 19.6462 121.5 19.2479 121.663 19.0032C121.759 18.8736 121.893 18.7969 122.052 18.7969L122.071 19.0992C121.975 19.1136 121.874 19.1616 121.831 19.2575C121.764 19.4159 121.778 19.6654 121.898 19.7565C121.941 19.8045 122.037 19.7997 122.09 19.7709C122.272 19.6414 122.234 19.3151 122.325 19.0992C122.354 19.008 122.44 18.912 122.527 18.8641C122.69 18.7969 122.896 18.8209 123.026 18.9456C123.237 19.1424 123.246 19.531 123.146 19.7661C123.088 19.9293 122.915 20.0492 122.728 20.0588L122.709 19.7613H122.728L122.743 19.7565Z" fill="white"/>
<path d="M110.092 17.3793C110.12 17.2018 110.101 17.0243 110.015 16.8803C109.943 16.7555 109.847 16.7124 109.732 16.6884L108.609 16.5156L108.556 16.8323L109.679 17.0099C109.765 17.0243 109.828 17.1106 109.847 17.1922C109.856 17.2402 109.856 17.293 109.847 17.3457C109.842 17.3985 109.823 17.4465 109.799 17.4897C109.756 17.5617 109.679 17.624 109.583 17.6145L108.46 17.4417L108.412 17.7584L109.535 17.9359C109.65 17.9503 109.751 17.9359 109.861 17.84C109.991 17.7296 110.063 17.5665 110.092 17.3889V17.3793Z" fill="white"/>
<path d="M111.833 10.6641L111.545 10.8416L111.89 12.4682L112.169 12.3003L112.087 11.95L112.572 11.6525L112.85 11.8876L113.124 11.7197L111.838 10.6641H111.833ZM112.02 11.6813L111.847 11.0191L112.356 11.4798L112.02 11.6861V11.6813Z" fill="white"/>
<path d="M119.467 11.1706L118.804 10.8923L118.934 10.5804L119.692 10.8971L119.793 10.6572L118.728 10.2109L118.123 11.6648L119.188 12.1063L119.289 11.8664L118.526 11.5497L118.694 11.1418L119.361 11.4249L119.467 11.1706Z" fill="white"/>
<path d="M109.894 14.6545C109.894 14.5489 109.889 14.4578 109.798 14.3714C109.711 14.2802 109.572 14.2418 109.438 14.2514C109.088 14.3042 109.04 14.7073 108.848 15.3407L110.354 15.7917L110.45 15.475L109.855 15.2975L109.831 15.2879C109.87 15.1439 109.932 14.9568 109.961 14.9184C110.066 14.6689 110.465 14.9136 110.623 14.8896L110.714 14.5777C110.446 14.5921 110.086 14.3522 109.894 14.6497V14.6545ZM109.582 15.2159L109.188 15.1007C109.275 14.832 109.313 14.5633 109.5 14.5777C109.577 14.5921 109.63 14.6113 109.673 14.6641C109.745 14.7553 109.654 14.9568 109.582 15.2159Z" fill="white"/>
<path d="M120.88 11.5312L119.633 12.4861L119.83 12.7452L120.324 12.371L120.343 12.3566C120.434 12.4717 120.549 12.6301 120.564 12.6781C120.703 12.9132 120.266 13.0907 120.194 13.2299L120.391 13.489C120.54 13.2635 120.943 13.1147 120.818 12.7836C120.904 12.8508 120.981 12.894 121.106 12.8748C121.231 12.8556 121.341 12.7692 121.413 12.6541C121.576 12.3374 121.279 12.0639 120.88 11.536V11.5312ZM121.111 12.5053C121.053 12.5581 121.01 12.5869 120.938 12.5917C120.818 12.5965 120.712 12.4046 120.549 12.1934L120.876 11.9439C121.044 12.1694 121.24 12.3614 121.116 12.5053H121.111Z" fill="white"/>
<path d="M119.953 13.7476C119.622 12.9942 118.96 12.4376 118.159 12.2073C117.405 12.0058 116.585 11.8906 115.764 11.8906H115.735C114.915 11.8906 114.094 12.0058 113.341 12.2073C112.535 12.4376 111.877 12.9942 111.546 13.7476C110.822 15.2927 110.352 17.5191 110.352 19.7072C110.352 21.8952 110.827 24.1217 111.546 25.6667C111.877 26.4201 112.535 26.9767 113.341 27.207C114.094 27.4085 114.915 27.5237 115.735 27.5237H115.764C116.58 27.5237 117.4 27.4085 118.159 27.207C118.965 26.9767 119.622 26.4201 119.953 25.6667C120.673 24.1217 121.148 21.8952 121.148 19.7072C121.148 17.5191 120.673 15.2927 119.953 13.7476ZM118.562 18.1765C118.562 18.1765 118.686 18.1525 118.691 18.0901V16.7082C118.878 16.665 119.07 16.5978 119.253 16.5594V17.3895C119.363 17.3752 119.416 17.3656 119.55 17.3416V18.4404L119.209 18.4932L119.104 18.9346H117.885L117.703 18.5412C117.405 18.5124 117.386 18.5124 117.088 18.4932C117.367 18.1333 117.655 17.7782 117.847 17.38V16.8185L118.398 16.7466V18.0757C118.398 18.1237 118.466 18.1717 118.533 18.1717H118.562V18.1765ZM117.847 13.0998C117.981 13.0614 118.168 13.0758 118.283 13.1814C118.437 13.2965 118.485 13.4837 118.446 13.6612C118.336 14.0451 117.909 14.1171 117.564 14.2034L117.372 13.9443C117.444 13.6132 117.482 13.2342 117.842 13.095L117.847 13.0998ZM116.781 14.6305L116.921 14.8752L116.575 15.2543C116.479 15.1631 116.474 15.1535 116.378 15.0575C116.556 14.8704 116.575 14.8512 116.781 14.6305ZM112.472 14.1123C112.535 14.2898 112.65 14.4194 112.828 14.5057C112.808 14.4098 112.722 14.3234 112.698 14.2178C112.616 14.0211 112.626 13.738 112.756 13.5653C112.847 13.4309 112.981 13.3733 113.125 13.3253C113.067 13.4885 113.053 13.6852 113.125 13.8484C113.221 13.7764 113.226 13.7716 113.298 13.6996C113.327 13.6756 113.336 13.666 113.36 13.6468C113.494 13.9347 113.648 14.3282 113.557 14.6641L113.504 14.808C113.485 14.5729 113.442 14.4625 113.283 14.3762C113.264 14.5105 113.351 14.6113 113.37 14.7888C113.432 15.0671 113.384 15.3406 113.211 15.499H112.77C112.434 15.1391 112.41 14.5969 112.477 14.1075L112.472 14.1123ZM113.49 15.6813V15.9308H113.255L113.154 16.7754C113.053 16.6842 112.938 16.6218 112.813 16.5786C112.751 16.2187 112.746 16.1948 112.717 15.9308H112.487V15.6813C112.88 15.6813 113.096 15.6813 113.494 15.6813H113.49ZM111.777 19.2849H114.483V20.0718H111.777V19.2849ZM112.823 17.7062C112.938 17.6775 113.043 17.7446 113.13 17.8118C113.115 18.2676 113.115 18.2629 113.106 18.7427H112.856V18.6659C112.847 18.3012 112.828 18.0661 112.823 17.7062ZM112.655 23.2627C112.607 23.2627 112.516 23.2531 112.463 23.2388C112.348 23.21 112.18 23.1476 112.079 22.9892L112.06 22.9509L112.041 22.9029L112.021 22.8501L112.012 22.7685V21.3002C111.997 21.1131 111.93 21.1131 111.781 20.9979L111.834 20.9787L112.429 20.782C112.516 20.8732 112.535 20.9931 112.54 21.1179V22.2647C112.54 22.3415 112.602 22.3846 112.688 22.3846C112.794 22.3846 112.832 22.3463 112.842 22.2647C112.852 21.7513 112.832 21.6073 112.842 21.1371C112.856 20.9787 112.995 20.8252 113.13 20.7868C113.293 20.7052 113.494 20.7388 113.638 20.8108C113.902 20.9355 113.893 21.4538 113.888 21.876C113.782 21.8088 113.768 21.7992 113.662 21.7705C113.571 21.7513 113.471 21.7705 113.399 21.8232C113.312 21.9 113.303 21.9768 113.303 22.1159C113.298 22.6054 113.351 22.9413 113.106 23.1332C112.947 23.2436 112.804 23.2531 112.645 23.2531L112.655 23.2627ZM113.447 24.8558C113.317 24.7694 113.288 24.6879 113.245 24.5679C113.135 24.0689 113.739 23.8865 113.883 23.4739C113.994 22.7781 114.027 22.0488 114.512 21.5065C114.56 20.4893 114.886 19.5872 115.611 18.8435C115.577 18.6131 115.481 18.4116 115.414 18.2005C115.318 18.2005 115.255 18.1813 115.169 18.1045C115.107 18.0133 115.078 17.951 115.064 17.8406C114.809 18.1525 114.497 18.5028 114.152 18.7139C114.089 18.7475 114.008 18.6755 113.893 18.5699C113.471 18.2341 113.399 17.4807 112.756 17.5143C112.463 17.4183 112.477 17.0729 112.429 16.8137C112.54 16.7322 112.712 16.737 112.847 16.7898C113.25 17.0057 113.514 17.4567 113.893 17.759C113.994 17.8406 114.085 17.9462 114.176 17.9845C114.425 17.7686 114.627 17.5863 114.795 17.2552C114.91 17.0681 115.107 16.9865 115.323 16.9817L115.476 16.7993L115.395 16.3483C115.236 16.1468 115.107 15.9404 115.001 15.7149C115.059 15.4558 115.092 15.1583 115.351 15.0144C115.524 14.9088 115.663 15.1487 115.803 14.9952C115.903 14.9712 115.994 15 116.066 15.0623C116.172 15.2447 116.297 15.4318 116.306 15.6429C116.239 15.8493 116.143 16.0412 116.042 16.2379C116.018 16.2811 115.961 16.2955 115.922 16.3243C115.946 16.4107 115.966 16.5114 116.028 16.5786C116.105 16.593 116.177 16.6074 116.273 16.5882C116.35 16.3627 116.594 16.2571 116.796 16.1996L117.242 15.9069C117.17 15.5662 117.391 15.2687 117.266 14.928C117.007 14.808 116.935 14.5201 116.882 14.2898C116.925 14.1507 116.992 13.9971 117.093 13.8819L117.108 13.9011C117.352 14.1842 117.578 14.4817 117.655 14.832C117.698 15.2831 117.741 15.7485 117.712 16.2187C117.468 16.4587 117.18 16.6026 116.901 16.785L116.695 17.1784C116.671 17.5815 116.551 17.9462 116.489 18.3396C116.661 18.8147 116.873 19.4432 116.719 19.8799C116.604 20.139 116.359 20.283 116.177 20.4269L115.716 20.7964C116.177 21.305 116.066 21.8808 116.086 22.615C116.086 22.7925 116.402 22.9413 116.23 23.1428C116.086 23.3683 115.865 23.5554 115.903 23.8529C115.764 24.0881 115.423 24.1408 115.265 24.136C115.232 24.136 115.203 24.1121 115.203 24.0785C115.236 23.9585 115.332 23.8577 115.38 23.7426C115.543 23.4931 115.471 23.1428 115.673 22.9077C115.505 22.3607 115.251 21.852 115.184 21.2666V21.2282C115.04 21.4969 115.121 21.7609 115.188 21.972C114.737 22.543 114.243 23.09 114.243 23.8433C114.051 24.1888 113.773 24.5007 113.634 24.8654C113.586 24.9278 113.494 24.8702 113.442 24.8414L113.447 24.8558ZM116.45 23.0516C116.714 23.0612 116.983 23.2819 117.088 23.5315C117.194 23.7858 117.151 24.1169 116.993 24.3232C116.786 24.5727 116.508 24.7023 116.177 24.6447C115.97 24.5967 115.764 24.4719 115.644 24.28C115.812 24.2224 116.057 24.1265 116.105 23.9585C116.09 23.7042 116.268 23.4979 116.402 23.2915C116.469 23.2004 116.479 23.1476 116.46 23.0516H116.45ZM116.705 22.8213V20.4989C117.04 20.4941 117.146 20.4989 117.492 20.4989V22.8213H116.705ZM115.016 26.3673C114.8 26.5208 114.445 26.5592 114.205 26.4249C114.07 26.3577 113.946 26.2281 113.869 26.0986C113.811 25.9738 113.787 25.9306 113.782 25.8011C114.349 25.8011 114.732 25.8011 115.332 25.8011C115.332 26.017 115.208 26.2281 115.011 26.3673H115.016ZM116.076 26.4249H115.543V25.47H114.713V25.0861H115.548L115.812 24.7742C115.937 24.923 115.951 24.9326 116.081 25.0861H116.916V25.47H116.081V26.4249H116.076ZM117.746 26.0986C117.669 26.2281 117.549 26.3625 117.41 26.4249C117.175 26.5592 116.815 26.5208 116.599 26.3673C116.402 26.2281 116.282 26.017 116.278 25.8011C116.877 25.8011 117.261 25.8011 117.827 25.8011C117.823 25.9306 117.799 25.9738 117.741 26.0986H117.746ZM118.341 21.305C118.696 21.6553 119.017 21.9768 119.339 22.2935C119.459 22.423 119.555 22.6054 119.473 22.7733C119.435 22.8549 119.382 22.9461 119.329 23.0228C119.329 22.8597 119.257 22.7637 119.166 22.6677C118.73 22.2407 117.976 21.6457 117.914 21.3914C117.847 21.2234 117.871 21.0171 117.866 20.8204C117.995 20.7196 118.096 20.6332 118.245 20.5181C118.235 20.8204 118.192 21.1275 118.336 21.305H118.341ZM119.08 20.5181C119.248 20.6524 119.329 20.7292 119.488 20.878C119.579 21.2714 119.339 21.4969 119.166 21.7753L118.466 21.1035V20.7148C118.547 20.6236 118.576 20.5901 118.677 20.4941L118.873 20.734V21.3962C119.152 21.2618 119.085 20.8636 119.085 20.5229L119.08 20.5181ZM118.917 24.0593C118.835 24.1504 118.806 24.184 118.706 24.28L118.509 24.0449V23.3827C118.23 23.5171 118.298 23.9153 118.298 24.256C118.13 24.1217 118.048 24.0449 117.89 23.8961C117.799 23.5027 118.039 23.2771 118.216 22.9988L118.917 23.6706V24.0593ZM119.507 23.9537C119.382 24.0545 119.277 24.136 119.128 24.256C119.137 23.9585 119.181 23.6514 119.037 23.4691C118.682 23.1188 118.36 22.7973 118.039 22.4806C117.919 22.3511 117.823 22.1687 117.904 21.996C117.943 21.9144 117.991 21.8232 118.048 21.7513C118.048 21.9144 118.12 22.0104 118.216 22.1063C118.648 22.5334 119.401 23.1284 119.464 23.3827C119.526 23.5506 119.507 23.757 119.512 23.9537H119.507ZM119.78 20.0766H117.074V19.2849H119.78V20.0766Z" fill="white"/>
<path d="M106.806 33.6068C106.576 33.5925 106.36 33.5925 106.187 33.5925V34.2498C106.667 34.245 106.686 34.2498 106.849 34.2306C107.017 34.2114 107.094 34.0627 107.094 33.9187C107.094 33.7748 106.983 33.6164 106.806 33.602V33.6068ZM106.772 33.2326C106.94 33.2326 107.046 33.1174 107.046 32.9303C107.046 32.7431 106.907 32.6712 106.753 32.6712H106.187V33.2326H106.772ZM121.215 32.7671L120.923 33.746H121.503L121.211 32.7671H121.215ZM114.272 32.6904C114.138 32.6808 113.884 32.6952 113.658 32.6904V33.295C114.109 33.295 114.176 33.295 114.315 33.2806C114.455 33.2662 114.541 33.1414 114.541 32.9687C114.541 32.7959 114.411 32.7048 114.272 32.6856V32.6904ZM103.438 31.6875V35.2863H127.919V31.6875H103.438ZM106.806 34.6433H105.702V32.3113C106.173 32.3113 106.441 32.3113 106.83 32.3113C107.19 32.3113 107.473 32.508 107.502 32.8631C107.526 33.1126 107.449 33.3237 107.151 33.4005C107.415 33.4725 107.583 33.7124 107.583 34.0243C107.583 34.2882 107.377 34.6481 106.806 34.6481V34.6433ZM111.168 34.0099C111.163 34.1827 111.12 34.3314 110.952 34.4706C110.76 34.6337 110.496 34.7009 110.237 34.7009H110.227C109.963 34.7009 109.704 34.6337 109.512 34.4706C109.344 34.3362 109.301 34.1874 109.296 34.0099V32.3113H109.776V34.0099C109.781 34.1491 109.886 34.2546 110.011 34.2978C110.078 34.3266 110.155 34.341 110.232 34.3362C110.309 34.3362 110.386 34.3266 110.453 34.2978C110.573 34.2546 110.683 34.1395 110.683 34.0099V32.3113H111.168V34.0099ZM114.589 34.6433C114.479 34.6433 114.646 33.7172 114.243 33.6932C114.018 33.6788 113.879 33.6884 113.653 33.6932V34.6481H113.169V32.3113C113.615 32.3113 113.869 32.3161 114.272 32.3161C114.632 32.3353 114.992 32.4792 115.016 32.8727C115.045 33.3285 114.786 33.4293 114.546 33.5109C115.102 33.6308 114.896 34.2834 115.045 34.6529H114.584L114.589 34.6433ZM118.581 32.6856H117.353V33.1894H118.423V33.5925H117.353V34.245H118.581V34.6337H116.863V32.2969H118.581V32.6808V32.6856ZM121.806 34.6433L121.638 34.1347H120.793L120.62 34.6433H120.141L120.961 32.3065H121.465L122.281 34.6433H121.806ZM125.654 34.0099C125.649 34.1827 125.601 34.3314 125.438 34.4658C125.246 34.6289 124.987 34.6961 124.723 34.6961H124.718C124.459 34.6961 124.195 34.6289 124.003 34.4658C123.84 34.3314 123.792 34.1827 123.787 34.0099V32.3113H124.272V34.0099C124.272 34.1491 124.382 34.2498 124.502 34.2978C124.569 34.3266 124.646 34.3362 124.723 34.3362C124.8 34.3362 124.877 34.3266 124.944 34.2978C125.064 34.2498 125.174 34.1347 125.174 34.0099V32.3113H125.659V34.0099H125.654Z" fill="white"/>
<path d="M121.666 36.9216L121.374 37.9053H121.959L121.666 36.9264V36.9216ZM113.428 36.8448C113.289 36.8352 113.039 36.8448 112.809 36.8448V37.4494C113.255 37.4494 113.322 37.4494 113.461 37.435C113.6 37.4206 113.692 37.2959 113.692 37.1231C113.692 36.9504 113.562 36.8544 113.423 36.8448H113.428ZM103.438 35.8516V39.4503H127.919V35.8516H103.438ZM106.768 38.8026H106.321L105.53 36.4658H106.038C106.201 37.0464 106.374 37.7085 106.542 38.198C106.71 37.7085 106.888 37.0464 107.046 36.4658H107.55L106.768 38.8026ZM110.515 37.3534V37.7565H109.445V38.4139H110.673V38.8026H108.956V36.461H110.673V36.8496H109.445V37.3534H110.515ZM113.744 38.793C113.634 38.793 113.797 37.8669 113.399 37.8429C113.173 37.8285 113.034 37.8429 112.809 37.8429V38.793H112.324V36.4562C112.77 36.4562 113.029 36.461 113.428 36.461C113.788 36.4802 114.147 36.6241 114.171 37.0176C114.2 37.4734 113.941 37.5742 113.701 37.6509C114.258 37.7709 114.051 38.4235 114.2 38.7882H113.74L113.744 38.793ZM116.412 38.8026H115.923V36.461H116.412V38.8026ZM119.656 36.8592H118.96V38.7978H118.476V36.8592H117.775V36.4754H119.661V36.8592H119.656ZM122.257 38.8026L122.084 38.2939H121.239L121.071 38.8026H120.592L121.412 36.4658H121.916L122.737 38.8026H122.257ZM124.833 38.8553C124.123 38.8553 123.85 38.4139 123.85 38.0732L124.296 38.054C124.296 38.2411 124.474 38.4811 124.795 38.4811C125.045 38.4811 125.323 38.4283 125.323 38.1548C125.323 37.6557 123.917 37.9484 123.917 37.1615C123.917 36.7441 124.205 36.3842 124.819 36.3842C125.678 36.3842 125.755 36.9648 125.755 37.1135L125.304 37.1279C125.304 36.936 125.188 36.7633 124.872 36.7633C124.526 36.7633 124.397 36.912 124.397 37.0751C124.397 37.4974 125.812 37.2815 125.812 38.0684C125.812 38.5914 125.404 38.8553 124.833 38.8553Z" fill="white"/>
<path d="M13.8239 19.7226L14.5868 19.9193C14.4285 20.5527 14.1406 21.0374 13.7231 21.3732C13.3057 21.7043 12.797 21.8723 12.1972 21.8723C11.5974 21.8723 11.0696 21.7427 10.6762 21.4884C10.2875 21.2341 9.98999 20.8598 9.78366 20.3752C9.57733 19.8906 9.47656 19.3675 9.47656 18.8109C9.47656 18.2015 9.59172 17.6737 9.82204 17.2179C10.0524 16.7668 10.3787 16.4213 10.8009 16.1862C11.2232 15.9511 11.6934 15.8359 12.202 15.8359C12.7778 15.8359 13.2673 15.9847 13.6607 16.2822C14.0542 16.5797 14.3277 16.9971 14.4861 17.5346L13.7327 17.7121C13.5984 17.285 13.4064 16.9779 13.1473 16.786C12.893 16.5941 12.5715 16.4933 12.1876 16.4933C11.7414 16.4933 11.3719 16.5989 11.0744 16.8148C10.7769 17.0307 10.5658 17.3186 10.4458 17.6833C10.3259 18.0432 10.2635 18.4175 10.2635 18.8061C10.2635 19.3004 10.3355 19.737 10.4794 20.1065C10.6234 20.476 10.8441 20.7543 11.1464 20.9366C11.4487 21.1189 11.775 21.2101 12.1253 21.2101C12.5523 21.2101 12.917 21.0853 13.2145 20.8358C13.512 20.5863 13.7135 20.2168 13.8191 19.7226H13.8239Z" fill="white"/>
<path d="M18.6133 21.7693V15.9297H22.7879V16.6207H19.3762V18.4104H22.5719V19.0966H19.3762V21.0831H22.9222V21.7741H18.6133V21.7693Z" fill="white"/>
<path d="M27.0586 21.7693V15.9297H29.6209C30.1343 15.9297 30.5278 15.9825 30.7965 16.088C31.0652 16.1936 31.2764 16.3759 31.4395 16.6446C31.6026 16.9134 31.6794 17.2061 31.6794 17.5227C31.6794 17.9354 31.5451 18.2857 31.2812 18.5688C31.0172 18.8519 30.6046 19.0342 30.0528 19.111C30.2543 19.207 30.4079 19.3077 30.5134 19.4037C30.7389 19.61 30.9501 19.8691 31.1468 20.181L32.1497 21.7693H31.19L30.427 20.5553C30.2015 20.205 30.0192 19.9363 29.8752 19.7492C29.7313 19.562 29.6017 19.4325 29.4866 19.3605C29.3714 19.2885 29.2562 19.2358 29.1363 19.207C29.0499 19.1878 28.906 19.1782 28.7092 19.1782H27.8215V21.7693H27.0586ZM27.8263 18.5064H29.4674C29.8177 18.5064 30.0912 18.468 30.2879 18.396C30.4846 18.3241 30.6334 18.2041 30.7389 18.0458C30.8397 17.8874 30.8925 17.7099 30.8925 17.5227C30.8925 17.2444 30.7917 17.0189 30.595 16.8414C30.3983 16.6638 30.0816 16.5727 29.6545 16.5727H27.8263V18.5064Z" fill="white"/>
<path d="M37.2702 21.7693V16.6207H35.3652V15.9297H39.9429V16.6207H38.0331V21.7693H37.2702Z" fill="white"/>
<path d="M43.9238 21.7693V15.9297H44.6868V21.7693H43.9238Z" fill="white"/>
<path d="M49.1387 21.7693V15.9297H53.0349V16.6207H49.9016V18.4296H52.6127V19.1206H49.9016V21.7741H49.1387V21.7693Z" fill="white"/>
<path d="M57.2305 21.7693V15.9297H57.9934V21.7693H57.2305Z" fill="white"/>
<path d="M62.4199 21.7693V15.9297H66.5945V16.6207H63.1829V18.4104H66.3786V19.0966H63.1829V21.0831H66.7289V21.7741H62.4199V21.7693Z" fill="white"/>
<path d="M70.8574 21.7693V15.9297H72.8487C73.2998 15.9297 73.6405 15.9585 73.8756 16.0113C74.2067 16.088 74.4898 16.2272 74.7249 16.4287C75.032 16.6878 75.2575 17.0237 75.4063 17.4268C75.555 17.8298 75.6318 18.2953 75.6318 18.8135C75.6318 19.255 75.579 19.6484 75.4782 19.9939C75.3775 20.3346 75.2431 20.6177 75.0848 20.8432C74.9264 21.0687 74.7489 21.2463 74.557 21.371C74.365 21.5006 74.1347 21.5966 73.866 21.6637C73.5973 21.7309 73.2854 21.7645 72.9399 21.7645H70.8574V21.7693ZM71.6204 21.0783H72.8535C73.2326 21.0783 73.5349 21.0447 73.7508 20.9728C73.9668 20.9008 74.1395 20.8 74.2691 20.6705C74.4514 20.4881 74.5906 20.2386 74.6913 19.9315C74.7921 19.6244 74.8449 19.2454 74.8449 18.8087C74.8449 18.1993 74.7441 17.7291 74.5474 17.4028C74.3506 17.0765 74.1059 16.8558 73.8228 16.7454C73.6165 16.6638 73.2902 16.6255 72.8343 16.6255H71.6204V21.0879V21.0783Z" fill="white"/>
<path d="M9.89844 32.8621V25.3047H11.4243V32.8621H9.89844Z" fill="white"/>
<path d="M15.655 30.4021L17.1377 30.2581C17.2289 30.7572 17.4064 31.1218 17.6799 31.357C17.9534 31.5921 18.3229 31.7072 18.7836 31.7072C19.273 31.7072 19.6473 31.6017 19.892 31.3954C20.1415 31.189 20.2662 30.9443 20.2662 30.666C20.2662 30.4885 20.2135 30.3349 20.1079 30.2102C20.0023 30.0854 19.82 29.975 19.5609 29.8839C19.3833 29.8215 18.9755 29.7111 18.3373 29.5528C17.5216 29.3512 16.9458 29.1017 16.6147 28.8042C16.1493 28.3868 15.9189 27.883 15.9189 27.2832C15.9189 26.8993 16.0293 26.5394 16.2452 26.2035C16.4611 25.8676 16.7778 25.6133 17.1905 25.4358C17.6032 25.2582 18.0974 25.1719 18.678 25.1719C19.6281 25.1719 20.3382 25.3782 20.8181 25.7957C21.2979 26.2131 21.5474 26.7649 21.5714 27.4607L20.0455 27.5279C19.9783 27.1392 19.8392 26.8609 19.6233 26.6882C19.4073 26.5202 19.0859 26.4338 18.6588 26.4338C18.2317 26.4338 17.8671 26.525 17.6176 26.7074C17.4544 26.8225 17.3776 26.9809 17.3776 27.1776C17.3776 27.3551 17.4544 27.5087 17.6032 27.6382C17.7951 27.8014 18.2653 27.9693 19.0043 28.1421C19.7432 28.3148 20.295 28.4971 20.6501 28.6843C21.0052 28.8714 21.2835 29.1257 21.485 29.452C21.6866 29.7783 21.7873 30.1766 21.7873 30.6564C21.7873 31.0883 21.6674 31.4961 21.4275 31.8752C21.1875 32.2543 20.8468 32.5326 20.4054 32.7197C19.964 32.902 19.4169 32.9932 18.7596 32.9932C17.8047 32.9932 17.0705 32.7725 16.5571 32.331C16.0437 31.8896 15.7414 31.2466 15.6406 30.4021H15.655Z" fill="white"/>
<path d="M25.9453 29.1335C25.9453 28.3658 26.0605 27.718 26.2908 27.195C26.4635 26.8111 26.6987 26.4656 26.9962 26.1586C27.2937 25.8515 27.6199 25.6259 27.975 25.4772C28.4453 25.2757 28.9875 25.1797 29.6017 25.1797C30.7149 25.1797 31.6074 25.5252 32.2744 26.2161C32.9413 26.9071 33.2772 27.8668 33.2772 29.0952C33.2772 30.3235 32.9461 31.2688 32.2839 31.9598C31.6218 32.6507 30.7341 32.9914 29.6257 32.9914C28.5172 32.9914 27.6103 32.6507 26.9434 31.9646C26.2812 31.2784 25.9501 30.3331 25.9501 29.1335H25.9453ZM27.5144 29.0808C27.5144 29.9349 27.7111 30.5826 28.1094 31.0241C28.5028 31.4655 29.0067 31.6863 29.6161 31.6863C30.2255 31.6863 30.7245 31.4655 31.1131 31.0289C31.5018 30.5922 31.6985 29.9349 31.6985 29.0568C31.6985 28.1787 31.5066 27.5453 31.1275 27.1182C30.7485 26.6912 30.2446 26.48 29.6161 26.48C28.9875 26.48 28.4788 26.696 28.095 27.1278C27.7111 27.5597 27.5192 28.2075 27.5192 29.0808H27.5144Z" fill="white"/>
<path d="M43.4437 31.1209L44.8448 30.9673C44.8784 31.2504 44.9695 31.4663 45.1135 31.6007C45.2574 31.735 45.4494 31.807 45.6845 31.807C45.982 31.807 46.2363 31.6679 46.4474 31.3944C46.6586 31.1209 46.7929 30.5499 46.8505 29.6813C46.4858 30.1036 46.03 30.3147 45.483 30.3147C44.888 30.3147 44.3746 30.0844 43.9427 29.6286C43.5108 29.1679 43.2949 28.5729 43.2949 27.8388C43.2949 27.1046 43.5204 26.4568 43.9763 25.9866C44.4321 25.5164 45.0127 25.2812 45.7181 25.2812C46.4858 25.2812 47.1144 25.5787 47.6038 26.1689C48.0933 26.7591 48.3428 27.738 48.3428 29.0959C48.3428 30.4539 48.0885 31.4759 47.5751 32.0853C47.0616 32.6947 46.3947 33.0018 45.5741 33.0018C44.9839 33.0018 44.5041 32.8435 44.1394 32.5316C43.7748 32.2149 43.5396 31.7494 43.4389 31.1209H43.4437ZM46.721 27.9539C46.721 27.4885 46.6154 27.1238 46.3995 26.8647C46.1835 26.6056 45.934 26.476 45.6557 26.476C45.3774 26.476 45.1663 26.5816 44.9887 26.7927C44.8112 27.0039 44.7248 27.3493 44.7248 27.8292C44.7248 28.309 44.8208 28.6737 45.0127 28.904C45.2047 29.1343 45.4446 29.2447 45.7325 29.2447C46.0204 29.2447 46.2459 29.1343 46.4378 28.9136C46.6298 28.6929 46.7257 28.3714 46.7257 27.9443L46.721 27.9539Z" fill="white"/>
<path d="M54.8982 25.2782C55.6323 25.2782 56.2033 25.5373 56.616 26.0604C57.1054 26.6794 57.3549 27.7062 57.3549 29.1361C57.3549 30.566 57.1054 31.5929 56.6112 32.2167C56.2033 32.7301 55.6323 32.9892 54.8982 32.9892C54.164 32.9892 53.569 32.7061 53.118 32.1399C52.6669 31.5737 52.4414 30.566 52.4414 29.1169C52.4414 27.6678 52.6909 26.6698 53.1852 26.046C53.593 25.5325 54.164 25.2734 54.8982 25.2734V25.2782ZM54.8982 26.4778C54.7206 26.4778 54.5671 26.5354 54.4279 26.6458C54.2888 26.7561 54.1832 26.9577 54.1064 27.2456C54.0057 27.6198 53.9577 28.2484 53.9577 29.1361C53.9577 30.0238 54.0009 30.6332 54.092 30.9643C54.1832 31.2954 54.2936 31.5161 54.4279 31.6265C54.5623 31.7368 54.7206 31.7896 54.8934 31.7896C55.0661 31.7896 55.2245 31.732 55.3636 31.6217C55.5028 31.5113 55.6083 31.3098 55.6851 31.0219C55.7859 30.6524 55.8338 30.0238 55.8338 29.1361C55.8338 28.2484 55.7907 27.639 55.6995 27.3079C55.6083 26.9769 55.498 26.7561 55.3636 26.641C55.2293 26.5306 55.0709 26.473 54.8982 26.473V26.4778Z" fill="white"/>
<path d="M63.9333 25.2782C64.6675 25.2782 65.2385 25.5373 65.6511 26.0604C66.1406 26.6794 66.3901 27.7062 66.3901 29.1361C66.3901 30.566 66.1406 31.5929 65.6463 32.2167C65.2385 32.7301 64.6675 32.9892 63.9333 32.9892C63.1992 32.9892 62.6042 32.7061 62.1531 32.1399C61.7021 31.5737 61.4766 30.566 61.4766 29.1169C61.4766 27.6678 61.7261 26.6698 62.2203 26.046C62.6282 25.5325 63.1992 25.2734 63.9333 25.2734V25.2782ZM63.9333 26.4778C63.7558 26.4778 63.6022 26.5354 63.4631 26.6458C63.3239 26.7561 63.2184 26.9577 63.1416 27.2456C63.0408 27.6198 62.9928 28.2484 62.9928 29.1361C62.9928 30.0238 63.036 30.6332 63.1272 30.9643C63.2184 31.2954 63.3287 31.5161 63.4631 31.6265C63.5974 31.7368 63.7558 31.7896 63.9285 31.7896C64.1013 31.7896 64.2596 31.732 64.3988 31.6217C64.5379 31.5113 64.6435 31.3098 64.7203 31.0219C64.821 30.6524 64.869 30.0238 64.869 29.1361C64.869 28.2484 64.8258 27.639 64.7347 27.3079C64.6435 26.9769 64.5331 26.7561 64.3988 26.641C64.2644 26.5306 64.1061 26.473 63.9333 26.473V26.4778Z" fill="white"/>
<path d="M74.2287 32.8644H72.7796V27.4039C72.2517 27.8981 71.628 28.2628 70.9082 28.5027V27.188C71.2873 27.0632 71.6951 26.8281 72.1414 26.4826C72.5828 26.1371 72.8899 25.7341 73.0531 25.2734H74.2287V32.8597V32.8644Z" fill="white"/>
</g>
<defs>
<clipPath id="clip0_9543_5625">
<rect width="136" height="48.9673" fill="white"/>
</clipPath>
</defs>
</svg>
