<svg width="30" height="35" viewBox="0 0 30 35" fill="none" xmlns="http://www.w3.org/2000/svg">
<g filter="url(#filter0_d_10151_24775)">
<path d="M14.0617 29.4228C13.2611 30.4236 11.7389 30.4236 10.9383 29.4228L7.59951 25.2494C6.55189 23.9399 7.48424 22 9.16125 22L15.8388 22C17.5158 22 18.4481 23.9399 17.4005 25.2494L14.0617 29.4228Z" fill="#172057"/>
<path d="M12.5 25.75C5.94162 25.75 0.625 20.4334 0.625 13.875C0.625 7.31662 5.94162 2 12.5 2C19.0584 2 24.375 7.31662 24.375 13.875C24.375 20.4334 19.0584 25.75 12.5 25.75Z" fill="white"/>
<path d="M12.5 25.75C5.94162 25.75 0.625 20.4334 0.625 13.875C0.625 7.31662 5.94162 2 12.5 2C19.0584 2 24.375 7.31662 24.375 13.875C24.375 20.4334 19.0584 25.75 12.5 25.75Z" stroke="#172057" stroke-width="1.25"/>
<g clip-path="url(#clip0_10151_24775)">
<path d="M14.8842 11.0478C14.104 9.70293 12.667 8.875 11.1124 8.875H9.63711L12.4998 13.834H11.0049C9.44744 13.834 8.008 14.6648 7.22927 16.014L5.625 18.875H7.11987C8.67732 18.875 10.1168 17.9622 10.8955 16.613L11.2567 15.9877C11.6456 15.3136 12.129 14.6997 12.6889 14.1617L14.1045 16.613C14.8832 17.9617 16.3222 18.875 17.8801 18.875H19.375L14.8842 11.0478Z" fill="#172057" stroke="#172057" stroke-width="0.9375"/>
</g>
</g>
<defs>
<filter id="filter0_d_10151_24775" x="0" y="0.75" width="30" height="36.25" filterUnits="userSpaceOnUse" color-interpolation-filters="sRGB">
<feFlood flood-opacity="0" result="BackgroundImageFix"/>
<feColorMatrix in="SourceAlpha" type="matrix" values="0 0 0 0 0 0 0 0 0 0 0 0 0 0 0 0 0 0 127 0" result="hardAlpha"/>
<feOffset dx="2.5" dy="1.875"/>
<feGaussianBlur stdDeviation="1.25"/>
<feComposite in2="hardAlpha" operator="out"/>
<feColorMatrix type="matrix" values="0 0 0 0 0.0901961 0 0 0 0 0.12549 0 0 0 0 0.341176 0 0 0 0.25 0"/>
<feBlend mode="normal" in2="BackgroundImageFix" result="effect1_dropShadow_10151_24775"/>
<feBlend mode="normal" in="SourceGraphic" in2="effect1_dropShadow_10151_24775" result="shape"/>
</filter>
<clipPath id="clip0_10151_24775">
<rect width="15" height="15" fill="white" transform="translate(5 6.375)"/>
</clipPath>
</defs>
</svg>
