<svg width="236" height="200" viewBox="0 0 236 200" fill="none" xmlns="http://www.w3.org/2000/svg">
<g clip-path="url(#clip0_10190_75216)">
<path d="M195.799 121.461C186.164 120.685 177.329 106.128 169.976 85.7317C156.506 48.3342 132.694 37.7248 110.789 68.3547C85.2951 103.99 64.672 130.555 33.5078 125.867L66.3778 165.449H169.87L195.787 121.472L195.799 121.461Z" fill="#C0FFD3"/>
<path d="M162.411 110.63C151.776 121.145 138.906 141.495 115.048 141.495C84.801 141.495 68.7072 71.0234 46.9546 71.0234C37.943 71.0234 33.5078 76.4398 33.5078 76.4398V166.45C33.5078 169.939 34.9548 174.933 38.6842 174.933C63.3191 174.933 171.517 174.792 183.176 174.792C191.364 174.792 196.576 172.113 196.576 163.137V105.084C187.246 97.3297 177.988 95.2384 162.4 110.63H162.411Z" fill="#00BCF1"/>
<path d="M159.033 123.838C170.706 111.658 176.881 107.12 169.209 94.483L155.604 103.28C161.811 108.49 159.689 116.167 159.033 123.838Z" fill="#C27050"/>
<path d="M121.329 87.7101C133.003 75.5293 137.214 69.1105 150.81 76.8554L142.769 90.9831C136.934 84.6539 129.184 86.937 121.329 87.7101Z" fill="#C27050"/>
<path d="M187.569 76.4843C197.096 62.9006 196.227 50.8454 194.505 49.1956C192.322 48.0282 179.733 47.3786 163.534 62.0893C146.553 77.5112 140.785 93.6601 140.479 94.2925C143.783 99.6177 148.634 104.267 152.061 105.391C160.106 101.069 177.734 90.5061 187.569 76.4843Z" fill="white"/>
<path d="M194.505 49.1963C196.227 50.8461 197.096 62.9013 187.569 76.485C177.734 90.5068 160.105 101.07 152.06 105.392C148.634 104.268 143.782 99.6184 140.479 94.2932" stroke="#172057" stroke-linecap="round"/>
<path d="M138.89 97.2909L140.684 94.6641C141.546 96.7784 147.971 104.047 151.631 105.155L149.083 107.059C146.415 106.82 139.677 99.493 138.89 97.2909Z" fill="#969696"/>
<path d="M140.684 94.6641C141.546 96.7784 147.971 104.047 151.631 105.155L149.083 107.059C146.415 106.82 139.677 99.493 138.89 97.2909" stroke="#172057" stroke-linecap="round"/>
<path d="M133.855 101.961C130.685 101.961 123.177 115.413 122.352 119.216C125.489 119.216 133.15 118.265 138.697 114.462C145.632 109.709 137.817 101.961 133.855 101.961Z" fill="#F7DADD" stroke="#172057" stroke-linecap="round"/>
<circle cx="175.872" cy="69.5276" r="6.2744" transform="rotate(43.781 175.872 69.5276)" fill="#00BCF1"/>
<ellipse cx="175.968" cy="69.2684" rx="7.61297" ry="7.53256" transform="rotate(43.781 175.968 69.2684)" stroke="#172057" stroke-linecap="round"/>
<path d="M194.508 49.6747C192.62 47.8658 180.39 50.7201 178.295 52.2904C175.039 55.688 188.915 71.0998 191.891 67.4545C194.452 64.3173 196.395 51.4835 194.508 49.6747Z" fill="#C27050"/>
</g>
<defs>
<clipPath id="clip0_10190_75216">
<rect width="235.29" height="199.735" fill="white"/>
</clipPath>
</defs>
</svg>
