<svg width="248" height="128" viewBox="0 0 248 128" fill="none" xmlns="http://www.w3.org/2000/svg">
<path d="M85.9729 22.7778C117.801 19.828 160.154 15.3697 210.05 35.2475C259.928 55.1084 268.074 102.909 188.965 106.512C109.856 110.116 13.1828 108.44 1.29973 74.1147C-10.5833 39.7895 62.3073 24.9734 85.9729 22.7778Z" fill="#FFF6E1"/>
<path d="M92.9677 77.512C86.3757 77.512 81.9917 74.472 81.9917 66.152H87.5277C87.5277 71.112 89.4477 72.84 92.9677 72.84C96.4877 72.84 98.4077 71.112 98.4077 66.152V59.272H84.9677V54.6H103.912V66.152C103.912 74.472 99.5278 77.512 92.9677 77.512ZM126.78 61V77H120.827L121.468 70.408H121.212C120.443 75.144 118.171 77.512 113.243 77.512C108.731 77.448 106.683 75.4 106.683 67.944V61H112.187V67.4C112.187 71.912 113.371 73.384 116.251 73.384C119.259 73.384 121.275 70.312 121.275 65.896V61H126.78ZM149.32 61V77H143.368L144.008 70.408H143.752C142.984 75.144 140.712 77.512 135.784 77.512C131.272 77.448 129.224 75.4 129.224 67.944V61H134.728V67.4C134.728 71.912 135.911 73.384 138.792 73.384C141.8 73.384 143.816 70.312 143.816 65.896V61H149.32ZM152.084 77V54.6H157.588V77H152.084ZM162.972 58.952C160.892 58.952 159.708 58.12 159.708 56.04C159.708 53.96 160.892 53.096 162.972 53.096C165.052 53.096 166.3 53.96 166.3 56.04C166.3 58.12 165.116 58.952 162.972 58.952ZM160.284 77V61H165.788V77H160.284Z" fill="#172057"/>
</svg>
