<svg width="248" height="128" viewBox="0 0 248 128" fill="none" xmlns="http://www.w3.org/2000/svg">
<path d="M71.682 3.85686C71.682 3.85686 115.123 -8.86522 191.582 21.2102C268.041 51.257 276.66 119.641 155.414 125.13C34.1685 130.591 20.7095 125.13 2.49681 73.2132C-15.7159 21.296 71.682 3.88538 71.682 3.88538" fill="#C0FFD3"/>
<path d="M67.4565 77.512C58.8805 77.512 53.5365 72.872 53.5365 65.8C53.5365 58.728 58.8805 54.088 67.4565 54.088C76.0325 54.088 81.4085 58.728 81.4085 65.8C81.4085 72.872 76.0325 77.512 67.4565 77.512ZM67.4565 72.712C72.6405 72.712 75.7445 70.024 75.7445 65.8C75.7445 61.576 72.6405 58.856 67.4565 58.856C62.3045 58.856 59.1685 61.576 59.1685 65.8C59.1685 70.024 62.3045 72.712 67.4565 72.712ZM93.158 77.512C87.27 77.512 83.014 74.12 83.014 69C83.014 63.848 87.046 60.488 93.19 60.488C96.07 60.488 98.118 61.032 100.678 62.184V66.92C98.63 65.768 96.454 64.936 93.606 64.936C90.246 64.936 88.422 66.6 88.422 69C88.422 71.4 90.374 73.032 93.798 73.032C96.71 73.032 98.822 72.296 100.678 71.112V75.816C98.086 76.968 96.326 77.512 93.158 77.512ZM108.926 77.32C104.766 77.32 104.126 75.816 104.126 71.24V65.128H102.078V61H104.574V57.16L109.758 56.52V61H113.535V65.128H109.758V70.28C109.758 72.808 109.758 73.512 112.094 73.512C112.478 73.512 112.958 73.48 113.535 73.448V76.68C112.03 77.128 110.655 77.32 108.926 77.32ZM124.613 77.512C118.501 77.512 114.469 74.12 114.469 69C114.469 63.88 118.501 60.488 124.613 60.488C130.725 60.488 134.789 63.88 134.789 69C134.789 74.12 130.725 77.512 124.613 77.512ZM124.613 73.032C127.525 73.032 129.477 71.4 129.477 69C129.477 66.568 127.525 64.936 124.613 64.936C121.733 64.936 119.781 66.568 119.781 69C119.781 71.4 121.733 73.032 124.613 73.032ZM150.089 77.512C146.025 77.512 142.825 75.176 142.121 71.784H141.737L142.441 77H136.681V54.6H142.313V66.184H142.441C143.177 62.6 146.473 60.488 150.345 60.488C155.081 60.488 158.537 63.848 158.537 68.872C158.537 74.056 155.113 77.512 150.089 77.512ZM148.105 73.032C150.793 73.032 153.129 71.688 153.129 68.936C153.129 66.248 150.793 64.936 148.105 64.936C145.545 64.936 143.049 66.248 143.049 68.936C143.049 71.688 145.545 73.032 148.105 73.032ZM169.15 77.512C163.358 77.512 159.518 74.12 159.518 69C159.518 63.88 163.358 60.488 169.15 60.488C174.878 60.488 178.686 63.4 178.782 67.752V70.376H165.118C165.63 72.296 167.39 73.192 170.75 73.192C174.654 73.192 176.254 72.2 178.078 71.432V75.944C175.326 76.968 173.438 77.512 169.15 77.512ZM164.99 68.04H173.342C173.214 65.992 171.454 64.936 169.15 64.936C166.974 64.936 165.278 66.088 164.99 68.04ZM186.045 77H180.381V61H186.493L185.853 66.952H186.173C187.005 62.344 189.469 60.488 194.909 60.488V65.256C188.733 65.256 186.045 66.472 186.045 71.624V77Z" fill="#172057"/>
</svg>
