<svg width="248" height="128" viewBox="0 0 248 128" fill="none" xmlns="http://www.w3.org/2000/svg">
<path d="M185.327 16.3282C185.327 16.3282 95.3534 -2.04978 37.15 28.4302C-21.0337 58.9102 -13.5652 104.503 78.7155 110.056C170.996 115.589 232.425 132.715 246.287 80.0644C260.149 27.4136 185.327 16.3282 185.327 16.3282Z" fill="#FFF6E1"/>
<path d="M37.3831 77H31.7191V54.6H36.3911L51.9431 68.584V54.6H57.6071V77H52.8711L37.3831 63.048V77ZM70.1536 77.512C64.0416 77.512 60.0096 74.12 60.0096 69C60.0096 63.88 64.0416 60.488 70.1536 60.488C76.2656 60.488 80.3296 63.88 80.3296 69C80.3296 74.12 76.2656 77.512 70.1536 77.512ZM70.1536 73.032C73.0656 73.032 75.0176 71.4 75.0176 69C75.0176 66.568 73.0656 64.936 70.1536 64.936C67.2736 64.936 65.3216 66.568 65.3216 69C65.3216 71.4 67.2736 73.032 70.1536 73.032ZM94.5294 77H87.3934L78.9454 61H85.0254L90.9774 72.264L96.8974 61H102.977L94.5294 77ZM111.315 77.512C105.523 77.512 101.683 74.12 101.683 69C101.683 63.88 105.523 60.488 111.315 60.488C117.043 60.488 120.851 63.4 120.947 67.752V70.376H107.283C107.795 72.296 109.555 73.192 112.915 73.192C116.819 73.192 118.419 72.2 120.243 71.432V75.944C117.491 76.968 115.603 77.512 111.315 77.512ZM107.155 68.04H115.507C115.379 65.992 113.619 64.936 111.315 64.936C109.139 64.936 107.443 66.088 107.155 68.04ZM128.429 77H122.765V61H128.877L128.237 67.592H128.525C129.293 62.76 131.533 60.488 136.493 60.488C140.429 60.552 142.381 62.088 142.829 67.592H143.117C143.885 62.76 146.125 60.488 151.085 60.488C155.565 60.552 157.613 62.504 157.613 70.056V77H151.949V70.6C151.949 66.12 150.797 64.712 147.981 64.744C145.005 64.744 143.021 67.752 143.021 72.04V77H137.357V70.6C137.357 66.12 136.205 64.712 133.389 64.744C130.413 64.744 128.429 67.752 128.429 72.04V77ZM173.218 77.512C169.154 77.512 165.954 75.176 165.25 71.784H164.866L165.57 77H159.81V54.6H165.442V66.184H165.57C166.306 62.6 169.602 60.488 173.474 60.488C178.21 60.488 181.666 63.848 181.666 68.872C181.666 74.056 178.242 77.512 173.218 77.512ZM171.234 73.032C173.922 73.032 176.258 71.688 176.258 68.936C176.258 66.248 173.922 64.936 171.234 64.936C168.674 64.936 166.178 66.248 166.178 68.936C166.178 71.688 168.674 73.032 171.234 73.032ZM192.279 77.512C186.487 77.512 182.647 74.12 182.647 69C182.647 63.88 186.487 60.488 192.279 60.488C198.007 60.488 201.815 63.4 201.911 67.752V70.376H188.247C188.759 72.296 190.519 73.192 193.879 73.192C197.783 73.192 199.383 72.2 201.207 71.432V75.944C198.455 76.968 196.567 77.512 192.279 77.512ZM188.119 68.04H196.471C196.343 65.992 194.583 64.936 192.279 64.936C190.103 64.936 188.407 66.088 188.119 68.04ZM209.174 77H203.51V61H209.622L208.982 66.952H209.302C210.134 62.344 212.598 60.488 218.038 60.488V65.256C211.862 65.256 209.174 66.472 209.174 71.624V77Z" fill="#172057"/>
</svg>
