<svg width="248" height="128" viewBox="0 0 248 128" fill="none" xmlns="http://www.w3.org/2000/svg">
<path d="M176.318 124.143C176.318 124.143 132.877 136.865 56.418 106.79C-20.0408 76.743 -28.6603 8.35865 92.5856 2.86961C213.832 -2.59085 227.291 2.86962 245.503 54.7868C263.716 106.704 176.318 124.115 176.318 124.115" fill="#FFF6E1"/>
<path d="M74.7017 67V44.6H79.5977L88.8137 59.128L97.9977 44.6H102.926V67H97.4217V54.072L89.3577 67H88.2697L80.2057 54.104V67H74.7017ZM112.199 49.784C110.343 49.784 109.031 48.696 109.031 47.064C109.031 45.432 110.343 44.344 112.199 44.344C114.247 44.344 115.367 45.432 115.367 47.064C115.367 48.696 114.247 49.784 112.199 49.784ZM121.479 49.784C119.623 49.784 118.311 48.696 118.311 47.064C118.311 45.432 119.623 44.344 121.479 44.344C123.528 44.344 124.647 45.432 124.647 47.064C124.647 48.696 123.528 49.784 121.479 49.784ZM111.943 67.512C109.575 67.512 105.991 67 105.991 63.288C105.991 59.16 112.647 58.04 119.559 57.56C119.559 55.832 118.247 55.096 115.783 55.096C113.287 55.096 110.151 55.864 108.007 56.792V52.216C110.695 51.224 114.247 50.488 117.063 50.488C122.888 50.488 125.063 53.496 125.063 57.976V67H119.783L120.488 61.272H120.167C119.207 65.656 116.839 67.512 111.943 67.512ZM114.375 63.736C116.872 63.736 119.559 62.552 119.528 59.96C115.847 60.216 111.687 60.536 111.687 62.296C111.687 63.224 112.807 63.736 114.375 63.736ZM127.512 67V51H133.464L132.824 57.592H133.144C133.976 52.344 136.44 50.488 141.944 50.488V55.16C135.704 55.16 133.016 56.472 133.016 61.624V67H127.512ZM150.132 67.32C145.972 67.32 145.332 65.816 145.332 61.24V55H143.284V51H146.004V47.16L150.836 46.52V51H154.74V55H150.836V60.28C150.836 62.904 150.836 63.608 153.236 63.608C153.652 63.608 154.164 63.576 154.74 63.544V66.68C153.236 67.128 151.86 67.32 150.132 67.32ZM165.235 67.512C162.771 67.512 159.315 67.032 156.659 66.264V61.72C159.347 62.744 161.587 63.096 164.403 63.096C167.827 63.096 169.331 62.808 169.331 61.848C169.331 59.096 155.955 62.744 155.955 55.928C155.955 52.216 159.731 50.488 165.363 50.488C167.283 50.488 170.579 50.84 173.363 51.384V55.832C171.091 55.352 168.467 55 166.067 55C162.707 55 161.267 55.384 161.267 56.184C161.267 58.488 174.643 55.16 174.643 62.136C174.643 65.944 170.867 67.512 165.235 67.512Z" fill="#172057"/>
</svg>
