<svg width="248" height="128" viewBox="0 0 248 128" fill="none" xmlns="http://www.w3.org/2000/svg">
<path d="M176.318 124.143C176.318 124.143 132.877 136.865 56.418 106.79C-20.0408 76.743 -28.6603 8.35865 92.5856 2.86961C213.832 -2.59085 227.291 2.86962 245.503 54.7868C263.716 106.704 176.318 124.115 176.318 124.115" fill="#C0FFD3"/>
<path d="M57.5468 67L71.0828 44.6H77.2908L90.8268 67H84.3628L81.9308 62.744H66.4108L63.9788 67H57.5468ZM69.0668 58.072H79.3068L74.1868 49.112L69.0668 58.072ZM110.822 51V67H104.87L105.51 60.408H105.254C104.486 65.144 102.214 67.512 97.286 67.512C92.774 67.448 90.726 65.4 90.726 57.944V51H96.23V57.4C96.23 61.912 97.414 63.384 100.294 63.384C103.302 63.384 105.318 60.312 105.318 55.896V51H110.822ZM124.683 73.4C121.227 73.4 118.571 72.952 116.075 72.248V67.576C117.387 68.376 120.459 69.048 123.755 69.048C128.363 69.048 129.803 67.512 130.027 63.448L130.059 62.264C129.163 65.56 125.771 67.128 121.867 67.128C117.163 67.128 113.707 64.056 113.707 58.872C113.707 53.848 117.195 50.488 121.931 50.488C125.803 50.488 129.131 52.568 129.867 56.184H130.379L129.899 51H135.339V65.08C135.339 70.872 130.987 73.4 124.683 73.4ZM124.075 63.16C126.699 63.16 129.227 61.72 129.227 58.936C129.227 56.184 126.731 54.84 124.075 54.84C121.355 54.84 119.019 56.184 119.019 58.936C119.019 61.72 121.355 63.16 124.075 63.16ZM158.027 51V67H152.075L152.715 60.408H152.459C151.691 65.144 149.419 67.512 144.491 67.512C139.979 67.448 137.931 65.4 137.931 57.944V51H143.435V57.4C143.435 61.912 144.619 63.384 147.499 63.384C150.507 63.384 152.523 60.312 152.523 55.896V51H158.027ZM169.246 67.512C166.782 67.512 163.326 67.032 160.67 66.264V61.72C163.358 62.744 165.598 63.096 168.414 63.096C171.838 63.096 173.342 62.808 173.342 61.848C173.342 59.096 159.966 62.744 159.966 55.928C159.966 52.216 163.742 50.488 169.374 50.488C171.294 50.488 174.59 50.84 177.374 51.384V55.832C175.102 55.352 172.478 55 170.078 55C166.718 55 165.278 55.384 165.278 56.184C165.278 58.488 178.654 55.16 178.654 62.136C178.654 65.944 174.878 67.512 169.246 67.512ZM185.692 67.32C181.532 67.32 180.892 65.816 180.892 61.24V55H178.844V51H181.564V47.16L186.396 46.52V51H190.3V55H186.396V60.28C186.396 62.904 186.396 63.608 188.796 63.608C189.212 63.608 189.724 63.576 190.3 63.544V66.68C188.796 67.128 187.42 67.32 185.692 67.32Z" fill="#172057"/>
</svg>
