<svg width="248" height="128" viewBox="0 0 248 128" fill="none" xmlns="http://www.w3.org/2000/svg">
<path d="M85.9729 22.7778C117.801 19.828 160.154 15.3697 210.05 35.2475C259.928 55.1084 268.074 102.909 188.965 106.512C109.856 110.116 13.1828 108.44 1.29973 74.1147C-10.5833 39.7895 62.3073 24.9734 85.9729 22.7778Z" fill="#F7DADD"/>
<path d="M37.359 77.512C29.551 77.512 24.463 74.408 24.559 69.704H30.383C30.351 71.208 32.271 72.776 36.879 72.84C41.167 72.872 44.463 72.296 44.463 70.312C44.463 65.96 25.039 71.048 25.039 61.448C25.039 56.872 29.807 54.088 36.879 54.088C44.207 54.088 49.199 57.16 49.263 61.896H43.407C43.439 60.36 41.775 58.792 37.295 58.76C33.423 58.696 30.607 59.304 30.607 61.192C30.607 65.384 49.999 60.744 49.999 70.12C49.999 74.728 44.911 77.512 37.359 77.512ZM60.731 77.512C54.939 77.512 51.099 74.12 51.099 69C51.099 63.88 54.939 60.488 60.731 60.488C66.459 60.488 70.267 63.4 70.363 67.752V70.376H56.475C57.019 72.392 58.875 73.32 62.331 73.32C66.235 73.32 67.835 72.328 69.659 71.56V75.944C66.875 77 64.987 77.512 60.731 77.512ZM56.347 68.136L65.083 67.944C64.955 65.704 63.355 64.84 60.731 64.84C58.235 64.84 56.667 65.8 56.347 68.136ZM85.908 60.488C90.58 60.488 94.068 63.944 94.068 69.128C94.068 74.152 90.548 77.512 85.844 77.512C81.94 77.512 78.644 75.432 77.908 71.816H77.78V83.4H72.276V61H77.908L77.204 66.216H77.588C78.292 62.568 81.844 60.488 85.908 60.488ZM83.668 64.84C81.044 64.84 78.516 66.28 78.516 69.064C78.516 71.816 81.044 73.16 83.668 73.16C86.42 73.16 88.756 71.816 88.756 69.064C88.756 66.28 86.42 64.84 83.668 64.84ZM101.396 77.32C97.236 77.32 96.596 75.816 96.596 71.24V65H94.548V61H97.268V57.16L102.1 56.52V61H106.004V65H102.1V70.28C102.1 72.904 102.1 73.608 104.5 73.608C104.916 73.608 105.428 73.576 106.004 73.544V76.68C104.5 77.128 103.124 77.32 101.396 77.32ZM116.851 77.512C111.059 77.512 107.219 74.12 107.219 69C107.219 63.88 111.059 60.488 116.851 60.488C122.579 60.488 126.387 63.4 126.483 67.752V70.376H112.595C113.139 72.392 114.995 73.32 118.451 73.32C122.355 73.32 123.955 72.328 125.779 71.56V75.944C122.995 77 121.107 77.512 116.851 77.512ZM112.467 68.136L121.203 67.944C121.075 65.704 119.475 64.84 116.851 64.84C114.355 64.84 112.787 65.8 112.467 68.136ZM128.396 77V61H134.348L133.708 67.592H133.964C134.732 62.856 137.004 60.488 141.932 60.488C145.868 60.552 147.852 62.12 148.3 67.592H148.556C149.324 62.856 151.596 60.488 156.524 60.488C161.036 60.552 163.084 62.6 163.084 70.056V77H157.58V70.6C157.58 66.056 156.396 64.616 153.516 64.616C150.508 64.616 148.492 67.688 148.492 72.104V77H142.988V70.6C142.988 66.056 141.804 64.616 138.924 64.616C135.916 64.616 133.9 67.688 133.9 72.104V77H128.396ZM179.162 77.512C175.098 77.512 171.546 75.432 170.842 71.784H170.458L171.162 77H165.53V54.6H171.034V66.184H171.162C171.898 62.568 175.194 60.488 179.098 60.488C183.802 60.488 187.322 63.848 187.322 68.872C187.322 74.056 183.834 77.512 179.162 77.512ZM176.922 73.16C179.674 73.16 182.01 71.72 182.01 68.936C182.01 66.184 179.674 64.84 176.922 64.84C174.298 64.84 171.77 66.184 171.77 68.936C171.77 71.72 174.298 73.16 176.922 73.16ZM197.908 77.512C192.116 77.512 188.276 74.12 188.276 69C188.276 63.88 192.116 60.488 197.908 60.488C203.636 60.488 207.444 63.4 207.54 67.752V70.376H193.652C194.196 72.392 196.052 73.32 199.508 73.32C203.412 73.32 205.012 72.328 206.836 71.56V75.944C204.052 77 202.164 77.512 197.908 77.512ZM193.524 68.136L202.26 67.944C202.132 65.704 200.532 64.84 197.908 64.84C195.412 64.84 193.844 65.8 193.524 68.136ZM209.454 77V61H215.406L214.766 67.592H215.086C215.918 62.344 218.382 60.488 223.886 60.488V65.16C217.646 65.16 214.958 66.472 214.958 71.624V77H209.454Z" fill="#172057"/>
</svg>
