<svg width="248" height="128" viewBox="0 0 248 128" fill="none" xmlns="http://www.w3.org/2000/svg">
<path d="M205.196 27.6307C205.196 27.6307 63.2775 15.7949 23.5371 37.5031C-16.2034 59.2114 -5.99674 96.7099 57.0254 100.664C120.048 104.605 237.361 110.537 246.83 73.0383C256.298 35.5398 205.196 27.6446 205.196 27.6446" fill="#C0FFD3"/>
<path d="M51.1898 77L39.3818 54.6H45.9418L55.5098 73.544L65.0458 54.6H71.6058L59.7978 77H51.1898ZM78.4073 77.512C72.6153 77.512 68.7753 74.12 68.7753 69C68.7753 63.88 72.6153 60.488 78.4073 60.488C84.1353 60.488 87.9433 63.4 88.0393 67.752V70.376H74.1513C74.6953 72.392 76.5513 73.32 80.0073 73.32C83.9113 73.32 85.5113 72.328 87.3353 71.56V75.944C84.5513 77 82.6633 77.512 78.4073 77.512ZM74.0233 68.136L82.7593 67.944C82.6313 65.704 81.0313 64.84 78.4073 64.84C75.9113 64.84 74.3433 65.8 74.0233 68.136ZM98.9785 77.512C93.1865 77.512 89.3465 74.12 89.3465 69C89.3465 63.88 93.1865 60.488 98.9785 60.488C104.707 60.488 108.515 63.4 108.611 67.752V70.376H94.7225C95.2665 72.392 97.1225 73.32 100.579 73.32C104.483 73.32 106.083 72.328 107.907 71.56V75.944C105.123 77 103.235 77.512 98.9785 77.512ZM94.5945 68.136L103.331 67.944C103.203 65.704 101.603 64.84 98.9785 64.84C96.4825 64.84 94.9145 65.8 94.5945 68.136ZM124.062 77.512C119.998 77.512 116.446 75.432 115.742 71.784H115.358L116.062 77H110.43V54.6H115.934V66.184H116.062C116.798 62.568 120.094 60.488 123.998 60.488C128.702 60.488 132.222 63.848 132.222 68.872C132.222 74.056 128.734 77.512 124.062 77.512ZM121.822 73.16C124.574 73.16 126.91 71.72 126.91 68.936C126.91 66.184 124.574 64.84 121.822 64.84C119.198 64.84 116.67 66.184 116.67 68.936C116.67 71.72 119.198 73.16 121.822 73.16ZM134.439 77V61H140.391L139.751 67.592H140.071C140.903 62.344 143.367 60.488 148.871 60.488V65.16C142.631 65.16 139.943 66.472 139.943 71.624V77H134.439ZM170.442 61V77H164.49L165.13 70.408H164.874C164.106 75.144 161.834 77.512 156.906 77.512C152.394 77.448 150.346 75.4 150.346 67.944V61H155.85V67.4C155.85 71.912 157.034 73.384 159.914 73.384C162.922 73.384 164.938 70.312 164.938 65.896V61H170.442ZM178.646 77.512C176.278 77.512 172.694 77 172.694 73.288C172.694 69.16 179.35 68.04 186.262 67.56C186.262 65.832 184.95 65.096 182.486 65.096C179.99 65.096 176.854 65.864 174.71 66.792V62.216C177.398 61.224 180.95 60.488 183.766 60.488C189.59 60.488 191.766 63.496 191.766 67.976V77H186.486L187.19 71.272H186.87C185.91 75.656 183.542 77.512 178.646 77.512ZM181.078 73.736C183.574 73.736 186.262 72.552 186.23 69.96C182.55 70.216 178.39 70.536 178.39 72.296C178.39 73.224 179.51 73.736 181.078 73.736ZM194.215 77V61H200.167L199.527 67.592H199.847C200.679 62.344 203.143 60.488 208.647 60.488V65.16C202.407 65.16 199.719 66.472 199.719 71.624V77H194.215Z" fill="#172057"/>
</svg>
