<svg width="248" height="128" viewBox="0 0 248 128" fill="none" xmlns="http://www.w3.org/2000/svg">
<path d="M71.682 3.85686C71.682 3.85686 115.123 -8.86522 191.582 21.2102C268.041 51.257 276.66 119.641 155.414 125.13C34.1685 130.591 20.7095 125.13 2.49681 73.2132C-15.7159 21.296 71.682 3.88538 71.682 3.88538" fill="#C0FFD3"/>
<path d="M55.1293 77.512C46.3933 77.512 40.9853 72.84 40.9853 65.8C40.9853 58.76 46.3933 54.088 55.1293 54.088C63.8973 54.088 69.3053 58.76 69.3053 65.8C69.3053 72.84 63.8973 77.512 55.1293 77.512ZM55.1293 72.84C60.5053 72.84 63.8013 70.312 63.8013 65.8C63.8013 61.256 60.5053 58.76 55.1293 58.76C49.7853 58.76 46.4893 61.256 46.4893 65.8C46.4893 70.312 49.7853 72.84 55.1293 72.84ZM71.5373 77V54.6H77.0413V67.208L83.8253 61H91.5053L85.2333 66.344L91.9213 77H85.1053L81.0413 69.96L77.0413 73.288V77H71.5373ZM99.251 77.32C95.091 77.32 94.451 75.816 94.451 71.24V65H92.403V61H95.123V57.16L99.955 56.52V61H103.859V65H99.955V70.28C99.955 72.904 99.955 73.608 102.355 73.608C102.771 73.608 103.283 73.576 103.859 73.544V76.68C102.355 77.128 100.979 77.32 99.251 77.32ZM115.218 77.512C109.106 77.512 105.074 74.12 105.074 69C105.074 63.88 109.106 60.488 115.218 60.488C121.33 60.488 125.362 63.88 125.362 69C125.362 74.12 121.33 77.512 115.218 77.512ZM115.218 73.16C118.194 73.16 120.178 71.496 120.178 69C120.178 66.504 118.194 64.84 115.218 64.84C112.242 64.84 110.258 66.504 110.258 69C110.258 71.496 112.242 73.16 115.218 73.16ZM137.039 77.512C130.927 77.512 126.895 74.12 126.895 69C126.895 63.88 130.927 60.488 137.039 60.488C143.151 60.488 147.183 63.88 147.183 69C147.183 74.12 143.151 77.512 137.039 77.512ZM137.039 73.16C140.015 73.16 141.999 71.496 141.999 69C141.999 66.504 140.015 64.84 137.039 64.84C134.063 64.84 132.079 66.504 132.079 69C132.079 71.496 134.063 73.16 137.039 73.16ZM162.735 77.512C158.671 77.512 155.119 75.432 154.415 71.784H154.031L154.735 77H149.103V54.6H154.607V66.184H154.735C155.471 62.568 158.767 60.488 162.671 60.488C167.375 60.488 170.895 63.848 170.895 68.872C170.895 74.056 167.407 77.512 162.735 77.512ZM160.495 73.16C163.247 73.16 165.583 71.72 165.583 68.936C165.583 66.184 163.247 64.84 160.495 64.84C157.871 64.84 155.343 66.184 155.343 68.936C155.343 71.72 157.871 73.16 160.495 73.16ZM181.482 77.512C175.69 77.512 171.85 74.12 171.85 69C171.85 63.88 175.69 60.488 181.482 60.488C187.21 60.488 191.018 63.4 191.114 67.752V70.376H177.226C177.77 72.392 179.626 73.32 183.082 73.32C186.986 73.32 188.586 72.328 190.41 71.56V75.944C187.626 77 185.738 77.512 181.482 77.512ZM177.098 68.136L185.834 67.944C185.706 65.704 184.106 64.84 181.482 64.84C178.986 64.84 177.418 65.8 177.098 68.136ZM193.027 77V61H198.979L198.339 67.592H198.659C199.491 62.344 201.955 60.488 207.459 60.488V65.16C201.219 65.16 198.531 66.472 198.531 71.624V77H193.027Z" fill="#172057"/>
</svg>
