<svg width="248" height="128" viewBox="0 0 248 128" fill="none" xmlns="http://www.w3.org/2000/svg">
<path d="M85.9729 22.7778C117.801 19.828 160.154 15.3697 210.05 35.2475C259.928 55.1084 268.074 102.909 188.965 106.512C109.856 110.116 13.1828 108.44 1.29973 74.1147C-10.5833 39.7895 62.3073 24.9734 85.9729 22.7778Z" fill="#F7DADD"/>
<path d="M75.0155 77L88.5515 54.6H94.7595L108.296 77H101.832L99.3995 72.744H83.8795L81.4475 77H75.0155ZM86.5355 68.072H96.7755L91.6555 59.112L86.5355 68.072ZM123.553 60.488C128.225 60.488 131.713 63.944 131.713 69.128C131.713 74.152 128.193 77.512 123.489 77.512C119.585 77.512 116.289 75.432 115.553 71.816H115.425V83.4H109.921V61H115.553L114.849 66.216H115.233C115.937 62.568 119.489 60.488 123.553 60.488ZM121.313 64.84C118.689 64.84 116.161 66.28 116.161 69.064C116.161 71.816 118.689 73.16 121.313 73.16C124.065 73.16 126.401 71.816 126.401 69.064C126.401 66.28 124.065 64.84 121.313 64.84ZM133.617 77V61H139.569L138.929 67.592H139.249C140.081 62.344 142.545 60.488 148.049 60.488V65.16C141.809 65.16 139.121 66.472 139.121 71.624V77H133.617ZM152.693 58.952C150.613 58.952 149.429 58.12 149.429 56.04C149.429 53.96 150.613 53.096 152.693 53.096C154.773 53.096 156.021 53.96 156.021 56.04C156.021 58.12 154.837 58.952 152.693 58.952ZM150.005 77V61H155.509V77H150.005ZM158.353 77V54.6H163.857V77H158.353ZM166.581 77V54.6H172.085V77H166.581Z" fill="#172057"/>
</svg>
