<svg width="248" height="128" viewBox="0 0 248 128" fill="none" xmlns="http://www.w3.org/2000/svg">
<path d="M62.6729 16.3282C62.6729 16.3282 152.647 -2.04978 210.85 28.4302C269.034 58.9102 261.565 104.503 169.285 110.056C77.0038 115.589 15.5746 132.715 1.71293 80.0644C-12.1487 27.4136 62.6729 16.3282 62.6729 16.3282Z" fill="#F7DADD"/>
<path d="M85.7177 77.512C79.1257 77.512 74.7417 74.472 74.7417 66.152H80.2777C80.2777 71.112 82.1977 72.84 85.7177 72.84C89.2377 72.84 91.1577 71.112 91.1577 66.152V59.272H77.7177V54.6H96.6617V66.152C96.6617 74.472 92.2778 77.512 85.7177 77.512ZM119.53 61V77H113.577L114.218 70.408H113.962C113.193 75.144 110.921 77.512 105.993 77.512C101.481 77.448 99.4335 75.4 99.4335 67.944V61H104.937V67.4C104.937 71.912 106.121 73.384 109.001 73.384C112.009 73.384 114.025 70.312 114.025 65.896V61H119.53ZM142.07 61V77H136.118L136.758 70.408H136.502C135.734 75.144 133.462 77.512 128.534 77.512C124.022 77.448 121.974 75.4 121.974 67.944V61H127.478V67.4C127.478 71.912 128.661 73.384 131.542 73.384C134.55 73.384 136.566 70.312 136.566 65.896V61H142.07ZM144.834 77V61H150.786L150.146 67.592H150.402C151.17 62.856 153.442 60.488 158.37 60.488C162.882 60.552 164.93 62.6 164.93 70.056V77H159.426V70.6C159.426 66.088 158.242 64.616 155.362 64.616C152.354 64.616 150.338 67.688 150.338 72.104V77H144.834ZM170.222 58.952C168.142 58.952 166.958 58.12 166.958 56.04C166.958 53.96 168.142 53.096 170.222 53.096C172.302 53.096 173.55 53.96 173.55 56.04C173.55 58.12 172.366 58.952 170.222 58.952ZM167.534 77V61H173.038V77H167.534Z" fill="#172057"/>
</svg>
