<svg width="248" height="128" viewBox="0 0 248 128" fill="none" xmlns="http://www.w3.org/2000/svg">
<path d="M185.327 16.3282C185.327 16.3282 95.3534 -2.04978 37.15 28.4302C-21.0337 58.9102 -13.5652 104.503 78.7155 110.056C170.996 115.589 232.425 132.715 246.287 80.0644C260.149 27.4136 185.327 16.3282 185.327 16.3282Z" fill="#FFF6E1"/>
<path d="M31.298 77V54.6H35.906L51.618 68.84V54.6H57.122V77H52.482L36.802 62.76V77H31.298ZM69.6693 77.512C63.5573 77.512 59.5253 74.12 59.5253 69C59.5253 63.88 63.5573 60.488 69.6693 60.488C75.7813 60.488 79.8133 63.88 79.8133 69C79.8133 74.12 75.7813 77.512 69.6693 77.512ZM69.6693 73.16C72.6453 73.16 74.6293 71.496 74.6293 69C74.6293 66.504 72.6453 64.84 69.6693 64.84C66.6933 64.84 64.7093 66.504 64.7093 69C64.7093 71.496 66.6933 73.16 69.6693 73.16ZM87.316 77L78.868 61H84.788L90.836 72.456L96.852 61H102.772L94.324 77H87.316ZM111.456 77.512C105.664 77.512 101.824 74.12 101.824 69C101.824 63.88 105.664 60.488 111.456 60.488C117.184 60.488 120.992 63.4 121.088 67.752V70.376H107.2C107.744 72.392 109.6 73.32 113.056 73.32C116.96 73.32 118.56 72.328 120.384 71.56V75.944C117.6 77 115.712 77.512 111.456 77.512ZM107.072 68.136L115.808 67.944C115.68 65.704 114.08 64.84 111.456 64.84C108.96 64.84 107.392 65.8 107.072 68.136ZM123.001 77V61H128.953L128.313 67.592H128.569C129.337 62.856 131.609 60.488 136.537 60.488C140.473 60.552 142.457 62.12 142.905 67.592H143.161C143.929 62.856 146.201 60.488 151.129 60.488C155.641 60.552 157.689 62.6 157.689 70.056V77H152.185V70.6C152.185 66.056 151.001 64.616 148.121 64.616C145.113 64.616 143.097 67.688 143.097 72.104V77H137.593V70.6C137.593 66.056 136.409 64.616 133.529 64.616C130.521 64.616 128.505 67.688 128.505 72.104V77H123.001ZM173.767 77.512C169.703 77.512 166.151 75.432 165.447 71.784H165.063L165.767 77H160.135V54.6H165.639V66.184H165.767C166.503 62.568 169.799 60.488 173.703 60.488C178.407 60.488 181.927 63.848 181.927 68.872C181.927 74.056 178.439 77.512 173.767 77.512ZM171.527 73.16C174.279 73.16 176.615 71.72 176.615 68.936C176.615 66.184 174.279 64.84 171.527 64.84C168.903 64.84 166.375 66.184 166.375 68.936C166.375 71.72 168.903 73.16 171.527 73.16ZM192.514 77.512C186.722 77.512 182.882 74.12 182.882 69C182.882 63.88 186.722 60.488 192.514 60.488C198.242 60.488 202.05 63.4 202.146 67.752V70.376H188.258C188.802 72.392 190.658 73.32 194.114 73.32C198.018 73.32 199.618 72.328 201.442 71.56V75.944C198.658 77 196.77 77.512 192.514 77.512ZM188.13 68.136L196.866 67.944C196.738 65.704 195.138 64.84 192.514 64.84C190.018 64.84 188.45 65.8 188.13 68.136ZM204.058 77V61H210.01L209.37 67.592H209.69C210.523 62.344 212.986 60.488 218.49 60.488V65.16C212.25 65.16 209.562 66.472 209.562 71.624V77H204.058Z" fill="#172057"/>
</svg>
