<svg width="248" height="128" viewBox="0 0 248 128" fill="none" xmlns="http://www.w3.org/2000/svg">
<path d="M62.6729 111.672C62.6729 111.672 152.647 130.05 210.85 99.5698C269.034 69.0898 261.565 23.4968 169.285 17.9444C77.0038 12.4114 15.5746 -4.71525 1.71293 47.9356C-12.1487 100.586 62.6729 111.672 62.6729 111.672Z" fill="#F7DADD"/>
<path d="M27.6217 77V54.6H38.2777C46.3737 54.6 51.3337 58.472 51.3337 65.8C51.3337 73.224 46.3417 77 38.2777 77H27.6217ZM33.1257 72.328H38.2777C43.2057 72.328 45.9577 70.088 45.9577 65.8C45.9577 61.448 43.1417 59.272 38.2777 59.272H33.1257V72.328ZM62.2935 77.512C56.5015 77.512 52.6615 74.12 52.6615 69C52.6615 63.88 56.5015 60.488 62.2935 60.488C68.0215 60.488 71.8295 63.4 71.9255 67.752V70.376H58.0375C58.5815 72.392 60.4375 73.32 63.8935 73.32C67.7975 73.32 69.3975 72.328 71.2215 71.56V75.944C68.4375 77 66.5495 77.512 62.2935 77.512ZM57.9095 68.136L66.6455 67.944C66.5175 65.704 64.9175 64.84 62.2935 64.84C59.7975 64.84 58.2295 65.8 57.9095 68.136ZM80.231 77.32C76.071 77.32 75.431 75.816 75.431 71.24V65H73.383V61H76.103V57.16L80.935 56.52V61H84.839V65H80.935V70.28C80.935 72.904 80.935 73.608 83.335 73.608C83.751 73.608 84.263 73.576 84.839 73.544V76.68C83.335 77.128 81.959 77.32 80.231 77.32ZM95.334 77.512C92.87 77.512 89.414 77.032 86.758 76.264V71.72C89.446 72.744 91.686 73.096 94.502 73.096C97.926 73.096 99.43 72.808 99.43 71.848C99.43 69.096 86.054 72.744 86.054 65.928C86.054 62.216 89.83 60.488 95.462 60.488C97.382 60.488 100.678 60.84 103.462 61.384V65.832C101.19 65.352 98.566 65 96.166 65C92.806 65 91.366 65.384 91.366 66.184C91.366 68.488 104.742 65.16 104.742 72.136C104.742 75.944 100.966 77.512 95.334 77.512ZM115.132 77.512C109.34 77.512 105.5 74.12 105.5 69C105.5 63.88 109.34 60.488 115.132 60.488C120.86 60.488 124.668 63.4 124.764 67.752V70.376H110.876C111.42 72.392 113.276 73.32 116.732 73.32C120.636 73.32 122.236 72.328 124.06 71.56V75.944C121.276 77 119.388 77.512 115.132 77.512ZM110.748 68.136L119.484 67.944C119.356 65.704 117.756 64.84 115.132 64.84C112.636 64.84 111.068 65.8 110.748 68.136ZM126.677 77V61H132.629L131.989 67.592H132.245C133.013 62.856 135.285 60.488 140.213 60.488C144.149 60.552 146.133 62.12 146.581 67.592H146.837C147.605 62.856 149.877 60.488 154.805 60.488C159.317 60.552 161.365 62.6 161.365 70.056V77H155.861V70.6C155.861 66.056 154.677 64.616 151.797 64.616C148.789 64.616 146.773 67.688 146.773 72.104V77H141.269V70.6C141.269 66.056 140.085 64.616 137.205 64.616C134.197 64.616 132.181 67.688 132.181 72.104V77H126.677ZM177.443 77.512C173.379 77.512 169.827 75.432 169.123 71.784H168.739L169.443 77H163.811V54.6H169.315V66.184H169.443C170.179 62.568 173.475 60.488 177.379 60.488C182.083 60.488 185.603 63.848 185.603 68.872C185.603 74.056 182.115 77.512 177.443 77.512ZM175.203 73.16C177.955 73.16 180.291 71.72 180.291 68.936C180.291 66.184 177.955 64.84 175.203 64.84C172.579 64.84 170.051 66.184 170.051 68.936C170.051 71.72 172.579 73.16 175.203 73.16ZM196.19 77.512C190.398 77.512 186.558 74.12 186.558 69C186.558 63.88 190.398 60.488 196.19 60.488C201.918 60.488 205.726 63.4 205.822 67.752V70.376H191.934C192.478 72.392 194.334 73.32 197.79 73.32C201.694 73.32 203.294 72.328 205.118 71.56V75.944C202.334 77 200.446 77.512 196.19 77.512ZM191.806 68.136L200.542 67.944C200.414 65.704 198.814 64.84 196.19 64.84C193.694 64.84 192.126 65.8 191.806 68.136ZM207.735 77V61H213.687L213.047 67.592H213.367C214.199 62.344 216.663 60.488 222.167 60.488V65.16C215.927 65.16 213.239 66.472 213.239 71.624V77H207.735Z" fill="#172057"/>
</svg>
