<svg width="248" height="128" viewBox="0 0 248 128" fill="none" xmlns="http://www.w3.org/2000/svg">
<path d="M62.6729 111.672C62.6729 111.672 152.647 130.05 210.85 99.5698C269.034 69.0898 261.565 23.4968 169.285 17.9444C77.0038 12.4114 15.5746 -4.71525 1.71293 47.9356C-12.1487 100.586 62.6729 111.672 62.6729 111.672Z" fill="#F7DADD"/>
<path d="M45.1884 77H34.5004V54.6H45.1884C53.2844 54.6 58.2444 58.472 58.2444 65.8C58.2444 73.224 53.2524 77 45.1884 77ZM40.1644 59.368V72.2H45.1884C50.0524 72.2 52.6124 70.056 52.6124 65.8C52.6124 61.48 49.9884 59.368 45.1884 59.368H40.1644ZM69.1729 77.512C63.3809 77.512 59.5409 74.12 59.5409 69C59.5409 63.88 63.3809 60.488 69.1729 60.488C74.9009 60.488 78.7089 63.4 78.8049 67.752V70.376H65.1409C65.6529 72.296 67.4129 73.192 70.7729 73.192C74.6769 73.192 76.2769 72.2 78.1009 71.432V75.944C75.3489 76.968 73.4609 77.512 69.1729 77.512ZM65.0129 68.04H73.3649C73.2369 65.992 71.4769 64.936 69.1729 64.936C66.9969 64.936 65.3009 66.088 65.0129 68.04ZM90.0999 77.512C84.2119 77.512 79.9559 74.12 79.9559 69C79.9559 63.848 83.9879 60.488 90.1319 60.488C93.0119 60.488 95.0599 61.032 97.6199 62.184V66.92C95.5719 65.768 93.3959 64.936 90.5479 64.936C87.1879 64.936 85.3639 66.6 85.3639 69C85.3639 71.4 87.3159 73.032 90.7399 73.032C93.6519 73.032 95.7639 72.296 97.6199 71.112V75.816C95.0279 76.968 93.2679 77.512 90.0999 77.512ZM108.534 77.512C102.742 77.512 98.9021 74.12 98.9021 69C98.9021 63.88 102.742 60.488 108.534 60.488C114.262 60.488 118.07 63.4 118.166 67.752V70.376H104.502C105.014 72.296 106.774 73.192 110.134 73.192C114.038 73.192 115.638 72.2 117.462 71.432V75.944C114.71 76.968 112.822 77.512 108.534 77.512ZM104.374 68.04H112.726C112.598 65.992 110.838 64.936 108.534 64.936C106.358 64.936 104.662 66.088 104.374 68.04ZM125.648 77H119.984V61H126.096L125.456 67.592H125.744C126.512 62.76 128.752 60.488 133.712 60.488C137.648 60.552 139.6 62.088 140.048 67.592H140.336C141.104 62.76 143.344 60.488 148.304 60.488C152.784 60.552 154.832 62.504 154.832 70.056V77H149.168V70.6C149.168 66.12 148.016 64.712 145.2 64.744C142.224 64.744 140.24 67.752 140.24 72.04V77H134.576V70.6C134.576 66.12 133.424 64.712 130.608 64.744C127.632 64.744 125.648 67.752 125.648 72.04V77ZM170.437 77.512C166.373 77.512 163.173 75.176 162.469 71.784H162.085L162.789 77H157.029V54.6H162.661V66.184H162.789C163.525 62.6 166.821 60.488 170.693 60.488C175.429 60.488 178.885 63.848 178.885 68.872C178.885 74.056 175.461 77.512 170.437 77.512ZM168.453 73.032C171.141 73.032 173.477 71.688 173.477 68.936C173.477 66.248 171.141 64.936 168.453 64.936C165.893 64.936 163.397 66.248 163.397 68.936C163.397 71.688 165.893 73.032 168.453 73.032ZM189.498 77.512C183.706 77.512 179.866 74.12 179.866 69C179.866 63.88 183.706 60.488 189.498 60.488C195.226 60.488 199.034 63.4 199.13 67.752V70.376H185.466C185.978 72.296 187.738 73.192 191.098 73.192C195.002 73.192 196.602 72.2 198.426 71.432V75.944C195.674 76.968 193.786 77.512 189.498 77.512ZM185.338 68.04H193.69C193.562 65.992 191.802 64.936 189.498 64.936C187.322 64.936 185.626 66.088 185.338 68.04ZM206.393 77H200.729V61H206.841L206.201 66.952H206.521C207.353 62.344 209.817 60.488 215.257 60.488V65.256C209.081 65.256 206.393 66.472 206.393 71.624V77Z" fill="#172057"/>
</svg>
