<svg width="248" height="128" viewBox="0 0 248 128" fill="none" xmlns="http://www.w3.org/2000/svg">
<path d="M62.6729 16.3282C62.6729 16.3282 152.647 -2.04978 210.85 28.4302C269.034 58.9102 261.565 104.503 169.285 110.056C77.0038 115.589 15.5746 132.715 1.71293 80.0644C-12.1487 27.4136 62.6729 16.3282 62.6729 16.3282Z" fill="#F7DADD"/>
<path d="M62.3184 77.512C55.7264 77.512 51.3424 74.472 51.3424 66.152H56.8784C56.8784 71.112 58.7984 72.84 62.3184 72.84C65.8384 72.84 67.7584 71.112 67.7584 66.152V59.272H54.3184V54.6H73.2624V66.152C73.2624 74.472 68.8784 77.512 62.3184 77.512ZM80.3879 77.512C78.0199 77.512 74.4359 77 74.4359 73.288C74.4359 69.16 81.0919 68.04 88.0039 67.56C88.0039 65.832 86.6919 65.096 84.2279 65.096C81.7319 65.096 78.5959 65.864 76.4519 66.792V62.216C79.1399 61.224 82.6919 60.488 85.5079 60.488C91.3319 60.488 93.5079 63.496 93.5079 67.976V77H88.2279L88.9319 71.272H88.6119C87.6519 75.656 85.2839 77.512 80.3879 77.512ZM82.8199 73.736C85.3159 73.736 88.0039 72.552 87.9719 69.96C84.2919 70.216 80.1319 70.536 80.1319 72.296C80.1319 73.224 81.2519 73.736 82.8199 73.736ZM101.397 77.512C99.0286 77.512 95.4446 77 95.4446 73.288C95.4446 69.16 102.101 68.04 109.013 67.56C109.013 65.832 107.701 65.096 105.237 65.096C102.741 65.096 99.6046 65.864 97.4606 66.792V62.216C100.149 61.224 103.701 60.488 106.517 60.488C112.341 60.488 114.517 63.496 114.517 67.976V77H109.237L109.941 71.272H109.621C108.661 75.656 106.293 77.512 101.397 77.512ZM103.829 73.736C106.325 73.736 109.013 72.552 108.981 69.96C105.301 70.216 101.141 70.536 101.141 72.296C101.141 73.224 102.261 73.736 103.829 73.736ZM116.965 77V61H122.917L122.277 67.592H122.533C123.301 62.856 125.573 60.488 130.501 60.488C135.013 60.552 137.061 62.6 137.061 70.056V77H131.557V70.6C131.557 66.088 130.373 64.616 127.493 64.616C124.485 64.616 122.469 67.688 122.469 72.104V77H116.965ZM159.281 61V77H153.329L153.969 70.408H153.713C152.945 75.144 150.673 77.512 145.745 77.512C141.233 77.448 139.185 75.4 139.185 67.944V61H144.689V67.4C144.689 71.912 145.873 73.384 148.753 73.384C151.761 73.384 153.777 70.312 153.777 65.896V61H159.281ZM167.485 77.512C165.117 77.512 161.533 77 161.533 73.288C161.533 69.16 168.189 68.04 175.101 67.56C175.101 65.832 173.789 65.096 171.325 65.096C168.829 65.096 165.693 65.864 163.549 66.792V62.216C166.237 61.224 169.789 60.488 172.605 60.488C178.429 60.488 180.605 63.496 180.605 67.976V77H175.325L176.029 71.272H175.709C174.749 75.656 172.381 77.512 167.485 77.512ZM169.917 73.736C172.413 73.736 175.101 72.552 175.069 69.96C171.389 70.216 167.229 70.536 167.229 72.296C167.229 73.224 168.349 73.736 169.917 73.736ZM183.054 77V61H189.006L188.366 67.592H188.686C189.518 62.344 191.982 60.488 197.486 60.488V65.16C191.246 65.16 188.558 66.472 188.558 71.624V77H183.054Z" fill="#172057"/>
</svg>
