<svg width="248" height="128" viewBox="0 0 248 128" fill="none" xmlns="http://www.w3.org/2000/svg">
<path d="M71.682 3.85686C71.682 3.85686 115.123 -8.86522 191.582 21.2102C268.041 51.257 276.66 119.641 155.414 125.13C34.1685 130.591 20.7095 125.13 2.49681 73.2132C-15.7159 21.296 71.682 3.88538 71.682 3.88538" fill="#C0FFD3"/>
<path d="M95.3355 77V54.6H100.231L109.448 69.128L118.632 54.6H123.559V77H118.056V64.072L109.992 77H108.903L100.839 64.104V77H95.3355ZM132.171 77.512C129.803 77.512 126.219 77 126.219 73.288C126.219 69.16 132.875 68.04 139.787 67.56C139.787 65.832 138.475 65.096 136.011 65.096C133.515 65.096 130.379 65.864 128.235 66.792V62.216C130.923 61.224 134.475 60.488 137.291 60.488C143.115 60.488 145.291 63.496 145.291 67.976V77H140.011L140.715 71.272H140.395C139.435 75.656 137.067 77.512 132.171 77.512ZM134.603 73.736C137.099 73.736 139.787 72.552 139.755 69.96C136.075 70.216 131.915 70.536 131.915 72.296C131.915 73.224 133.035 73.736 134.603 73.736ZM150.588 58.952C148.508 58.952 147.324 58.12 147.324 56.04C147.324 53.96 148.508 53.096 150.588 53.096C152.668 53.096 153.916 53.96 153.916 56.04C153.916 58.12 152.732 58.952 150.588 58.952ZM147.9 77V61H153.404V77H147.9Z" fill="#172057"/>
</svg>
