<svg width="1440" height="1032" viewBox="0 0 1440 1032" preserveAspectRatio="none" fill="none" xmlns="http://www.w3.org/2000/svg">
<path d="M1440 952.329L1329.2 959.524C1259.66 962.39 1189.93 965.269 1121.54 974.461C1077.41 980.397 1034.03 988.939 990.656 997.482C950.299 1005.43 909.939 1013.38 868.964 1019.23C756.486 1035.29 639.789 1035.34 525.508 1019.35C483.161 1013.43 440.565 1005.33 397.954 997.221C280.86 974.944 163.644 952.644 51.1115 975.527C33.4875 979.11 16.4716 983.711 0 989.192V99.2305C18.8825 91.7748 37.522 84.1513 55.9088 76.3634C62.7044 73.4847 69.4808 70.5787 76.2635 67.6699L76.3362 67.6388C121.46 48.287 166.873 28.811 220.167 16.4138C326.196 -8.24536 451.521 -1.9956 566.423 14.6751C620.693 22.5491 673.885 32.6101 727.068 42.6697L727.069 42.67L727.074 42.6711C786.488 53.9093 845.892 65.1455 906.779 73.3279C1033.34 90.3385 1163.06 93.7732 1292.83 97.2089H1292.83C1341.94 98.509 1391.05 99.8095 1440 101.846V952.329Z" fill="#F7DADD"/>
</svg>
