<svg width="" height="" viewBox="0 0 1440 1032" preserveAspectRatio="none" fill="none" xmlns="http://www.w3.org/2000/svg">
<path d="M0 948.149C16.4716 937.327 33.4875 928.242 51.1115 921.167C163.644 875.984 280.86 920.017 397.954 964.003C440.565 980.01 483.161 996.011 525.508 1007.7C639.789 1039.26 756.486 1039.17 868.964 1007.46C909.939 995.906 950.299 980.212 990.656 964.518C1034.03 947.65 1077.41 930.783 1121.54 919.063C1189.93 900.912 1259.66 895.229 1329.2 889.569L1440 875.363V312.602C1391.05 306.352 1341.94 302.36 1292.83 298.37C1163.06 287.825 1033.34 277.283 906.779 225.07C845.89 199.955 786.485 165.465 727.069 130.97C673.885 100.093 620.694 69.2114 566.423 45.0432C451.521 -6.12524 326.196 -25.3081 220.167 50.3801C166.873 88.4318 121.46 148.211 76.3362 207.608C69.5291 216.569 62.7287 225.52 55.9088 234.387C37.522 258.291 18.8825 281.691 0 304.575V948.149Z" fill="#F7DADD"/>
</svg>
